<?xml version="1.0" encoding="utf-8" standalone="no"?>
<!DOCTYPE svg PUBLIC "-//W3C//DTD SVG 1.1//EN"
  "http://www.w3.org/Graphics/SVG/1.1/DTD/svg11.dtd">
<svg xmlns:xlink="http://www.w3.org/1999/xlink" width="971.887074pt" height="356.014811pt" viewBox="0 0 971.887074 356.014811" xmlns="http://www.w3.org/2000/svg" version="1.1">
 <metadata>
  <rdf:RDF xmlns:dc="http://purl.org/dc/elements/1.1/" xmlns:cc="http://creativecommons.org/ns#" xmlns:rdf="http://www.w3.org/1999/02/22-rdf-syntax-ns#">
   <cc:Work>
    <dc:type rdf:resource="http://purl.org/dc/dcmitype/StillImage"/>
    <dc:date>2025-12-11T18:00:39.059343</dc:date>
    <dc:format>image/svg+xml</dc:format>
    <dc:creator>
     <cc:Agent>
      <dc:title>Matplotlib v3.10.0, https://matplotlib.org/</dc:title>
     </cc:Agent>
    </dc:creator>
   </cc:Work>
  </rdf:RDF>
 </metadata>
 <defs>
  <style type="text/css">*{stroke-linejoin: round; stroke-linecap: butt}</style>
 </defs>
 <g id="figure_1">
  <g id="patch_1">
   <path d="M 0 356.014811 
L 971.887074 356.014811 
L 971.887074 -0 
L 0 -0 
L 0 356.014811 
z
" style="fill: none"/>
  </g>
  <g id="axes_1">
   <g id="PathCollection_1">
    <path d="M 703.861575 82.188314 
C 704.79921 82.188314 705.698567 81.815788 706.361575 81.15278 
C 707.024583 80.489772 707.397109 79.590415 707.397109 78.65278 
C 707.397109 77.715145 707.024583 76.815788 706.361575 76.15278 
C 705.698567 75.489772 704.79921 75.117246 703.861575 75.117246 
C 702.923941 75.117246 702.024583 75.489772 701.361575 76.15278 
C 700.698567 76.815788 700.326041 77.715145 700.326041 78.65278 
C 700.326041 79.590415 700.698567 80.489772 701.361575 81.15278 
C 702.024583 81.815788 702.923941 82.188314 703.861575 82.188314 
z
" clip-path="url(#p14b94870db)" style="fill: #f8e3f9; fill-opacity: 0.9; stroke: #791a76; stroke-opacity: 0.9; stroke-width: 0.7"/>
    <path d="M 704.829603 110.351905 
C 710.759725 110.351905 716.447762 107.995843 720.640991 103.802614 
C 724.83422 99.609385 727.190283 93.921347 727.190283 87.991225 
C 727.190283 82.061104 724.83422 76.373066 720.640991 72.179837 
C 716.447762 67.986608 710.759725 65.630546 704.829603 65.630546 
C 698.899481 65.630546 693.211444 67.986608 689.018215 72.179837 
C 684.824985 76.373066 682.468923 82.061104 682.468923 87.991225 
C 682.468923 93.921347 684.824985 99.609385 689.018215 103.802614 
C 693.211444 107.995843 698.899481 110.351905 704.829603 110.351905 
z
" clip-path="url(#p14b94870db)" style="fill: #791a76; fill-opacity: 0.9; stroke: #791a76; stroke-opacity: 0.9; stroke-width: 0.7"/>
    <path d="M 701.558469 99.816358 
C 706.669591 99.816358 711.572062 97.785688 715.186172 94.171579 
C 718.800281 90.55747 720.830951 85.654998 720.830951 80.543876 
C 720.830951 75.432754 718.800281 70.530282 715.186172 66.916173 
C 711.572062 63.302064 706.669591 61.271393 701.558469 61.271393 
C 696.447347 61.271393 691.544875 63.302064 687.930766 66.916173 
C 684.316657 70.530282 682.285986 75.432754 682.285986 80.543876 
C 682.285986 85.654998 684.316657 90.55747 687.930766 94.171579 
C 691.544875 97.785688 696.447347 99.816358 701.558469 99.816358 
z
" clip-path="url(#p14b94870db)" style="fill: #9a4f98; fill-opacity: 0.9; stroke: #791a76; stroke-opacity: 0.9; stroke-width: 0.7"/>
    <path d="M 699.349751 84.109841 
C 700.287386 84.109841 701.186743 83.737315 701.849751 83.074307 
C 702.512759 82.411299 702.885285 81.511941 702.885285 80.574307 
C 702.885285 79.636672 702.512759 78.737315 701.849751 78.074307 
C 701.186743 77.411299 700.287386 77.038773 699.349751 77.038773 
C 698.412117 77.038773 697.512759 77.411299 696.849751 78.074307 
C 696.186743 78.737315 695.814217 79.636672 695.814217 80.574307 
C 695.814217 81.511941 696.186743 82.411299 696.849751 83.074307 
C 697.512759 83.737315 698.412117 84.109841 699.349751 84.109841 
z
" clip-path="url(#p14b94870db)" style="fill: #f8e3f9; fill-opacity: 0.9; stroke: #791a76; stroke-opacity: 0.9; stroke-width: 0.7"/>
    <path d="M 319.063545 274.236762 
C 320.184233 274.236762 321.259171 273.791508 322.051617 272.999062 
C 322.844063 272.206616 323.289317 271.131678 323.289317 270.010991 
C 323.289317 268.890303 322.844063 267.815365 322.051617 267.022919 
C 321.259171 266.230473 320.184233 265.785219 319.063545 265.785219 
C 317.942858 265.785219 316.86792 266.230473 316.075474 267.022919 
C 315.283028 267.815365 314.837774 268.890303 314.837774 270.010991 
C 314.837774 271.131678 315.283028 272.206616 316.075474 272.999062 
C 316.86792 273.791508 317.942858 274.236762 319.063545 274.236762 
z
" clip-path="url(#p14b94870db)" style="fill: #f7e1f8; fill-opacity: 0.9; stroke: #791a76; stroke-opacity: 0.9; stroke-width: 0.7"/>
    <path d="M 540.613027 183.884441 
C 541.890807 183.884441 543.116425 183.376774 544.019953 182.473247 
C 544.92348 181.569719 545.431147 180.344101 545.431147 179.066321 
C 545.431147 177.78854 544.92348 176.562922 544.019953 175.659395 
C 543.116425 174.755868 541.890807 174.2482 540.613027 174.2482 
C 539.335246 174.2482 538.109628 174.755868 537.206101 175.659395 
C 536.302574 176.562922 535.794906 177.78854 535.794906 179.066321 
C 535.794906 180.344101 536.302574 181.569719 537.206101 182.473247 
C 538.109628 183.376774 539.335246 183.884441 540.613027 183.884441 
z
" clip-path="url(#p14b94870db)" style="fill: #f5dff6; fill-opacity: 0.9; stroke: #791a76; stroke-opacity: 0.9; stroke-width: 0.7"/>
    <path d="M 309.313423 290.03025 
C 310.251057 290.03025 311.150415 289.657724 311.813423 288.994716 
C 312.47643 288.331708 312.848956 287.43235 312.848956 286.494716 
C 312.848956 285.557081 312.47643 284.657724 311.813423 283.994716 
C 311.150415 283.331708 310.251057 282.959182 309.313423 282.959182 
C 308.375788 282.959182 307.47643 283.331708 306.813423 283.994716 
C 306.150415 284.657724 305.777889 285.557081 305.777889 286.494716 
C 305.777889 287.43235 306.150415 288.331708 306.813423 288.994716 
C 307.47643 289.657724 308.375788 290.03025 309.313423 290.03025 
z
" clip-path="url(#p14b94870db)" style="fill: #f8e3f9; fill-opacity: 0.9; stroke: #791a76; stroke-opacity: 0.9; stroke-width: 0.7"/>
    <path d="M 701.85298 83.049103 
C 702.790615 83.049103 703.689972 82.676577 704.35298 82.013569 
C 705.015988 81.350562 705.388514 80.451204 705.388514 79.513569 
C 705.388514 78.575935 705.015988 77.676577 704.35298 77.013569 
C 703.689972 76.350562 702.790615 75.978035 701.85298 75.978035 
C 700.915346 75.978035 700.015988 76.350562 699.35298 77.013569 
C 698.689972 77.676577 698.317446 78.575935 698.317446 79.513569 
C 698.317446 80.451204 698.689972 81.350562 699.35298 82.013569 
C 700.015988 82.676577 700.915346 83.049103 701.85298 83.049103 
z
" clip-path="url(#p14b94870db)" style="fill: #f8e3f9; fill-opacity: 0.9; stroke: #791a76; stroke-opacity: 0.9; stroke-width: 0.7"/>
    <path d="M 698.809737 87.758458 
C 699.930425 87.758458 701.005363 87.313204 701.797809 86.520759 
C 702.590255 85.728313 703.035509 84.653375 703.035509 83.532687 
C 703.035509 82.411999 702.590255 81.337061 701.797809 80.544615 
C 701.005363 79.75217 699.930425 79.306916 698.809737 79.306916 
C 697.68905 79.306916 696.614112 79.75217 695.821666 80.544615 
C 695.02922 81.337061 694.583966 82.411999 694.583966 83.532687 
C 694.583966 84.653375 695.02922 85.728313 695.821666 86.520759 
C 696.614112 87.313204 697.68905 87.758458 698.809737 87.758458 
z
" clip-path="url(#p14b94870db)" style="fill: #f7e1f8; fill-opacity: 0.9; stroke: #791a76; stroke-opacity: 0.9; stroke-width: 0.7"/>
    <path d="M 702.356635 82.75907 
C 703.294269 82.75907 704.193627 82.386543 704.856635 81.723536 
C 705.519643 81.060528 705.892169 80.16117 705.892169 79.223536 
C 705.892169 78.285901 705.519643 77.386543 704.856635 76.723536 
C 704.193627 76.060528 703.294269 75.688002 702.356635 75.688002 
C 701.419 75.688002 700.519643 76.060528 699.856635 76.723536 
C 699.193627 77.386543 698.821101 78.285901 698.821101 79.223536 
C 698.821101 80.16117 699.193627 81.060528 699.856635 81.723536 
C 700.519643 82.386543 701.419 82.75907 702.356635 82.75907 
z
" clip-path="url(#p14b94870db)" style="fill: #f8e3f9; fill-opacity: 0.9; stroke: #791a76; stroke-opacity: 0.9; stroke-width: 0.7"/>
    <path d="M 378.39113 209.042174 
C 379.328765 209.042174 380.228123 208.669648 380.89113 208.00664 
C 381.554138 207.343632 381.926664 206.444275 381.926664 205.50664 
C 381.926664 204.569006 381.554138 203.669648 380.89113 203.00664 
C 380.228123 202.343632 379.328765 201.971106 378.39113 201.971106 
C 377.453496 201.971106 376.554138 202.343632 375.89113 203.00664 
C 375.228123 203.669648 374.855597 204.569006 374.855597 205.50664 
C 374.855597 206.444275 375.228123 207.343632 375.89113 208.00664 
C 376.554138 208.669648 377.453496 209.042174 378.39113 209.042174 
z
" clip-path="url(#p14b94870db)" style="fill: #f8e3f9; fill-opacity: 0.9; stroke: #791a76; stroke-opacity: 0.9; stroke-width: 0.7"/>
    <path d="M 516.581499 177.231662 
C 517.519133 177.231662 518.418491 176.859136 519.081499 176.196128 
C 519.744506 175.533121 520.117033 174.633763 520.117033 173.696128 
C 520.117033 172.758494 519.744506 171.859136 519.081499 171.196128 
C 518.418491 170.533121 517.519133 170.160594 516.581499 170.160594 
C 515.643864 170.160594 514.744506 170.533121 514.081499 171.196128 
C 513.418491 171.859136 513.045965 172.758494 513.045965 173.696128 
C 513.045965 174.633763 513.418491 175.533121 514.081499 176.196128 
C 514.744506 176.859136 515.643864 177.231662 516.581499 177.231662 
z
" clip-path="url(#p14b94870db)" style="fill: #f8e3f9; fill-opacity: 0.9; stroke: #791a76; stroke-opacity: 0.9; stroke-width: 0.7"/>
    <path d="M 706.607395 88.625305 
C 707.885175 88.625305 709.110793 88.117638 710.01432 87.21411 
C 710.917848 86.310583 711.425515 85.084965 711.425515 83.807185 
C 711.425515 82.529404 710.917848 81.303786 710.01432 80.400259 
C 709.110793 79.496732 707.885175 78.989064 706.607395 78.989064 
C 705.329614 78.989064 704.103996 79.496732 703.200469 80.400259 
C 702.296942 81.303786 701.789274 82.529404 701.789274 83.807185 
C 701.789274 85.084965 702.296942 86.310583 703.200469 87.21411 
C 704.103996 88.117638 705.329614 88.625305 706.607395 88.625305 
z
" clip-path="url(#p14b94870db)" style="fill: #f5dff6; fill-opacity: 0.9; stroke: #791a76; stroke-opacity: 0.9; stroke-width: 0.7"/>
    <path d="M 282.146725 300.077594 
C 283.084359 300.077594 283.983717 299.705068 284.646725 299.04206 
C 285.309733 298.379053 285.682259 297.479695 285.682259 296.54206 
C 285.682259 295.604426 285.309733 294.705068 284.646725 294.04206 
C 283.983717 293.379053 283.084359 293.006527 282.146725 293.006527 
C 281.20909 293.006527 280.309733 293.379053 279.646725 294.04206 
C 278.983717 294.705068 278.611191 295.604426 278.611191 296.54206 
C 278.611191 297.479695 278.983717 298.379053 279.646725 299.04206 
C 280.309733 299.705068 281.20909 300.077594 282.146725 300.077594 
z
" clip-path="url(#p14b94870db)" style="fill: #f8e3f9; fill-opacity: 0.9; stroke: #791a76; stroke-opacity: 0.9; stroke-width: 0.7"/>
    <path d="M 661.350805 76.291185 
C 662.471493 76.291185 663.546431 75.845931 664.338877 75.053485 
C 665.131322 74.261039 665.576576 73.186101 665.576576 72.065414 
C 665.576576 70.944726 665.131322 69.869788 664.338877 69.077342 
C 663.546431 68.284896 662.471493 67.839642 661.350805 67.839642 
C 660.230117 67.839642 659.155179 68.284896 658.362733 69.077342 
C 657.570288 69.869788 657.125034 70.944726 657.125034 72.065414 
C 657.125034 73.186101 657.570288 74.261039 658.362733 75.053485 
C 659.155179 75.845931 660.230117 76.291185 661.350805 76.291185 
z
" clip-path="url(#p14b94870db)" style="fill: #f7e1f8; fill-opacity: 0.9; stroke: #791a76; stroke-opacity: 0.9; stroke-width: 0.7"/>
    <path d="M 157.172727 326.357374 
C 158.110362 326.357374 159.00972 325.984848 159.672727 325.32184 
C 160.335735 324.658833 160.708261 323.759475 160.708261 322.82184 
C 160.708261 321.884206 160.335735 320.984848 159.672727 320.32184 
C 159.00972 319.658833 158.110362 319.286307 157.172727 319.286307 
C 156.235093 319.286307 155.335735 319.658833 154.672727 320.32184 
C 154.00972 320.984848 153.637193 321.884206 153.637193 322.82184 
C 153.637193 323.759475 154.00972 324.658833 154.672727 325.32184 
C 155.335735 325.984848 156.235093 326.357374 157.172727 326.357374 
z
" clip-path="url(#p14b94870db)" style="fill: #f8e3f9; fill-opacity: 0.9; stroke: #791a76; stroke-opacity: 0.9; stroke-width: 0.7"/>
    <path d="M 706.134469 88.317677 
C 707.072104 88.317677 707.971462 87.945151 708.634469 87.282143 
C 709.297477 86.619135 709.670003 85.719778 709.670003 84.782143 
C 709.670003 83.844509 709.297477 82.945151 708.634469 82.282143 
C 707.971462 81.619135 707.072104 81.246609 706.134469 81.246609 
C 705.196835 81.246609 704.297477 81.619135 703.634469 82.282143 
C 702.971462 82.945151 702.598935 83.844509 702.598935 84.782143 
C 702.598935 85.719778 702.971462 86.619135 703.634469 87.282143 
C 704.297477 87.945151 705.196835 88.317677 706.134469 88.317677 
z
" clip-path="url(#p14b94870db)" style="fill: #f8e3f9; fill-opacity: 0.9; stroke: #791a76; stroke-opacity: 0.9; stroke-width: 0.7"/>
    <path d="M 659.635898 150.925878 
C 660.573532 150.925878 661.47289 150.553352 662.135898 149.890344 
C 662.798905 149.227337 663.171431 148.327979 663.171431 147.390344 
C 663.171431 146.45271 662.798905 145.553352 662.135898 144.890344 
C 661.47289 144.227337 660.573532 143.85481 659.635898 143.85481 
C 658.698263 143.85481 657.798905 144.227337 657.135898 144.890344 
C 656.47289 145.553352 656.100364 146.45271 656.100364 147.390344 
C 656.100364 148.327979 656.47289 149.227337 657.135898 149.890344 
C 657.798905 150.553352 658.698263 150.925878 659.635898 150.925878 
z
" clip-path="url(#p14b94870db)" style="fill: #f8e3f9; fill-opacity: 0.9; stroke: #791a76; stroke-opacity: 0.9; stroke-width: 0.7"/>
    <path d="M 261.199712 339.088471 
C 262.137347 339.088471 263.036704 338.715945 263.699712 338.052937 
C 264.36272 337.389929 264.735246 336.490572 264.735246 335.552937 
C 264.735246 334.615302 264.36272 333.715945 263.699712 333.052937 
C 263.036704 332.389929 262.137347 332.017403 261.199712 332.017403 
C 260.262078 332.017403 259.36272 332.389929 258.699712 333.052937 
C 258.036704 333.715945 257.664178 334.615302 257.664178 335.552937 
C 257.664178 336.490572 258.036704 337.389929 258.699712 338.052937 
C 259.36272 338.715945 260.262078 339.088471 261.199712 339.088471 
z
" clip-path="url(#p14b94870db)" style="fill: #f8e3f9; fill-opacity: 0.9; stroke: #791a76; stroke-opacity: 0.9; stroke-width: 0.7"/>
    <path d="M 766.974296 252.669296 
C 767.911931 252.669296 768.811288 252.29677 769.474296 251.633762 
C 770.137304 250.970755 770.50983 250.071397 770.50983 249.133762 
C 770.50983 248.196128 770.137304 247.29677 769.474296 246.633762 
C 768.811288 245.970755 767.911931 245.598228 766.974296 245.598228 
C 766.036662 245.598228 765.137304 245.970755 764.474296 246.633762 
C 763.811288 247.29677 763.438762 248.196128 763.438762 249.133762 
C 763.438762 250.071397 763.811288 250.970755 764.474296 251.633762 
C 765.137304 252.29677 766.036662 252.669296 766.974296 252.669296 
z
" clip-path="url(#p14b94870db)" style="fill: #f8e3f9; fill-opacity: 0.9; stroke: #791a76; stroke-opacity: 0.9; stroke-width: 0.7"/>
    <path d="M 702.286721 88.23479 
C 703.224356 88.23479 704.123714 87.862264 704.786721 87.199256 
C 705.449729 86.536248 705.822255 85.63689 705.822255 84.699256 
C 705.822255 83.761621 705.449729 82.862264 704.786721 82.199256 
C 704.123714 81.536248 703.224356 81.163722 702.286721 81.163722 
C 701.349087 81.163722 700.449729 81.536248 699.786721 82.199256 
C 699.123714 82.862264 698.751188 83.761621 698.751188 84.699256 
C 698.751188 85.63689 699.123714 86.536248 699.786721 87.199256 
C 700.449729 87.862264 701.349087 88.23479 702.286721 88.23479 
z
" clip-path="url(#p14b94870db)" style="fill: #f8e3f9; fill-opacity: 0.9; stroke: #791a76; stroke-opacity: 0.9; stroke-width: 0.7"/>
    <path d="M 771.798126 194.263778 
C 772.735761 194.263778 773.635119 193.891252 774.298126 193.228244 
C 774.961134 192.565237 775.33366 191.665879 775.33366 190.728244 
C 775.33366 189.79061 774.961134 188.891252 774.298126 188.228244 
C 773.635119 187.565237 772.735761 187.19271 771.798126 187.19271 
C 770.860492 187.19271 769.961134 187.565237 769.298126 188.228244 
C 768.635119 188.891252 768.262593 189.79061 768.262593 190.728244 
C 768.262593 191.665879 768.635119 192.565237 769.298126 193.228244 
C 769.961134 193.891252 770.860492 194.263778 771.798126 194.263778 
z
" clip-path="url(#p14b94870db)" style="fill: #f8e3f9; fill-opacity: 0.9; stroke: #791a76; stroke-opacity: 0.9; stroke-width: 0.7"/>
    <path d="M 664.464657 74.806136 
C 665.402291 74.806136 666.301649 74.43361 666.964657 73.770602 
C 667.627665 73.107594 668.000191 72.208237 668.000191 71.270602 
C 668.000191 70.332968 667.627665 69.43361 666.964657 68.770602 
C 666.301649 68.107594 665.402291 67.735068 664.464657 67.735068 
C 663.527022 67.735068 662.627665 68.107594 661.964657 68.770602 
C 661.301649 69.43361 660.929123 70.332968 660.929123 71.270602 
C 660.929123 72.208237 661.301649 73.107594 661.964657 73.770602 
C 662.627665 74.43361 663.527022 74.806136 664.464657 74.806136 
z
" clip-path="url(#p14b94870db)" style="fill: #f8e3f9; fill-opacity: 0.9; stroke: #791a76; stroke-opacity: 0.9; stroke-width: 0.7"/>
    <path d="M 678.464925 264.640673 
C 679.40256 264.640673 680.301918 264.268147 680.964925 263.605139 
C 681.627933 262.942131 682.000459 262.042774 682.000459 261.105139 
C 682.000459 260.167505 681.627933 259.268147 680.964925 258.605139 
C 680.301918 257.942131 679.40256 257.569605 678.464925 257.569605 
C 677.527291 257.569605 676.627933 257.942131 675.964925 258.605139 
C 675.301918 259.268147 674.929392 260.167505 674.929392 261.105139 
C 674.929392 262.042774 675.301918 262.942131 675.964925 263.605139 
C 676.627933 264.268147 677.527291 264.640673 678.464925 264.640673 
z
" clip-path="url(#p14b94870db)" style="fill: #f8e3f9; fill-opacity: 0.9; stroke: #791a76; stroke-opacity: 0.9; stroke-width: 0.7"/>
    <path d="M 700.635962 86.479217 
C 701.573597 86.479217 702.472954 86.106691 703.135962 85.443683 
C 703.79897 84.780675 704.171496 83.881317 704.171496 82.943683 
C 704.171496 82.006048 703.79897 81.106691 703.135962 80.443683 
C 702.472954 79.780675 701.573597 79.408149 700.635962 79.408149 
C 699.698328 79.408149 698.79897 79.780675 698.135962 80.443683 
C 697.472954 81.106691 697.100428 82.006048 697.100428 82.943683 
C 697.100428 83.881317 697.472954 84.780675 698.135962 85.443683 
C 698.79897 86.106691 699.698328 86.479217 700.635962 86.479217 
z
" clip-path="url(#p14b94870db)" style="fill: #f8e3f9; fill-opacity: 0.9; stroke: #791a76; stroke-opacity: 0.9; stroke-width: 0.7"/>
    <path d="M 628.15758 73.850989 
C 629.095215 73.850989 629.994573 73.478463 630.65758 72.815455 
C 631.320588 72.152447 631.693114 71.25309 631.693114 70.315455 
C 631.693114 69.377821 631.320588 68.478463 630.65758 67.815455 
C 629.994573 67.152447 629.095215 66.779921 628.15758 66.779921 
C 627.219946 66.779921 626.320588 67.152447 625.65758 67.815455 
C 624.994573 68.478463 624.622046 69.377821 624.622046 70.315455 
C 624.622046 71.25309 624.994573 72.152447 625.65758 72.815455 
C 626.320588 73.478463 627.219946 73.850989 628.15758 73.850989 
z
" clip-path="url(#p14b94870db)" style="fill: #f8e3f9; fill-opacity: 0.9; stroke: #791a76; stroke-opacity: 0.9; stroke-width: 0.7"/>
    <path d="M 771.951137 299.382817 
C 774.979068 299.382817 777.883391 298.179808 780.024461 296.038737 
C 782.165532 293.897666 783.368542 290.993343 783.368542 287.965412 
C 783.368542 284.937481 782.165532 282.033158 780.024461 279.892087 
C 777.883391 277.751017 774.979068 276.548007 771.951137 276.548007 
C 768.923205 276.548007 766.018883 277.751017 763.877812 279.892087 
C 761.736741 282.033158 760.533731 284.937481 760.533731 287.965412 
C 760.533731 290.993343 761.736741 293.897666 763.877812 296.038737 
C 766.018883 298.179808 768.923205 299.382817 771.951137 299.382817 
z
" clip-path="url(#p14b94870db)" style="fill: #d9b2d9; fill-opacity: 0.9; stroke: #791a76; stroke-opacity: 0.9; stroke-width: 0.7"/>
    <path d="M 793.951616 317.421661 
C 795.613864 317.421661 797.208255 316.761243 798.383642 315.585856 
C 799.559029 314.410469 800.219448 312.816078 800.219448 311.15383 
C 800.219448 309.491581 799.559029 307.897191 798.383642 306.721803 
C 797.208255 305.546416 795.613864 304.885998 793.951616 304.885998 
C 792.289368 304.885998 790.694977 305.546416 789.51959 306.721803 
C 788.344203 307.897191 787.683784 309.491581 787.683784 311.15383 
C 787.683784 312.816078 788.344203 314.410469 789.51959 315.585856 
C 790.694977 316.761243 792.289368 317.421661 793.951616 317.421661 
z
" clip-path="url(#p14b94870db)" style="fill: #f2d9f2; fill-opacity: 0.9; stroke: #791a76; stroke-opacity: 0.9; stroke-width: 0.7"/>
    <path d="M 793.849854 316.722857 
C 794.787489 316.722857 795.686846 316.350331 796.349854 315.687323 
C 797.012862 315.024315 797.385388 314.124957 797.385388 313.187323 
C 797.385388 312.249688 797.012862 311.350331 796.349854 310.687323 
C 795.686846 310.024315 794.787489 309.651789 793.849854 309.651789 
C 792.912219 309.651789 792.012862 310.024315 791.349854 310.687323 
C 790.686846 311.350331 790.31432 312.249688 790.31432 313.187323 
C 790.31432 314.124957 790.686846 315.024315 791.349854 315.687323 
C 792.012862 316.350331 792.912219 316.722857 793.849854 316.722857 
z
" clip-path="url(#p14b94870db)" style="fill: #f8e3f9; fill-opacity: 0.9; stroke: #791a76; stroke-opacity: 0.9; stroke-width: 0.7"/>
    <path d="M 303.838671 292.241321 
C 306.866602 292.241321 309.770925 291.038311 311.911996 288.89724 
C 314.053066 286.75617 315.256076 283.851847 315.256076 280.823916 
C 315.256076 277.795984 314.053066 274.891662 311.911996 272.750591 
C 309.770925 270.60952 306.866602 269.40651 303.838671 269.40651 
C 300.81074 269.40651 297.906417 270.60952 295.765346 272.750591 
C 293.624275 274.891662 292.421266 277.795984 292.421266 280.823916 
C 292.421266 283.851847 293.624275 286.75617 295.765346 288.89724 
C 297.906417 291.038311 300.81074 292.241321 303.838671 292.241321 
z
" clip-path="url(#p14b94870db)" style="fill: #d9b2d9; fill-opacity: 0.9; stroke: #791a76; stroke-opacity: 0.9; stroke-width: 0.7"/>
    <path d="M 672.349834 88.151505 
C 676.661205 88.151505 680.796574 86.438579 683.845174 83.389979 
C 686.893774 80.341379 688.6067 76.20601 688.6067 71.894638 
C 688.6067 67.583267 686.893774 63.447897 683.845174 60.399297 
C 680.796574 57.350697 676.661205 55.637771 672.349834 55.637771 
C 668.038462 55.637771 663.903093 57.350697 660.854493 60.399297 
C 657.805893 63.447897 656.092967 67.583267 656.092967 71.894638 
C 656.092967 76.20601 657.805893 80.341379 660.854493 83.389979 
C 663.903093 86.438579 668.038462 88.151505 672.349834 88.151505 
z
" clip-path="url(#p14b94870db)" style="fill: #b77bb6; fill-opacity: 0.9; stroke: #791a76; stroke-opacity: 0.9; stroke-width: 0.7"/>
    <path d="M 659.359214 239.717993 
C 661.021462 239.717993 662.615853 239.057574 663.79124 237.882187 
C 664.966627 236.7068 665.627045 235.112409 665.627045 233.450161 
C 665.627045 231.787913 664.966627 230.193522 663.79124 229.018135 
C 662.615853 227.842748 661.021462 227.182329 659.359214 227.182329 
C 657.696965 227.182329 656.102575 227.842748 654.927187 229.018135 
C 653.7518 230.193522 653.091382 231.787913 653.091382 233.450161 
C 653.091382 235.112409 653.7518 236.7068 654.927187 237.882187 
C 656.102575 239.057574 657.696965 239.717993 659.359214 239.717993 
z
" clip-path="url(#p14b94870db)" style="fill: #f2d9f2; fill-opacity: 0.9; stroke: #791a76; stroke-opacity: 0.9; stroke-width: 0.7"/>
    <path d="M 373.101163 273.440847 
C 375.42507 273.440847 377.654109 272.517549 379.29736 270.874298 
C 380.940611 269.231047 381.863909 267.002008 381.863909 264.678101 
C 381.863909 262.354194 380.940611 260.125155 379.29736 258.481904 
C 377.654109 256.838653 375.42507 255.915355 373.101163 255.915355 
C 370.777256 255.915355 368.548217 256.838653 366.904966 258.481904 
C 365.261715 260.125155 364.338417 262.354194 364.338417 264.678101 
C 364.338417 267.002008 365.261715 269.231047 366.904966 270.874298 
C 368.548217 272.517549 370.777256 273.440847 373.101163 273.440847 
z
" clip-path="url(#p14b94870db)" style="fill: #e7c9e8; fill-opacity: 0.9; stroke: #791a76; stroke-opacity: 0.9; stroke-width: 0.7"/>
    <path d="M 502.245251 140.483716 
C 503.182885 140.483716 504.082243 140.11119 504.745251 139.448182 
C 505.408258 138.785174 505.780785 137.885816 505.780785 136.948182 
C 505.780785 136.010547 505.408258 135.11119 504.745251 134.448182 
C 504.082243 133.785174 503.182885 133.412648 502.245251 133.412648 
C 501.307616 133.412648 500.408258 133.785174 499.745251 134.448182 
C 499.082243 135.11119 498.709717 136.010547 498.709717 136.948182 
C 498.709717 137.885816 499.082243 138.785174 499.745251 139.448182 
C 500.408258 140.11119 501.307616 140.483716 502.245251 140.483716 
z
" clip-path="url(#p14b94870db)" style="fill: #f8e3f9; fill-opacity: 0.9; stroke: #791a76; stroke-opacity: 0.9; stroke-width: 0.7"/>
    <path d="M 704.288211 82.819029 
C 705.408899 82.819029 706.483837 82.373775 707.276282 81.581329 
C 708.068728 80.788883 708.513982 79.713945 708.513982 78.593257 
C 708.513982 77.47257 708.068728 76.397632 707.276282 75.605186 
C 706.483837 74.81274 705.408899 74.367486 704.288211 74.367486 
C 703.167523 74.367486 702.092585 74.81274 701.300139 75.605186 
C 700.507694 76.397632 700.06244 77.47257 700.06244 78.593257 
C 700.06244 79.713945 700.507694 80.788883 701.300139 81.581329 
C 702.092585 82.373775 703.167523 82.819029 704.288211 82.819029 
z
" clip-path="url(#p14b94870db)" style="fill: #f7e1f8; fill-opacity: 0.9; stroke: #791a76; stroke-opacity: 0.9; stroke-width: 0.7"/>
    <path d="M 690.906792 99.387992 
C 691.844427 99.387992 692.743784 99.015466 693.406792 98.352458 
C 694.0698 97.68945 694.442326 96.790092 694.442326 95.852458 
C 694.442326 94.914823 694.0698 94.015466 693.406792 93.352458 
C 692.743784 92.68945 691.844427 92.316924 690.906792 92.316924 
C 689.969157 92.316924 689.0698 92.68945 688.406792 93.352458 
C 687.743784 94.015466 687.371258 94.914823 687.371258 95.852458 
C 687.371258 96.790092 687.743784 97.68945 688.406792 98.352458 
C 689.0698 99.015466 689.969157 99.387992 690.906792 99.387992 
z
" clip-path="url(#p14b94870db)" style="fill: #f8e3f9; fill-opacity: 0.9; stroke: #791a76; stroke-opacity: 0.9; stroke-width: 0.7"/>
    <path d="M 474.278485 169.028687 
C 475.399173 169.028687 476.474111 168.583433 477.266557 167.790987 
C 478.059003 166.998541 478.504257 165.923603 478.504257 164.802915 
C 478.504257 163.682228 478.059003 162.60729 477.266557 161.814844 
C 476.474111 161.022398 475.399173 160.577144 474.278485 160.577144 
C 473.157798 160.577144 472.08286 161.022398 471.290414 161.814844 
C 470.497968 162.60729 470.052714 163.682228 470.052714 164.802915 
C 470.052714 165.923603 470.497968 166.998541 471.290414 167.790987 
C 472.08286 168.583433 473.157798 169.028687 474.278485 169.028687 
z
" clip-path="url(#p14b94870db)" style="fill: #f7e1f8; fill-opacity: 0.9; stroke: #791a76; stroke-opacity: 0.9; stroke-width: 0.7"/>
    <path d="M 816.627273 310.854536 
C 817.564907 310.854536 818.464265 310.48201 819.127273 309.819002 
C 819.79028 309.155994 820.162807 308.256636 820.162807 307.319002 
C 820.162807 306.381367 819.79028 305.48201 819.127273 304.819002 
C 818.464265 304.155994 817.564907 303.783468 816.627273 303.783468 
C 815.689638 303.783468 814.79028 304.155994 814.127273 304.819002 
C 813.464265 305.48201 813.091739 306.381367 813.091739 307.319002 
C 813.091739 308.256636 813.464265 309.155994 814.127273 309.819002 
C 814.79028 310.48201 815.689638 310.854536 816.627273 310.854536 
z
" clip-path="url(#p14b94870db)" style="fill: #f8e3f9; fill-opacity: 0.9; stroke: #791a76; stroke-opacity: 0.9; stroke-width: 0.7"/>
    <path d="M 494.603554 177.995021 
C 495.541189 177.995021 496.440547 177.622495 497.103554 176.959487 
C 497.766562 176.29648 498.139088 175.397122 498.139088 174.459487 
C 498.139088 173.521853 497.766562 172.622495 497.103554 171.959487 
C 496.440547 171.29648 495.541189 170.923953 494.603554 170.923953 
C 493.66592 170.923953 492.766562 171.29648 492.103554 171.959487 
C 491.440547 172.622495 491.068021 173.521853 491.068021 174.459487 
C 491.068021 175.397122 491.440547 176.29648 492.103554 176.959487 
C 492.766562 177.622495 493.66592 177.995021 494.603554 177.995021 
z
" clip-path="url(#p14b94870db)" style="fill: #f8e3f9; fill-opacity: 0.9; stroke: #791a76; stroke-opacity: 0.9; stroke-width: 0.7"/>
   </g>
   <g id="line2d_1"/>
   <g id="line2d_2"/>
   <g id="line2d_3"/>
   <g id="line2d_4"/>
   <g id="patch_2">
    <path d="M 787.377791 113.401836 
Q 758.077949 92.021002 723.687198 88.764692 
" style="fill: none; stroke: #000000; stroke-width: 1.5; stroke-linecap: round"/>
    <path d="M 729.377689 92.316918 
L 723.687198 88.764692 
L 729.943273 86.343635 
z
" style="stroke: #000000; stroke-width: 1.5; stroke-linecap: round"/>
   </g>
   <g id="text_1">
    <!-- Alexandria (92) -->
    <g transform="translate(734.829603 127.991225) scale(0.15 -0.15)">
     <defs>
      <path id="DejaVuSans-Bold-41" d="M 3419 850 
L 1538 850 
L 1241 0 
L 31 0 
L 1759 4666 
L 3194 4666 
L 4922 0 
L 3713 0 
L 3419 850 
z
M 1838 1716 
L 3116 1716 
L 2478 3572 
L 1838 1716 
z
" transform="scale(0.015625)"/>
      <path id="DejaVuSans-Bold-6c" d="M 538 4863 
L 1656 4863 
L 1656 0 
L 538 0 
L 538 4863 
z
" transform="scale(0.015625)"/>
      <path id="DejaVuSans-Bold-65" d="M 4031 1759 
L 4031 1441 
L 1416 1441 
Q 1456 1047 1700 850 
Q 1944 653 2381 653 
Q 2734 653 3104 758 
Q 3475 863 3866 1075 
L 3866 213 
Q 3469 63 3072 -14 
Q 2675 -91 2278 -91 
Q 1328 -91 801 392 
Q 275 875 275 1747 
Q 275 2603 792 3093 
Q 1309 3584 2216 3584 
Q 3041 3584 3536 3087 
Q 4031 2591 4031 1759 
z
M 2881 2131 
Q 2881 2450 2695 2645 
Q 2509 2841 2209 2841 
Q 1884 2841 1681 2658 
Q 1478 2475 1428 2131 
L 2881 2131 
z
" transform="scale(0.015625)"/>
      <path id="DejaVuSans-Bold-78" d="M 1422 1791 
L 159 3500 
L 1344 3500 
L 2059 2463 
L 2784 3500 
L 3969 3500 
L 2706 1797 
L 4031 0 
L 2847 0 
L 2059 1106 
L 1281 0 
L 97 0 
L 1422 1791 
z
" transform="scale(0.015625)"/>
      <path id="DejaVuSans-Bold-61" d="M 2106 1575 
Q 1756 1575 1579 1456 
Q 1403 1338 1403 1106 
Q 1403 894 1545 773 
Q 1688 653 1941 653 
Q 2256 653 2472 879 
Q 2688 1106 2688 1447 
L 2688 1575 
L 2106 1575 
z
M 3816 1997 
L 3816 0 
L 2688 0 
L 2688 519 
Q 2463 200 2181 54 
Q 1900 -91 1497 -91 
Q 953 -91 614 226 
Q 275 544 275 1050 
Q 275 1666 698 1953 
Q 1122 2241 2028 2241 
L 2688 2241 
L 2688 2328 
Q 2688 2594 2478 2717 
Q 2269 2841 1825 2841 
Q 1466 2841 1156 2769 
Q 847 2697 581 2553 
L 581 3406 
Q 941 3494 1303 3539 
Q 1666 3584 2028 3584 
Q 2975 3584 3395 3211 
Q 3816 2838 3816 1997 
z
" transform="scale(0.015625)"/>
      <path id="DejaVuSans-Bold-6e" d="M 4056 2131 
L 4056 0 
L 2931 0 
L 2931 347 
L 2931 1631 
Q 2931 2084 2911 2256 
Q 2891 2428 2841 2509 
Q 2775 2619 2662 2680 
Q 2550 2741 2406 2741 
Q 2056 2741 1856 2470 
Q 1656 2200 1656 1722 
L 1656 0 
L 538 0 
L 538 3500 
L 1656 3500 
L 1656 2988 
Q 1909 3294 2193 3439 
Q 2478 3584 2822 3584 
Q 3428 3584 3742 3212 
Q 4056 2841 4056 2131 
z
" transform="scale(0.015625)"/>
      <path id="DejaVuSans-Bold-64" d="M 2919 2988 
L 2919 4863 
L 4044 4863 
L 4044 0 
L 2919 0 
L 2919 506 
Q 2688 197 2409 53 
Q 2131 -91 1766 -91 
Q 1119 -91 703 423 
Q 288 938 288 1747 
Q 288 2556 703 3070 
Q 1119 3584 1766 3584 
Q 2128 3584 2408 3439 
Q 2688 3294 2919 2988 
z
M 2181 722 
Q 2541 722 2730 984 
Q 2919 1247 2919 1747 
Q 2919 2247 2730 2509 
Q 2541 2772 2181 2772 
Q 1825 2772 1636 2509 
Q 1447 2247 1447 1747 
Q 1447 1247 1636 984 
Q 1825 722 2181 722 
z
" transform="scale(0.015625)"/>
      <path id="DejaVuSans-Bold-72" d="M 3138 2547 
Q 2991 2616 2845 2648 
Q 2700 2681 2553 2681 
Q 2122 2681 1889 2404 
Q 1656 2128 1656 1613 
L 1656 0 
L 538 0 
L 538 3500 
L 1656 3500 
L 1656 2925 
Q 1872 3269 2151 3426 
Q 2431 3584 2822 3584 
Q 2878 3584 2943 3579 
Q 3009 3575 3134 3559 
L 3138 2547 
z
" transform="scale(0.015625)"/>
      <path id="DejaVuSans-Bold-69" d="M 538 3500 
L 1656 3500 
L 1656 0 
L 538 0 
L 538 3500 
z
M 538 4863 
L 1656 4863 
L 1656 3950 
L 538 3950 
L 538 4863 
z
" transform="scale(0.015625)"/>
      <path id="DejaVuSans-Bold-20" transform="scale(0.015625)"/>
      <path id="DejaVuSans-Bold-28" d="M 2413 -844 
L 1484 -844 
Q 1006 -72 778 623 
Q 550 1319 550 2003 
Q 550 2688 779 3389 
Q 1009 4091 1484 4856 
L 2413 4856 
Q 2013 4116 1813 3408 
Q 1613 2700 1613 2009 
Q 1613 1319 1811 609 
Q 2009 -100 2413 -844 
z
" transform="scale(0.015625)"/>
      <path id="DejaVuSans-Bold-39" d="M 641 103 
L 641 966 
Q 928 831 1190 764 
Q 1453 697 1709 697 
Q 2247 697 2547 995 
Q 2847 1294 2900 1881 
Q 2688 1725 2447 1647 
Q 2206 1569 1925 1569 
Q 1209 1569 770 1986 
Q 331 2403 331 3084 
Q 331 3838 820 4291 
Q 1309 4744 2131 4744 
Q 3044 4744 3544 4128 
Q 4044 3513 4044 2388 
Q 4044 1231 3459 570 
Q 2875 -91 1856 -91 
Q 1528 -91 1228 -42 
Q 928 6 641 103 
z
M 2125 2350 
Q 2441 2350 2600 2554 
Q 2759 2759 2759 3169 
Q 2759 3575 2600 3781 
Q 2441 3988 2125 3988 
Q 1809 3988 1650 3781 
Q 1491 3575 1491 3169 
Q 1491 2759 1650 2554 
Q 1809 2350 2125 2350 
z
" transform="scale(0.015625)"/>
      <path id="DejaVuSans-Bold-32" d="M 1844 884 
L 3897 884 
L 3897 0 
L 506 0 
L 506 884 
L 2209 2388 
Q 2438 2594 2547 2791 
Q 2656 2988 2656 3200 
Q 2656 3528 2436 3728 
Q 2216 3928 1850 3928 
Q 1569 3928 1234 3808 
Q 900 3688 519 3450 
L 519 4475 
Q 925 4609 1322 4679 
Q 1719 4750 2100 4750 
Q 2938 4750 3402 4381 
Q 3866 4013 3866 3353 
Q 3866 2972 3669 2642 
Q 3472 2313 2841 1759 
L 1844 884 
z
" transform="scale(0.015625)"/>
      <path id="DejaVuSans-Bold-29" d="M 513 -844 
Q 913 -100 1113 609 
Q 1313 1319 1313 2009 
Q 1313 2700 1113 3408 
Q 913 4116 513 4856 
L 1441 4856 
Q 1916 4091 2145 3389 
Q 2375 2688 2375 2003 
Q 2375 1319 2147 623 
Q 1919 -72 1441 -844 
L 513 -844 
z
" transform="scale(0.015625)"/>
     </defs>
     <use xlink:href="#DejaVuSans-Bold-41"/>
     <use xlink:href="#DejaVuSans-Bold-6c" transform="translate(77.392578 0)"/>
     <use xlink:href="#DejaVuSans-Bold-65" transform="translate(111.669922 0)"/>
     <use xlink:href="#DejaVuSans-Bold-78" transform="translate(179.492188 0)"/>
     <use xlink:href="#DejaVuSans-Bold-61" transform="translate(243.994141 0)"/>
     <use xlink:href="#DejaVuSans-Bold-6e" transform="translate(311.474609 0)"/>
     <use xlink:href="#DejaVuSans-Bold-64" transform="translate(382.666016 0)"/>
     <use xlink:href="#DejaVuSans-Bold-72" transform="translate(454.248047 0)"/>
     <use xlink:href="#DejaVuSans-Bold-69" transform="translate(503.564453 0)"/>
     <use xlink:href="#DejaVuSans-Bold-61" transform="translate(537.841797 0)"/>
     <use xlink:href="#DejaVuSans-Bold-20" transform="translate(605.322266 0)"/>
     <use xlink:href="#DejaVuSans-Bold-28" transform="translate(640.136719 0)"/>
     <use xlink:href="#DejaVuSans-Bold-39" transform="translate(685.839844 0)"/>
     <use xlink:href="#DejaVuSans-Bold-32" transform="translate(755.419922 0)"/>
     <use xlink:href="#DejaVuSans-Bold-29" transform="translate(825 0)"/>
    </g>
   </g>
   <g id="patch_3">
    <path d="M 711.798339 47.434742 
Q 706.151152 55.980595 704.023255 64.262555 
" style="fill: none; stroke: #000000; stroke-width: 1.5; stroke-linecap: round"/>
    <path d="M 708.421976 59.197849 
L 704.023255 64.262555 
L 702.610723 57.704754 
z
" style="stroke: #000000; stroke-width: 1.5; stroke-linecap: round"/>
   </g>
   <g id="text_2">
    <!-- Arlington (68) -->
    <g transform="translate(661.558469 40.543876) scale(0.15 -0.15)">
     <defs>
      <path id="DejaVuSans-Bold-67" d="M 2919 594 
Q 2688 288 2409 144 
Q 2131 0 1766 0 
Q 1125 0 706 504 
Q 288 1009 288 1791 
Q 288 2575 706 3076 
Q 1125 3578 1766 3578 
Q 2131 3578 2409 3434 
Q 2688 3291 2919 2981 
L 2919 3500 
L 4044 3500 
L 4044 353 
Q 4044 -491 3511 -936 
Q 2978 -1381 1966 -1381 
Q 1638 -1381 1331 -1331 
Q 1025 -1281 716 -1178 
L 716 -306 
Q 1009 -475 1290 -558 
Q 1572 -641 1856 -641 
Q 2406 -641 2662 -400 
Q 2919 -159 2919 353 
L 2919 594 
z
M 2181 2772 
Q 1834 2772 1640 2515 
Q 1447 2259 1447 1791 
Q 1447 1309 1634 1061 
Q 1822 813 2181 813 
Q 2531 813 2725 1069 
Q 2919 1325 2919 1791 
Q 2919 2259 2725 2515 
Q 2531 2772 2181 2772 
z
" transform="scale(0.015625)"/>
      <path id="DejaVuSans-Bold-74" d="M 1759 4494 
L 1759 3500 
L 2913 3500 
L 2913 2700 
L 1759 2700 
L 1759 1216 
Q 1759 972 1856 886 
Q 1953 800 2241 800 
L 2816 800 
L 2816 0 
L 1856 0 
Q 1194 0 917 276 
Q 641 553 641 1216 
L 641 2700 
L 84 2700 
L 84 3500 
L 641 3500 
L 641 4494 
L 1759 4494 
z
" transform="scale(0.015625)"/>
      <path id="DejaVuSans-Bold-6f" d="M 2203 2784 
Q 1831 2784 1636 2517 
Q 1441 2250 1441 1747 
Q 1441 1244 1636 976 
Q 1831 709 2203 709 
Q 2569 709 2762 976 
Q 2956 1244 2956 1747 
Q 2956 2250 2762 2517 
Q 2569 2784 2203 2784 
z
M 2203 3584 
Q 3106 3584 3614 3096 
Q 4122 2609 4122 1747 
Q 4122 884 3614 396 
Q 3106 -91 2203 -91 
Q 1297 -91 786 396 
Q 275 884 275 1747 
Q 275 2609 786 3096 
Q 1297 3584 2203 3584 
z
" transform="scale(0.015625)"/>
      <path id="DejaVuSans-Bold-36" d="M 2316 2303 
Q 2000 2303 1842 2098 
Q 1684 1894 1684 1484 
Q 1684 1075 1842 870 
Q 2000 666 2316 666 
Q 2634 666 2792 870 
Q 2950 1075 2950 1484 
Q 2950 1894 2792 2098 
Q 2634 2303 2316 2303 
z
M 3803 4544 
L 3803 3681 
Q 3506 3822 3243 3889 
Q 2981 3956 2731 3956 
Q 2194 3956 1894 3657 
Q 1594 3359 1544 2772 
Q 1750 2925 1990 3001 
Q 2231 3078 2516 3078 
Q 3231 3078 3670 2659 
Q 4109 2241 4109 1563 
Q 4109 813 3618 361 
Q 3128 -91 2303 -91 
Q 1394 -91 895 523 
Q 397 1138 397 2266 
Q 397 3422 980 4083 
Q 1563 4744 2578 4744 
Q 2900 4744 3203 4694 
Q 3506 4644 3803 4544 
z
" transform="scale(0.015625)"/>
      <path id="DejaVuSans-Bold-38" d="M 2228 2088 
Q 1891 2088 1709 1903 
Q 1528 1719 1528 1375 
Q 1528 1031 1709 848 
Q 1891 666 2228 666 
Q 2563 666 2741 848 
Q 2919 1031 2919 1375 
Q 2919 1722 2741 1905 
Q 2563 2088 2228 2088 
z
M 1350 2484 
Q 925 2613 709 2878 
Q 494 3144 494 3541 
Q 494 4131 934 4440 
Q 1375 4750 2228 4750 
Q 3075 4750 3515 4442 
Q 3956 4134 3956 3541 
Q 3956 3144 3739 2878 
Q 3522 2613 3097 2484 
Q 3572 2353 3814 2058 
Q 4056 1763 4056 1313 
Q 4056 619 3595 264 
Q 3134 -91 2228 -91 
Q 1319 -91 855 264 
Q 391 619 391 1313 
Q 391 1763 633 2058 
Q 875 2353 1350 2484 
z
M 1631 3419 
Q 1631 3141 1786 2991 
Q 1941 2841 2228 2841 
Q 2509 2841 2662 2991 
Q 2816 3141 2816 3419 
Q 2816 3697 2662 3845 
Q 2509 3994 2228 3994 
Q 1941 3994 1786 3844 
Q 1631 3694 1631 3419 
z
" transform="scale(0.015625)"/>
     </defs>
     <use xlink:href="#DejaVuSans-Bold-41"/>
     <use xlink:href="#DejaVuSans-Bold-72" transform="translate(77.392578 0)"/>
     <use xlink:href="#DejaVuSans-Bold-6c" transform="translate(126.708984 0)"/>
     <use xlink:href="#DejaVuSans-Bold-69" transform="translate(160.986328 0)"/>
     <use xlink:href="#DejaVuSans-Bold-6e" transform="translate(195.263672 0)"/>
     <use xlink:href="#DejaVuSans-Bold-67" transform="translate(266.455078 0)"/>
     <use xlink:href="#DejaVuSans-Bold-74" transform="translate(338.037109 0)"/>
     <use xlink:href="#DejaVuSans-Bold-6f" transform="translate(385.839844 0)"/>
     <use xlink:href="#DejaVuSans-Bold-6e" transform="translate(454.541016 0)"/>
     <use xlink:href="#DejaVuSans-Bold-20" transform="translate(525.732422 0)"/>
     <use xlink:href="#DejaVuSans-Bold-28" transform="translate(560.546875 0)"/>
     <use xlink:href="#DejaVuSans-Bold-36" transform="translate(606.25 0)"/>
     <use xlink:href="#DejaVuSans-Bold-38" transform="translate(675.830078 0)"/>
     <use xlink:href="#DejaVuSans-Bold-29" transform="translate(745.410156 0)"/>
    </g>
   </g>
   <g id="patch_4">
    <path d="M 656.58183 97.133507 
Q 662.802091 91.168528 666.297452 85.03912 
" style="fill: none; stroke: #000000; stroke-width: 1.5; stroke-linecap: round"/>
    <path d="M 660.719169 88.765077 
L 666.297452 85.03912 
L 665.931248 91.737321 
z
" style="stroke: #000000; stroke-width: 1.5; stroke-linecap: round"/>
   </g>
   <g id="text_3">
    <!-- Reston (48) -->
    <g transform="translate(592.349834 111.894638) scale(0.15 -0.15)">
     <defs>
      <path id="DejaVuSans-Bold-52" d="M 2297 2597 
Q 2675 2597 2839 2737 
Q 3003 2878 3003 3200 
Q 3003 3519 2839 3656 
Q 2675 3794 2297 3794 
L 1791 3794 
L 1791 2597 
L 2297 2597 
z
M 1791 1766 
L 1791 0 
L 588 0 
L 588 4666 
L 2425 4666 
Q 3347 4666 3776 4356 
Q 4206 4047 4206 3378 
Q 4206 2916 3982 2619 
Q 3759 2322 3309 2181 
Q 3556 2125 3751 1926 
Q 3947 1728 4147 1325 
L 4800 0 
L 3519 0 
L 2950 1159 
Q 2778 1509 2601 1637 
Q 2425 1766 2131 1766 
L 1791 1766 
z
" transform="scale(0.015625)"/>
      <path id="DejaVuSans-Bold-73" d="M 3272 3391 
L 3272 2541 
Q 2913 2691 2578 2766 
Q 2244 2841 1947 2841 
Q 1628 2841 1473 2761 
Q 1319 2681 1319 2516 
Q 1319 2381 1436 2309 
Q 1553 2238 1856 2203 
L 2053 2175 
Q 2913 2066 3209 1816 
Q 3506 1566 3506 1031 
Q 3506 472 3093 190 
Q 2681 -91 1863 -91 
Q 1516 -91 1145 -36 
Q 775 19 384 128 
L 384 978 
Q 719 816 1070 734 
Q 1422 653 1784 653 
Q 2113 653 2278 743 
Q 2444 834 2444 1013 
Q 2444 1163 2330 1236 
Q 2216 1309 1875 1350 
L 1678 1375 
Q 931 1469 631 1722 
Q 331 1975 331 2491 
Q 331 3047 712 3315 
Q 1094 3584 1881 3584 
Q 2191 3584 2531 3537 
Q 2872 3491 3272 3391 
z
" transform="scale(0.015625)"/>
      <path id="DejaVuSans-Bold-34" d="M 2356 3675 
L 1038 1722 
L 2356 1722 
L 2356 3675 
z
M 2156 4666 
L 3494 4666 
L 3494 1722 
L 4159 1722 
L 4159 850 
L 3494 850 
L 3494 0 
L 2356 0 
L 2356 850 
L 288 850 
L 288 1881 
L 2156 4666 
z
" transform="scale(0.015625)"/>
     </defs>
     <use xlink:href="#DejaVuSans-Bold-52"/>
     <use xlink:href="#DejaVuSans-Bold-65" transform="translate(77.001953 0)"/>
     <use xlink:href="#DejaVuSans-Bold-73" transform="translate(144.824219 0)"/>
     <use xlink:href="#DejaVuSans-Bold-74" transform="translate(204.345703 0)"/>
     <use xlink:href="#DejaVuSans-Bold-6f" transform="translate(252.148438 0)"/>
     <use xlink:href="#DejaVuSans-Bold-6e" transform="translate(320.849609 0)"/>
     <use xlink:href="#DejaVuSans-Bold-20" transform="translate(392.041016 0)"/>
     <use xlink:href="#DejaVuSans-Bold-28" transform="translate(426.855469 0)"/>
     <use xlink:href="#DejaVuSans-Bold-34" transform="translate(472.558594 0)"/>
     <use xlink:href="#DejaVuSans-Bold-38" transform="translate(542.138672 0)"/>
     <use xlink:href="#DejaVuSans-Bold-29" transform="translate(611.71875 0)"/>
    </g>
   </g>
   <g id="patch_5">
    <path d="M 798.048602 276.309393 
Q 789.505845 279.22141 782.616425 282.515306 
" style="fill: none; stroke: #000000; stroke-width: 1.5; stroke-linecap: round"/>
    <path d="M 789.323583 282.633803 
L 782.616425 282.515306 
L 786.735518 277.220678 
z
" style="stroke: #000000; stroke-width: 1.5; stroke-linecap: round"/>
   </g>
   <g id="text_4">
    <!-- Newport News (23) -->
    <g transform="translate(801.951137 277.965412) scale(0.15 -0.15)">
     <defs>
      <path id="DejaVuSans-Bold-4e" d="M 588 4666 
L 1931 4666 
L 3628 1466 
L 3628 4666 
L 4769 4666 
L 4769 0 
L 3425 0 
L 1728 3200 
L 1728 0 
L 588 0 
L 588 4666 
z
" transform="scale(0.015625)"/>
      <path id="DejaVuSans-Bold-77" d="M 225 3500 
L 1313 3500 
L 1900 1088 
L 2491 3500 
L 3425 3500 
L 4013 1113 
L 4603 3500 
L 5691 3500 
L 4769 0 
L 3547 0 
L 2956 2406 
L 2369 0 
L 1147 0 
L 225 3500 
z
" transform="scale(0.015625)"/>
      <path id="DejaVuSans-Bold-70" d="M 1656 506 
L 1656 -1331 
L 538 -1331 
L 538 3500 
L 1656 3500 
L 1656 2988 
Q 1888 3294 2169 3439 
Q 2450 3584 2816 3584 
Q 3463 3584 3878 3070 
Q 4294 2556 4294 1747 
Q 4294 938 3878 423 
Q 3463 -91 2816 -91 
Q 2450 -91 2169 54 
Q 1888 200 1656 506 
z
M 2400 2772 
Q 2041 2772 1848 2508 
Q 1656 2244 1656 1747 
Q 1656 1250 1848 986 
Q 2041 722 2400 722 
Q 2759 722 2948 984 
Q 3138 1247 3138 1747 
Q 3138 2247 2948 2509 
Q 2759 2772 2400 2772 
z
" transform="scale(0.015625)"/>
      <path id="DejaVuSans-Bold-33" d="M 2981 2516 
Q 3453 2394 3698 2092 
Q 3944 1791 3944 1325 
Q 3944 631 3412 270 
Q 2881 -91 1863 -91 
Q 1503 -91 1142 -33 
Q 781 25 428 141 
L 428 1069 
Q 766 900 1098 814 
Q 1431 728 1753 728 
Q 2231 728 2486 893 
Q 2741 1059 2741 1369 
Q 2741 1688 2480 1852 
Q 2219 2016 1709 2016 
L 1228 2016 
L 1228 2791 
L 1734 2791 
Q 2188 2791 2409 2933 
Q 2631 3075 2631 3366 
Q 2631 3634 2415 3781 
Q 2200 3928 1806 3928 
Q 1516 3928 1219 3862 
Q 922 3797 628 3669 
L 628 4550 
Q 984 4650 1334 4700 
Q 1684 4750 2022 4750 
Q 2931 4750 3382 4451 
Q 3834 4153 3834 3553 
Q 3834 3144 3618 2883 
Q 3403 2622 2981 2516 
z
" transform="scale(0.015625)"/>
     </defs>
     <use xlink:href="#DejaVuSans-Bold-4e"/>
     <use xlink:href="#DejaVuSans-Bold-65" transform="translate(83.691406 0)"/>
     <use xlink:href="#DejaVuSans-Bold-77" transform="translate(151.513672 0)"/>
     <use xlink:href="#DejaVuSans-Bold-70" transform="translate(243.896484 0)"/>
     <use xlink:href="#DejaVuSans-Bold-6f" transform="translate(315.478516 0)"/>
     <use xlink:href="#DejaVuSans-Bold-72" transform="translate(384.179688 0)"/>
     <use xlink:href="#DejaVuSans-Bold-74" transform="translate(433.496094 0)"/>
     <use xlink:href="#DejaVuSans-Bold-20" transform="translate(481.298828 0)"/>
     <use xlink:href="#DejaVuSans-Bold-4e" transform="translate(516.113281 0)"/>
     <use xlink:href="#DejaVuSans-Bold-65" transform="translate(599.804688 0)"/>
     <use xlink:href="#DejaVuSans-Bold-77" transform="translate(667.626953 0)"/>
     <use xlink:href="#DejaVuSans-Bold-73" transform="translate(760.009766 0)"/>
     <use xlink:href="#DejaVuSans-Bold-20" transform="translate(819.53125 0)"/>
     <use xlink:href="#DejaVuSans-Bold-28" transform="translate(854.345703 0)"/>
     <use xlink:href="#DejaVuSans-Bold-32" transform="translate(900.048828 0)"/>
     <use xlink:href="#DejaVuSans-Bold-33" transform="translate(969.628906 0)"/>
     <use xlink:href="#DejaVuSans-Bold-29" transform="translate(1039.208984 0)"/>
    </g>
   </g>
   <g id="patch_6">
    <path d="M 335.07008 246.992933 
Q 319.792316 256.657242 310.177612 270.662147 
" style="fill: none; stroke: #000000; stroke-width: 1.5; stroke-linecap: round"/>
    <path d="M 316.046758 267.41359 
L 310.177612 270.662147 
L 311.100254 264.017696 
z
" style="stroke: #000000; stroke-width: 1.5; stroke-linecap: round"/>
   </g>
   <g id="text_5">
    <!-- Radford (23) -->
    <g transform="translate(303.838671 240.823916) scale(0.15 -0.15)">
     <defs>
      <path id="DejaVuSans-Bold-66" d="M 2841 4863 
L 2841 4128 
L 2222 4128 
Q 1984 4128 1890 4042 
Q 1797 3956 1797 3744 
L 1797 3500 
L 2753 3500 
L 2753 2700 
L 1797 2700 
L 1797 0 
L 678 0 
L 678 2700 
L 122 2700 
L 122 3500 
L 678 3500 
L 678 3744 
Q 678 4316 997 4589 
Q 1316 4863 1984 4863 
L 2841 4863 
z
" transform="scale(0.015625)"/>
     </defs>
     <use xlink:href="#DejaVuSans-Bold-52"/>
     <use xlink:href="#DejaVuSans-Bold-61" transform="translate(77.001953 0)"/>
     <use xlink:href="#DejaVuSans-Bold-64" transform="translate(144.482422 0)"/>
     <use xlink:href="#DejaVuSans-Bold-66" transform="translate(216.064453 0)"/>
     <use xlink:href="#DejaVuSans-Bold-6f" transform="translate(259.570312 0)"/>
     <use xlink:href="#DejaVuSans-Bold-72" transform="translate(328.271484 0)"/>
     <use xlink:href="#DejaVuSans-Bold-64" transform="translate(377.587891 0)"/>
     <use xlink:href="#DejaVuSans-Bold-20" transform="translate(449.169922 0)"/>
     <use xlink:href="#DejaVuSans-Bold-28" transform="translate(483.984375 0)"/>
     <use xlink:href="#DejaVuSans-Bold-32" transform="translate(529.6875 0)"/>
     <use xlink:href="#DejaVuSans-Bold-33" transform="translate(599.267578 0)"/>
     <use xlink:href="#DejaVuSans-Bold-29" transform="translate(668.847656 0)"/>
    </g>
   </g>
   <g id="legend_1">
    <g id="patch_7">
     <path d="M 9.982 164.564913 
L 373.852 164.564913 
Q 376.452 164.564913 376.452 161.964913 
L 376.452 77.780694 
Q 376.452 75.180694 373.852 75.180694 
L 9.982 75.180694 
Q 7.382 75.180694 7.382 77.780694 
L 7.382 161.964913 
Q 7.382 164.564913 9.982 164.564913 
L 9.982 164.564913 
z
" style="fill: none; stroke: #791a76; stroke-linejoin: miter"/>
    </g>
    <g id="text_6">
     <!-- Number of Artworks -->
     <g transform="translate(104.534344 104.998038) scale(0.17 -0.17)">
      <defs>
       <path id="OpenSans-Bold-4e" d="M 4628 0 
L 3397 0 
L 1409 3456 
L 1381 3456 
Q 1394 3241 1403 3022 
Q 1413 2803 1422 2586 
Q 1431 2369 1441 2150 
L 1441 0 
L 575 0 
L 575 4569 
L 1797 4569 
L 3781 1147 
L 3803 1147 
Q 3797 1359 3787 1568 
Q 3778 1778 3770 1987 
Q 3763 2197 3756 2406 
L 3756 4569 
L 4628 4569 
L 4628 0 
z
" transform="scale(0.015625)"/>
       <path id="OpenSans-Bold-75" d="M 3706 3494 
L 3706 0 
L 2975 0 
L 2847 447 
L 2797 447 
Q 2684 269 2515 156 
Q 2347 44 2144 -9 
Q 1941 -63 1722 -63 
Q 1347 -63 1069 70 
Q 791 203 636 484 
Q 481 766 481 1216 
L 481 3494 
L 1434 3494 
L 1434 1453 
Q 1434 1078 1568 887 
Q 1703 697 1997 697 
Q 2288 697 2453 830 
Q 2619 963 2686 1220 
Q 2753 1478 2753 1850 
L 2753 3494 
L 3706 3494 
z
" transform="scale(0.015625)"/>
       <path id="OpenSans-Bold-6d" d="M 4603 3559 
Q 5197 3559 5501 3254 
Q 5806 2950 5806 2278 
L 5806 0 
L 4850 0 
L 4850 2041 
Q 4850 2416 4722 2606 
Q 4594 2797 4325 2797 
Q 3947 2797 3787 2526 
Q 3628 2256 3628 1753 
L 3628 0 
L 2675 0 
L 2675 2041 
Q 2675 2291 2619 2459 
Q 2563 2628 2447 2712 
Q 2331 2797 2150 2797 
Q 1884 2797 1732 2664 
Q 1581 2531 1517 2273 
Q 1453 2016 1453 1644 
L 1453 0 
L 500 0 
L 500 3494 
L 1228 3494 
L 1356 3047 
L 1409 3047 
Q 1516 3228 1677 3340 
Q 1838 3453 2031 3506 
Q 2225 3559 2425 3559 
Q 2809 3559 3076 3434 
Q 3344 3309 3488 3047 
L 3572 3047 
Q 3728 3316 4014 3437 
Q 4300 3559 4603 3559 
z
" transform="scale(0.015625)"/>
       <path id="OpenSans-Bold-62" d="M 1453 4863 
L 1453 3731 
Q 1453 3534 1442 3340 
Q 1431 3147 1416 3041 
L 1453 3041 
Q 1591 3256 1828 3407 
Q 2066 3559 2444 3559 
Q 3031 3559 3397 3100 
Q 3763 2641 3763 1753 
Q 3763 1156 3594 751 
Q 3425 347 3122 142 
Q 2819 -63 2419 -63 
Q 2034 -63 1812 75 
Q 1591 213 1453 384 
L 1388 384 
L 1228 0 
L 500 0 
L 500 4863 
L 1453 4863 
z
M 2138 2797 
Q 1888 2797 1741 2694 
Q 1594 2591 1526 2384 
Q 1459 2178 1453 1863 
L 1453 1759 
Q 1453 1250 1603 979 
Q 1753 709 2150 709 
Q 2444 709 2617 981 
Q 2791 1253 2791 1766 
Q 2791 2278 2616 2537 
Q 2441 2797 2138 2797 
z
" transform="scale(0.015625)"/>
       <path id="OpenSans-Bold-65" d="M 1941 3559 
Q 2425 3559 2775 3373 
Q 3125 3188 3315 2834 
Q 3506 2481 3506 1972 
L 3506 1509 
L 1253 1509 
Q 1269 1106 1495 876 
Q 1722 647 2125 647 
Q 2459 647 2737 715 
Q 3016 784 3309 922 
L 3309 184 
Q 3050 56 2767 -3 
Q 2484 -63 2081 -63 
Q 1556 -63 1151 131 
Q 747 325 517 722 
Q 288 1119 288 1722 
Q 288 2334 495 2742 
Q 703 3150 1075 3354 
Q 1447 3559 1941 3559 
z
M 1947 2881 
Q 1669 2881 1486 2703 
Q 1303 2525 1275 2144 
L 2613 2144 
Q 2609 2356 2536 2522 
Q 2463 2688 2317 2784 
Q 2172 2881 1947 2881 
z
" transform="scale(0.015625)"/>
       <path id="OpenSans-Bold-72" d="M 2450 3559 
Q 2522 3559 2617 3551 
Q 2713 3544 2772 3531 
L 2700 2638 
Q 2653 2653 2567 2661 
Q 2481 2669 2419 2669 
Q 2234 2669 2061 2622 
Q 1888 2575 1750 2470 
Q 1613 2366 1533 2195 
Q 1453 2025 1453 1778 
L 1453 0 
L 500 0 
L 500 3494 
L 1222 3494 
L 1363 2906 
L 1409 2906 
Q 1513 3084 1667 3232 
Q 1822 3381 2020 3470 
Q 2219 3559 2450 3559 
z
" transform="scale(0.015625)"/>
       <path id="OpenSans-Bold-20" transform="scale(0.015625)"/>
       <path id="OpenSans-Bold-6f" d="M 3675 1753 
Q 3675 1316 3558 978 
Q 3441 641 3217 408 
Q 2994 175 2680 56 
Q 2366 -63 1972 -63 
Q 1603 -63 1295 56 
Q 988 175 761 408 
Q 534 641 411 978 
Q 288 1316 288 1753 
Q 288 2334 494 2737 
Q 700 3141 1081 3350 
Q 1463 3559 1991 3559 
Q 2481 3559 2861 3350 
Q 3241 3141 3458 2737 
Q 3675 2334 3675 1753 
z
M 1259 1753 
Q 1259 1409 1334 1175 
Q 1409 941 1568 822 
Q 1728 703 1984 703 
Q 2238 703 2395 822 
Q 2553 941 2626 1175 
Q 2700 1409 2700 1753 
Q 2700 2100 2626 2329 
Q 2553 2559 2393 2675 
Q 2234 2791 1978 2791 
Q 1600 2791 1429 2531 
Q 1259 2272 1259 1753 
z
" transform="scale(0.015625)"/>
       <path id="OpenSans-Bold-66" d="M 2431 2778 
L 1606 2778 
L 1606 0 
L 653 0 
L 653 2778 
L 128 2778 
L 128 3238 
L 653 3494 
L 653 3750 
Q 653 4197 804 4445 
Q 956 4694 1232 4795 
Q 1509 4897 1888 4897 
Q 2166 4897 2394 4851 
Q 2622 4806 2766 4750 
L 2522 4050 
Q 2413 4084 2284 4112 
Q 2156 4141 1991 4141 
Q 1791 4141 1698 4020 
Q 1606 3900 1606 3713 
L 1606 3494 
L 2431 3494 
L 2431 2778 
z
" transform="scale(0.015625)"/>
       <path id="OpenSans-Bold-41" d="M 3372 0 
L 3041 1088 
L 1375 1088 
L 1044 0 
L 0 0 
L 1613 4588 
L 2797 4588 
L 4416 0 
L 3372 0 
z
M 2809 1900 
L 2478 2963 
Q 2447 3069 2395 3236 
Q 2344 3403 2292 3576 
Q 2241 3750 2209 3878 
Q 2178 3750 2123 3561 
Q 2069 3372 2019 3203 
Q 1969 3034 1947 2963 
L 1619 1900 
L 2809 1900 
z
" transform="scale(0.015625)"/>
       <path id="OpenSans-Bold-74" d="M 1972 697 
Q 2128 697 2276 728 
Q 2425 759 2572 806 
L 2572 97 
Q 2419 28 2192 -17 
Q 1966 -63 1697 -63 
Q 1384 -63 1136 39 
Q 888 141 745 392 
Q 603 644 603 1094 
L 603 2778 
L 147 2778 
L 147 3181 
L 672 3500 
L 947 4238 
L 1556 4238 
L 1556 3494 
L 2534 3494 
L 2534 2778 
L 1556 2778 
L 1556 1094 
Q 1556 894 1670 795 
Q 1784 697 1972 697 
z
" transform="scale(0.015625)"/>
       <path id="OpenSans-Bold-77" d="M 3372 0 
L 3103 1222 
Q 3081 1331 3031 1545 
Q 2981 1759 2923 2004 
Q 2866 2250 2817 2459 
Q 2769 2669 2747 2766 
L 2719 2766 
Q 2697 2669 2650 2459 
Q 2603 2250 2545 2003 
Q 2488 1756 2438 1539 
Q 2388 1322 2363 1209 
L 2081 0 
L 1056 0 
L 63 3494 
L 1013 3494 
L 1416 1947 
Q 1456 1784 1493 1561 
Q 1531 1338 1561 1130 
Q 1591 922 1606 800 
L 1631 800 
Q 1638 891 1658 1041 
Q 1678 1191 1704 1352 
Q 1731 1513 1754 1642 
Q 1778 1772 1791 1819 
L 2222 3494 
L 3272 3494 
L 3681 1819 
Q 3703 1728 3739 1531 
Q 3775 1334 3803 1126 
Q 3831 919 3834 800 
L 3859 800 
Q 3872 906 3903 1115 
Q 3934 1325 3976 1554 
Q 4019 1784 4063 1947 
L 4481 3494 
L 5416 3494 
L 4409 0 
L 3372 0 
z
" transform="scale(0.015625)"/>
       <path id="OpenSans-Bold-6b" d="M 1453 4863 
L 1453 2688 
Q 1453 2491 1437 2294 
Q 1422 2097 1403 1900 
L 1416 1900 
Q 1513 2038 1614 2172 
Q 1716 2306 1831 2431 
L 2809 3494 
L 3884 3494 
L 2497 1978 
L 3969 0 
L 2869 0 
L 1863 1416 
L 1453 1088 
L 1453 0 
L 500 0 
L 500 4863 
L 1453 4863 
z
" transform="scale(0.015625)"/>
       <path id="OpenSans-Bold-73" d="M 2938 1038 
Q 2938 681 2770 436 
Q 2603 191 2272 64 
Q 1941 -63 1447 -63 
Q 1081 -63 820 -16 
Q 559 31 294 141 
L 294 928 
Q 578 800 904 717 
Q 1231 634 1478 634 
Q 1756 634 1876 717 
Q 1997 800 1997 934 
Q 1997 1022 1948 1092 
Q 1900 1163 1740 1252 
Q 1581 1341 1241 1484 
Q 913 1622 702 1762 
Q 491 1903 389 2095 
Q 288 2288 288 2584 
Q 288 3069 664 3314 
Q 1041 3559 1672 3559 
Q 1997 3559 2292 3493 
Q 2588 3428 2900 3284 
L 2613 2597 
Q 2353 2709 2123 2781 
Q 1894 2853 1656 2853 
Q 1447 2853 1340 2797 
Q 1234 2741 1234 2625 
Q 1234 2541 1289 2475 
Q 1344 2409 1501 2329 
Q 1659 2250 1966 2125 
Q 2263 2003 2481 1870 
Q 2700 1738 2819 1542 
Q 2938 1347 2938 1038 
z
" transform="scale(0.015625)"/>
      </defs>
      <use xlink:href="#OpenSans-Bold-4e"/>
      <use xlink:href="#OpenSans-Bold-75" transform="translate(81.298828 0)"/>
      <use xlink:href="#OpenSans-Bold-6d" transform="translate(147.021484 0)"/>
      <use xlink:href="#OpenSans-Bold-62" transform="translate(245.214844 0)"/>
      <use xlink:href="#OpenSans-Bold-65" transform="translate(308.496094 0)"/>
      <use xlink:href="#OpenSans-Bold-72" transform="translate(367.578125 0)"/>
      <use xlink:href="#OpenSans-Bold-20" transform="translate(412.988281 0)"/>
      <use xlink:href="#OpenSans-Bold-6f" transform="translate(438.964844 0)"/>
      <use xlink:href="#OpenSans-Bold-66" transform="translate(500.878906 0)"/>
      <use xlink:href="#OpenSans-Bold-20" transform="translate(539.599609 0)"/>
      <use xlink:href="#OpenSans-Bold-41" transform="translate(565.576172 0)"/>
      <use xlink:href="#OpenSans-Bold-72" transform="translate(634.570312 0)"/>
      <use xlink:href="#OpenSans-Bold-74" transform="translate(679.980469 0)"/>
      <use xlink:href="#OpenSans-Bold-77" transform="translate(723.388672 0)"/>
      <use xlink:href="#OpenSans-Bold-6f" transform="translate(808.984375 0)"/>
      <use xlink:href="#OpenSans-Bold-72" transform="translate(870.898438 0)"/>
      <use xlink:href="#OpenSans-Bold-6b" transform="translate(916.308594 0)"/>
      <use xlink:href="#OpenSans-Bold-73" transform="translate(978.320312 0)"/>
     </g>
    </g>
    <g id="line2d_5">
     <defs>
      <path id="mb305e3b4a1" d="M 0 10.69045 
C 2.83514 10.69045 5.554542 9.564036 7.559289 7.559289 
C 9.564036 5.554542 10.69045 2.83514 10.69045 0 
C 10.69045 -2.83514 9.564036 -5.554542 7.559289 -7.559289 
C 5.554542 -9.564036 2.83514 -10.69045 0 -10.69045 
C -2.83514 -10.69045 -5.554542 -9.564036 -7.559289 -7.559289 
C -9.564036 -5.554542 -10.69045 -2.83514 -10.69045 0 
C -10.69045 2.83514 -9.564036 5.554542 -7.559289 7.559289 
C -5.554542 9.564036 -2.83514 10.69045 0 10.69045 
z
" style="stroke: #791a76; stroke-opacity: 0.9; stroke-width: 0.7"/>
     </defs>
     <g>
      <use xlink:href="#mb305e3b4a1" x="37.282" y="140.411319" style="fill: #debadf; fill-opacity: 0.9; stroke: #791a76; stroke-opacity: 0.9; stroke-width: 0.7"/>
     </g>
    </g>
    <g id="text_7">
     <!-- 20 -->
     <g transform="translate(67.182 144.961319) scale(0.13 -0.13)">
      <defs>
       <path id="DejaVuSans-32" d="M 1228 531 
L 3431 531 
L 3431 0 
L 469 0 
L 469 531 
Q 828 903 1448 1529 
Q 2069 2156 2228 2338 
Q 2531 2678 2651 2914 
Q 2772 3150 2772 3378 
Q 2772 3750 2511 3984 
Q 2250 4219 1831 4219 
Q 1534 4219 1204 4116 
Q 875 4013 500 3803 
L 500 4441 
Q 881 4594 1212 4672 
Q 1544 4750 1819 4750 
Q 2544 4750 2975 4387 
Q 3406 4025 3406 3419 
Q 3406 3131 3298 2873 
Q 3191 2616 2906 2266 
Q 2828 2175 2409 1742 
Q 1991 1309 1228 531 
z
" transform="scale(0.015625)"/>
       <path id="DejaVuSans-30" d="M 2034 4250 
Q 1547 4250 1301 3770 
Q 1056 3291 1056 2328 
Q 1056 1369 1301 889 
Q 1547 409 2034 409 
Q 2525 409 2770 889 
Q 3016 1369 3016 2328 
Q 3016 3291 2770 3770 
Q 2525 4250 2034 4250 
z
M 2034 4750 
Q 2819 4750 3233 4129 
Q 3647 3509 3647 2328 
Q 3647 1150 3233 529 
Q 2819 -91 2034 -91 
Q 1250 -91 836 529 
Q 422 1150 422 2328 
Q 422 3509 836 4129 
Q 1250 4750 2034 4750 
z
" transform="scale(0.015625)"/>
      </defs>
      <use xlink:href="#DejaVuSans-32"/>
      <use xlink:href="#DejaVuSans-30" transform="translate(63.623047 0)"/>
     </g>
    </g>
    <g id="line2d_6">
     <defs>
      <path id="m82fddc8297" d="M 0 14.880476 
C 3.946348 14.880476 7.731596 13.312575 10.522086 10.522086 
C 13.312575 7.731596 14.880476 3.946348 14.880476 0 
C 14.880476 -3.946348 13.312575 -7.731596 10.522086 -10.522086 
C 7.731596 -13.312575 3.946348 -14.880476 0 -14.880476 
C -3.946348 -14.880476 -7.731596 -13.312575 -10.522086 -10.522086 
C -13.312575 -7.731596 -14.880476 -3.946348 -14.880476 0 
C -14.880476 3.946348 -13.312575 7.731596 -10.522086 10.522086 
C -7.731596 13.312575 -3.946348 14.880476 0 14.880476 
z
" style="stroke: #791a76; stroke-opacity: 0.9; stroke-width: 0.7"/>
     </defs>
     <g>
      <use xlink:href="#m82fddc8297" x="129.2245" y="140.411319" style="fill: #c28ec1; fill-opacity: 0.9; stroke: #791a76; stroke-opacity: 0.9; stroke-width: 0.7"/>
     </g>
    </g>
    <g id="text_8">
     <!-- 40 -->
     <g transform="translate(159.1245 144.961319) scale(0.13 -0.13)">
      <defs>
       <path id="DejaVuSans-34" d="M 2419 4116 
L 825 1625 
L 2419 1625 
L 2419 4116 
z
M 2253 4666 
L 3047 4666 
L 3047 1625 
L 3713 1625 
L 3713 1100 
L 3047 1100 
L 3047 0 
L 2419 0 
L 2419 1100 
L 313 1100 
L 313 1709 
L 2253 4666 
z
" transform="scale(0.015625)"/>
      </defs>
      <use xlink:href="#DejaVuSans-34"/>
      <use xlink:href="#DejaVuSans-30" transform="translate(63.623047 0)"/>
     </g>
    </g>
    <g id="line2d_7">
     <defs>
      <path id="m0a4365f2ee" d="M 0 18.126539 
C 4.807214 18.126539 9.418185 16.216613 12.817399 12.817399 
C 16.216613 9.418185 18.126539 4.807214 18.126539 0 
C 18.126539 -4.807214 16.216613 -9.418185 12.817399 -12.817399 
C 9.418185 -16.216613 4.807214 -18.126539 0 -18.126539 
C -4.807214 -18.126539 -9.418185 -16.216613 -12.817399 -12.817399 
C -16.216613 -9.418185 -18.126539 -4.807214 -18.126539 0 
C -18.126539 4.807214 -16.216613 9.418185 -12.817399 12.817399 
C -9.418185 16.216613 -4.807214 18.126539 0 18.126539 
z
" style="stroke: #791a76; stroke-opacity: 0.9; stroke-width: 0.7"/>
     </defs>
     <g>
      <use xlink:href="#m0a4365f2ee" x="221.167" y="140.411319" style="fill: #a661a4; fill-opacity: 0.9; stroke: #791a76; stroke-opacity: 0.9; stroke-width: 0.7"/>
     </g>
    </g>
    <g id="text_9">
     <!-- 60 -->
     <g transform="translate(251.067 144.961319) scale(0.13 -0.13)">
      <defs>
       <path id="DejaVuSans-36" d="M 2113 2584 
Q 1688 2584 1439 2293 
Q 1191 2003 1191 1497 
Q 1191 994 1439 701 
Q 1688 409 2113 409 
Q 2538 409 2786 701 
Q 3034 994 3034 1497 
Q 3034 2003 2786 2293 
Q 2538 2584 2113 2584 
z
M 3366 4563 
L 3366 3988 
Q 3128 4100 2886 4159 
Q 2644 4219 2406 4219 
Q 1781 4219 1451 3797 
Q 1122 3375 1075 2522 
Q 1259 2794 1537 2939 
Q 1816 3084 2150 3084 
Q 2853 3084 3261 2657 
Q 3669 2231 3669 1497 
Q 3669 778 3244 343 
Q 2819 -91 2113 -91 
Q 1303 -91 875 529 
Q 447 1150 447 2328 
Q 447 3434 972 4092 
Q 1497 4750 2381 4750 
Q 2619 4750 2861 4703 
Q 3103 4656 3366 4563 
z
" transform="scale(0.015625)"/>
      </defs>
      <use xlink:href="#DejaVuSans-36"/>
      <use xlink:href="#DejaVuSans-30" transform="translate(63.623047 0)"/>
     </g>
    </g>
    <g id="line2d_8">
     <defs>
      <path id="mebf9b12b09" d="M 0 20.87377 
C 5.535789 20.87377 10.845591 18.674378 14.759985 14.759985 
C 18.674378 10.845591 20.87377 5.535789 20.87377 0 
C 20.87377 -5.535789 18.674378 -10.845591 14.759985 -14.759985 
C 10.845591 -18.674378 5.535789 -20.87377 0 -20.87377 
C -5.535789 -20.87377 -10.845591 -18.674378 -14.759985 -14.759985 
C -18.674378 -10.845591 -20.87377 -5.535789 -20.87377 0 
C -20.87377 5.535789 -18.674378 10.845591 -14.759985 14.759985 
C -10.845591 18.674378 -5.535789 20.87377 0 20.87377 
z
" style="stroke: #791a76; stroke-opacity: 0.9; stroke-width: 0.7"/>
     </defs>
     <g>
      <use xlink:href="#mebf9b12b09" x="313.1095" y="140.411319" style="fill: #8a3487; fill-opacity: 0.9; stroke: #791a76; stroke-opacity: 0.9; stroke-width: 0.7"/>
     </g>
    </g>
    <g id="text_10">
     <!-- 80 -->
     <g transform="translate(343.0095 144.961319) scale(0.13 -0.13)">
      <defs>
       <path id="DejaVuSans-38" d="M 2034 2216 
Q 1584 2216 1326 1975 
Q 1069 1734 1069 1313 
Q 1069 891 1326 650 
Q 1584 409 2034 409 
Q 2484 409 2743 651 
Q 3003 894 3003 1313 
Q 3003 1734 2745 1975 
Q 2488 2216 2034 2216 
z
M 1403 2484 
Q 997 2584 770 2862 
Q 544 3141 544 3541 
Q 544 4100 942 4425 
Q 1341 4750 2034 4750 
Q 2731 4750 3128 4425 
Q 3525 4100 3525 3541 
Q 3525 3141 3298 2862 
Q 3072 2584 2669 2484 
Q 3125 2378 3379 2068 
Q 3634 1759 3634 1313 
Q 3634 634 3220 271 
Q 2806 -91 2034 -91 
Q 1263 -91 848 271 
Q 434 634 434 1313 
Q 434 1759 690 2068 
Q 947 2378 1403 2484 
z
M 1172 3481 
Q 1172 3119 1398 2916 
Q 1625 2713 2034 2713 
Q 2441 2713 2670 2916 
Q 2900 3119 2900 3481 
Q 2900 3844 2670 4047 
Q 2441 4250 2034 4250 
Q 1625 4250 1398 4047 
Q 1172 3844 1172 3481 
z
" transform="scale(0.015625)"/>
      </defs>
      <use xlink:href="#DejaVuSans-38"/>
      <use xlink:href="#DejaVuSans-30" transform="translate(63.623047 0)"/>
     </g>
    </g>
   </g>
  </g>
  <g id="text_11">
   <!-- Virginia's Public Art by City -->
   <g style="fill: #791a76" transform="translate(7.2 26.196094) scale(0.25 -0.25)">
    <defs>
     <path id="OpenSans-Bold-56" d="M 4159 4569 
L 2606 0 
L 1550 0 
L 0 4569 
L 978 4569 
L 1838 1850 
Q 1859 1781 1909 1592 
Q 1959 1403 2011 1192 
Q 2063 981 2081 844 
Q 2100 981 2148 1190 
Q 2197 1400 2245 1589 
Q 2294 1778 2316 1850 
L 3181 4569 
L 4159 4569 
z
" transform="scale(0.015625)"/>
     <path id="OpenSans-Bold-69" d="M 1453 3494 
L 1453 0 
L 500 0 
L 500 3494 
L 1453 3494 
z
M 978 4863 
Q 1191 4863 1344 4764 
Q 1497 4666 1497 4397 
Q 1497 4131 1344 4029 
Q 1191 3928 978 3928 
Q 763 3928 611 4029 
Q 459 4131 459 4397 
Q 459 4666 611 4764 
Q 763 4863 978 4863 
z
" transform="scale(0.015625)"/>
     <path id="OpenSans-Bold-67" d="M 1522 -1538 
Q 791 -1538 405 -1283 
Q 19 -1028 19 -569 
Q 19 -253 216 -40 
Q 413 172 794 263 
Q 647 325 537 467 
Q 428 609 428 769 
Q 428 969 543 1101 
Q 659 1234 878 1363 
Q 603 1481 442 1743 
Q 281 2006 281 2363 
Q 281 2744 448 3011 
Q 616 3278 936 3418 
Q 1256 3559 1716 3559 
Q 1813 3559 1941 3546 
Q 2069 3534 2176 3518 
Q 2284 3503 2322 3494 
L 3541 3494 
L 3541 3009 
L 2994 2869 
Q 3069 2753 3106 2622 
Q 3144 2491 3144 2344 
Q 3144 1781 2751 1467 
Q 2359 1153 1663 1153 
Q 1497 1163 1350 1178 
Q 1278 1122 1240 1059 
Q 1203 997 1203 928 
Q 1203 859 1261 814 
Q 1319 769 1436 745 
Q 1553 722 1728 722 
L 2322 722 
Q 2897 722 3198 475 
Q 3500 228 3500 -250 
Q 3500 -863 2989 -1200 
Q 2478 -1538 1522 -1538 
z
M 1563 -916 
Q 1903 -916 2148 -852 
Q 2394 -788 2525 -670 
Q 2656 -553 2656 -391 
Q 2656 -259 2579 -182 
Q 2503 -106 2348 -75 
Q 2194 -44 1953 -44 
L 1459 -44 
Q 1284 -44 1145 -100 
Q 1006 -156 925 -257 
Q 844 -359 844 -494 
Q 844 -691 1033 -803 
Q 1222 -916 1563 -916 
z
M 1716 1734 
Q 1984 1734 2109 1900 
Q 2234 2066 2234 2350 
Q 2234 2666 2104 2823 
Q 1975 2981 1716 2981 
Q 1453 2981 1322 2823 
Q 1191 2666 1191 2350 
Q 1191 2066 1320 1900 
Q 1450 1734 1716 1734 
z
" transform="scale(0.015625)"/>
     <path id="OpenSans-Bold-6e" d="M 2484 3559 
Q 3044 3559 3384 3254 
Q 3725 2950 3725 2278 
L 3725 0 
L 2772 0 
L 2772 2041 
Q 2772 2416 2636 2606 
Q 2500 2797 2209 2797 
Q 1772 2797 1612 2500 
Q 1453 2203 1453 1644 
L 1453 0 
L 500 0 
L 500 3494 
L 1228 3494 
L 1356 3047 
L 1409 3047 
Q 1522 3228 1689 3340 
Q 1856 3453 2061 3506 
Q 2266 3559 2484 3559 
z
" transform="scale(0.015625)"/>
     <path id="OpenSans-Bold-61" d="M 1931 3566 
Q 2634 3566 3009 3259 
Q 3384 2953 3384 2328 
L 3384 0 
L 2719 0 
L 2534 475 
L 2509 475 
Q 2359 288 2203 169 
Q 2047 50 1844 -6 
Q 1641 -63 1350 -63 
Q 1041 -63 795 56 
Q 550 175 409 420 
Q 269 666 269 1044 
Q 269 1600 659 1864 
Q 1050 2128 1831 2156 
L 2438 2175 
L 2438 2328 
Q 2438 2603 2294 2731 
Q 2150 2859 1894 2859 
Q 1641 2859 1397 2787 
Q 1153 2716 909 2606 
L 594 3250 
Q 872 3397 1217 3481 
Q 1563 3566 1931 3566 
z
M 2438 1619 
L 2069 1606 
Q 1606 1594 1426 1441 
Q 1247 1288 1247 1038 
Q 1247 819 1375 726 
Q 1503 634 1709 634 
Q 2016 634 2227 815 
Q 2438 997 2438 1331 
L 2438 1619 
z
" transform="scale(0.015625)"/>
     <path id="OpenSans-Bold-27" d="M 1288 4569 
L 1159 2919 
L 544 2919 
L 416 4569 
L 1288 4569 
z
" transform="scale(0.015625)"/>
     <path id="OpenSans-Bold-50" d="M 2034 4569 
Q 2919 4569 3325 4189 
Q 3731 3809 3731 3144 
Q 3731 2844 3640 2570 
Q 3550 2297 3345 2084 
Q 3141 1872 2800 1748 
Q 2459 1625 1959 1625 
L 1544 1625 
L 1544 0 
L 575 0 
L 575 4569 
L 2034 4569 
z
M 1984 3775 
L 1544 3775 
L 1544 2419 
L 1863 2419 
Q 2134 2419 2334 2491 
Q 2534 2563 2643 2716 
Q 2753 2869 2753 3109 
Q 2753 3447 2565 3611 
Q 2378 3775 1984 3775 
z
" transform="scale(0.015625)"/>
     <path id="OpenSans-Bold-6c" d="M 1453 0 
L 500 0 
L 500 4863 
L 1453 4863 
L 1453 0 
z
" transform="scale(0.015625)"/>
     <path id="OpenSans-Bold-63" d="M 1919 -63 
Q 1400 -63 1034 126 
Q 669 316 478 712 
Q 288 1109 288 1728 
Q 288 2369 505 2773 
Q 722 3178 1108 3368 
Q 1494 3559 2003 3559 
Q 2366 3559 2630 3489 
Q 2894 3419 3091 3322 
L 2809 2584 
Q 2584 2675 2390 2733 
Q 2197 2791 2003 2791 
Q 1753 2791 1587 2673 
Q 1422 2556 1340 2322 
Q 1259 2088 1259 1734 
Q 1259 1388 1346 1159 
Q 1434 931 1600 820 
Q 1766 709 2003 709 
Q 2300 709 2531 789 
Q 2763 869 2981 1013 
L 2981 197 
Q 2763 59 2523 -2 
Q 2284 -63 1919 -63 
z
" transform="scale(0.015625)"/>
     <path id="OpenSans-Bold-79" d="M 0 3494 
L 1044 3494 
L 1703 1528 
Q 1734 1434 1756 1337 
Q 1778 1241 1793 1137 
Q 1809 1034 1819 922 
L 1838 922 
Q 1856 1091 1889 1237 
Q 1922 1384 1972 1528 
L 2619 3494 
L 3641 3494 
L 2163 -447 
Q 2028 -809 1812 -1051 
Q 1597 -1294 1317 -1416 
Q 1038 -1538 703 -1538 
Q 541 -1538 422 -1520 
Q 303 -1503 219 -1484 
L 219 -728 
Q 284 -744 384 -756 
Q 484 -769 594 -769 
Q 794 -769 937 -684 
Q 1081 -600 1178 -458 
Q 1275 -316 1331 -147 
L 1388 25 
L 0 3494 
z
" transform="scale(0.015625)"/>
     <path id="OpenSans-Bold-43" d="M 2516 3828 
Q 2238 3828 2023 3720 
Q 1809 3613 1664 3409 
Q 1519 3206 1444 2918 
Q 1369 2631 1369 2272 
Q 1369 1788 1489 1445 
Q 1609 1103 1862 923 
Q 2116 744 2516 744 
Q 2794 744 3073 806 
Q 3353 869 3681 984 
L 3681 172 
Q 3378 47 3084 -8 
Q 2791 -63 2425 -63 
Q 1719 -63 1264 229 
Q 809 522 590 1048 
Q 372 1575 372 2278 
Q 372 2797 512 3228 
Q 653 3659 925 3975 
Q 1197 4291 1597 4462 
Q 1997 4634 2516 4634 
Q 2856 4634 3198 4548 
Q 3541 4463 3853 4313 
L 3541 3525 
Q 3284 3647 3025 3737 
Q 2766 3828 2516 3828 
z
" transform="scale(0.015625)"/>
    </defs>
    <use xlink:href="#OpenSans-Bold-56"/>
    <use xlink:href="#OpenSans-Bold-69" transform="translate(64.990234 0)"/>
    <use xlink:href="#OpenSans-Bold-72" transform="translate(95.507812 0)"/>
    <use xlink:href="#OpenSans-Bold-67" transform="translate(140.917969 0)"/>
    <use xlink:href="#OpenSans-Bold-69" transform="translate(197.412109 0)"/>
    <use xlink:href="#OpenSans-Bold-6e" transform="translate(227.929688 0)"/>
    <use xlink:href="#OpenSans-Bold-69" transform="translate(293.652344 0)"/>
    <use xlink:href="#OpenSans-Bold-61" transform="translate(324.169922 0)"/>
    <use xlink:href="#OpenSans-Bold-27" transform="translate(384.570312 0)"/>
    <use xlink:href="#OpenSans-Bold-73" transform="translate(411.181641 0)"/>
    <use xlink:href="#OpenSans-Bold-20" transform="translate(460.888672 0)"/>
    <use xlink:href="#OpenSans-Bold-50" transform="translate(486.865234 0)"/>
    <use xlink:href="#OpenSans-Bold-75" transform="translate(549.658203 0)"/>
    <use xlink:href="#OpenSans-Bold-62" transform="translate(615.380859 0)"/>
    <use xlink:href="#OpenSans-Bold-6c" transform="translate(678.662109 0)"/>
    <use xlink:href="#OpenSans-Bold-69" transform="translate(709.179688 0)"/>
    <use xlink:href="#OpenSans-Bold-63" transform="translate(739.697266 0)"/>
    <use xlink:href="#OpenSans-Bold-20" transform="translate(791.113281 0)"/>
    <use xlink:href="#OpenSans-Bold-41" transform="translate(817.089844 0)"/>
    <use xlink:href="#OpenSans-Bold-72" transform="translate(886.083984 0)"/>
    <use xlink:href="#OpenSans-Bold-74" transform="translate(931.494141 0)"/>
    <use xlink:href="#OpenSans-Bold-20" transform="translate(974.902344 0)"/>
    <use xlink:href="#OpenSans-Bold-62" transform="translate(1000.878906 0)"/>
    <use xlink:href="#OpenSans-Bold-79" transform="translate(1064.160156 0)"/>
    <use xlink:href="#OpenSans-Bold-20" transform="translate(1121.044922 0)"/>
    <use xlink:href="#OpenSans-Bold-43" transform="translate(1147.021484 0)"/>
    <use xlink:href="#OpenSans-Bold-69" transform="translate(1210.742188 0)"/>
    <use xlink:href="#OpenSans-Bold-74" transform="translate(1241.259766 0)"/>
    <use xlink:href="#OpenSans-Bold-79" transform="translate(1284.667969 0)"/>
   </g>
  </g>
  <g id="text_12">
   <!-- Top 5 cities labeled -->
   <g transform="translate(7.2 58.596094) scale(0.2 -0.2)">
    <defs>
     <path id="OpenSans-Regular-54" d="M 2028 0 
L 1494 0 
L 1494 4100 
L 56 4100 
L 56 4569 
L 3459 4569 
L 3459 4100 
L 2028 4100 
L 2028 0 
z
" transform="scale(0.015625)"/>
     <path id="OpenSans-Regular-6f" d="M 3500 1719 
Q 3500 1297 3390 965 
Q 3281 634 3075 406 
Q 2869 178 2576 57 
Q 2284 -63 1916 -63 
Q 1572 -63 1286 57 
Q 1000 178 792 406 
Q 584 634 470 965 
Q 356 1297 356 1719 
Q 356 2281 547 2676 
Q 738 3072 1092 3280 
Q 1447 3488 1938 3488 
Q 2406 3488 2757 3278 
Q 3109 3069 3304 2673 
Q 3500 2278 3500 1719 
z
M 894 1719 
Q 894 1306 1003 1003 
Q 1113 700 1341 534 
Q 1569 369 1928 369 
Q 2284 369 2514 534 
Q 2744 700 2853 1003 
Q 2963 1306 2963 1719 
Q 2963 2128 2853 2426 
Q 2744 2725 2516 2887 
Q 2288 3050 1925 3050 
Q 1391 3050 1142 2697 
Q 894 2344 894 1719 
z
" transform="scale(0.015625)"/>
     <path id="OpenSans-Regular-70" d="M 2156 3488 
Q 2797 3488 3178 3047 
Q 3559 2606 3559 1722 
Q 3559 1138 3384 741 
Q 3209 344 2892 140 
Q 2575 -63 2144 -63 
Q 1872 -63 1665 9 
Q 1459 81 1312 203 
Q 1166 325 1069 469 
L 1031 469 
Q 1041 347 1055 175 
Q 1069 3 1069 -125 
L 1069 -1531 
L 547 -1531 
L 547 3425 
L 975 3425 
L 1044 2919 
L 1069 2919 
Q 1169 3075 1312 3204 
Q 1456 3334 1664 3411 
Q 1872 3488 2156 3488 
z
M 2066 3050 
Q 1709 3050 1492 2912 
Q 1275 2775 1175 2501 
Q 1075 2228 1069 1816 
L 1069 1716 
Q 1069 1281 1164 981 
Q 1259 681 1479 525 
Q 1700 369 2072 369 
Q 2391 369 2603 541 
Q 2816 713 2920 1020 
Q 3025 1328 3025 1728 
Q 3025 2334 2789 2692 
Q 2553 3050 2066 3050 
z
" transform="scale(0.015625)"/>
     <path id="OpenSans-Regular-20" transform="scale(0.015625)"/>
     <path id="OpenSans-Regular-35" d="M 1759 2794 
Q 2225 2794 2569 2636 
Q 2913 2478 3102 2178 
Q 3291 1878 3291 1450 
Q 3291 981 3087 642 
Q 2884 303 2503 120 
Q 2122 -63 1591 -63 
Q 1234 -63 928 0 
Q 622 63 413 188 
L 413 681 
Q 641 544 966 462 
Q 1291 381 1597 381 
Q 1944 381 2205 492 
Q 2466 603 2611 829 
Q 2756 1056 2756 1400 
Q 2756 1856 2476 2104 
Q 2197 2353 1594 2353 
Q 1400 2353 1169 2322 
Q 938 2291 788 2253 
L 525 2425 
L 700 4569 
L 2972 4569 
L 2972 4094 
L 1144 4094 
L 1028 2716 
Q 1147 2741 1334 2767 
Q 1522 2794 1759 2794 
z
" transform="scale(0.015625)"/>
     <path id="OpenSans-Regular-63" d="M 1919 -63 
Q 1456 -63 1103 128 
Q 750 319 553 709 
Q 356 1100 356 1694 
Q 356 2316 564 2711 
Q 772 3106 1137 3297 
Q 1503 3488 1969 3488 
Q 2225 3488 2464 3436 
Q 2703 3384 2856 3306 
L 2700 2872 
Q 2544 2934 2339 2984 
Q 2134 3034 1956 3034 
Q 1600 3034 1364 2881 
Q 1128 2728 1011 2431 
Q 894 2134 894 1700 
Q 894 1284 1008 990 
Q 1122 697 1348 542 
Q 1575 388 1916 388 
Q 2188 388 2406 445 
Q 2625 503 2803 581 
L 2803 119 
Q 2631 31 2420 -16 
Q 2209 -63 1919 -63 
z
" transform="scale(0.015625)"/>
     <path id="OpenSans-Regular-69" d="M 1066 3425 
L 1066 0 
L 547 0 
L 547 3425 
L 1066 3425 
z
M 813 4706 
Q 941 4706 1033 4623 
Q 1125 4541 1125 4366 
Q 1125 4194 1033 4109 
Q 941 4025 813 4025 
Q 678 4025 589 4109 
Q 500 4194 500 4366 
Q 500 4541 589 4623 
Q 678 4706 813 4706 
z
" transform="scale(0.015625)"/>
     <path id="OpenSans-Regular-74" d="M 1653 363 
Q 1781 363 1915 384 
Q 2050 406 2134 438 
L 2134 34 
Q 2044 -6 1883 -34 
Q 1722 -63 1569 -63 
Q 1297 -63 1075 32 
Q 853 128 720 356 
Q 588 584 588 988 
L 588 3019 
L 100 3019 
L 100 3272 
L 591 3475 
L 797 4219 
L 1109 4219 
L 1109 3425 
L 2113 3425 
L 2113 3019 
L 1109 3019 
L 1109 1003 
Q 1109 681 1257 522 
Q 1406 363 1653 363 
z
" transform="scale(0.015625)"/>
     <path id="OpenSans-Regular-65" d="M 1866 3488 
Q 2303 3488 2615 3294 
Q 2928 3100 3093 2751 
Q 3259 2403 3259 1938 
L 3259 1616 
L 894 1616 
Q 903 1013 1193 697 
Q 1484 381 2013 381 
Q 2338 381 2588 440 
Q 2838 500 3106 616 
L 3106 159 
Q 2847 44 2592 -9 
Q 2338 -63 1991 -63 
Q 1497 -63 1130 139 
Q 763 341 559 731 
Q 356 1122 356 1688 
Q 356 2241 542 2645 
Q 728 3050 1067 3269 
Q 1406 3488 1866 3488 
z
M 1859 3063 
Q 1444 3063 1197 2791 
Q 950 2519 903 2031 
L 2716 2031 
Q 2713 2338 2620 2570 
Q 2528 2803 2340 2933 
Q 2153 3063 1859 3063 
z
" transform="scale(0.015625)"/>
     <path id="OpenSans-Regular-73" d="M 2763 938 
Q 2763 609 2598 386 
Q 2434 163 2129 50 
Q 1825 -63 1403 -63 
Q 1044 -63 781 -6 
Q 519 50 322 153 
L 322 631 
Q 531 528 822 443 
Q 1113 359 1416 359 
Q 1859 359 2059 503 
Q 2259 647 2259 894 
Q 2259 1034 2179 1142 
Q 2100 1250 1912 1351 
Q 1725 1453 1394 1575 
Q 1066 1700 827 1823 
Q 588 1947 458 2125 
Q 328 2303 328 2588 
Q 328 3022 679 3255 
Q 1031 3488 1603 3488 
Q 1913 3488 2183 3427 
Q 2453 3366 2688 3263 
L 2513 2847 
Q 2300 2938 2059 3000 
Q 1819 3063 1569 3063 
Q 1209 3063 1017 2944 
Q 825 2825 825 2619 
Q 825 2459 914 2356 
Q 1003 2253 1200 2162 
Q 1397 2072 1719 1950 
Q 2041 1831 2275 1704 
Q 2509 1578 2636 1398 
Q 2763 1219 2763 938 
z
" transform="scale(0.015625)"/>
     <path id="OpenSans-Regular-6c" d="M 1069 0 
L 547 0 
L 547 4863 
L 1069 4863 
L 1069 0 
z
" transform="scale(0.015625)"/>
     <path id="OpenSans-Regular-61" d="M 1828 3481 
Q 2441 3481 2737 3206 
Q 3034 2931 3034 2328 
L 3034 0 
L 2656 0 
L 2556 506 
L 2531 506 
Q 2388 319 2231 192 
Q 2075 66 1870 1 
Q 1666 -63 1369 -63 
Q 1056 -63 814 46 
Q 572 156 433 378 
Q 294 600 294 941 
Q 294 1453 700 1728 
Q 1106 2003 1938 2028 
L 2528 2053 
L 2528 2263 
Q 2528 2706 2337 2884 
Q 2147 3063 1800 3063 
Q 1531 3063 1287 2984 
Q 1044 2906 825 2800 
L 666 3194 
Q 897 3313 1197 3397 
Q 1497 3481 1828 3481 
z
M 2522 1688 
L 2000 1666 
Q 1359 1641 1096 1456 
Q 834 1272 834 934 
Q 834 641 1012 500 
Q 1191 359 1484 359 
Q 1941 359 2231 612 
Q 2522 866 2522 1372 
L 2522 1688 
z
" transform="scale(0.015625)"/>
     <path id="OpenSans-Regular-62" d="M 1066 4863 
L 1066 3647 
Q 1066 3438 1055 3241 
Q 1044 3044 1038 2934 
L 1066 2934 
Q 1206 3166 1472 3325 
Q 1738 3484 2150 3484 
Q 2794 3484 3176 3039 
Q 3559 2594 3559 1716 
Q 3559 1138 3384 741 
Q 3209 344 2890 140 
Q 2572 -63 2138 -63 
Q 1731 -63 1470 89 
Q 1209 241 1069 459 
L 1028 459 
L 922 0 
L 547 0 
L 547 4863 
L 1066 4863 
z
M 2066 3050 
Q 1694 3050 1475 2904 
Q 1256 2759 1161 2467 
Q 1066 2175 1066 1728 
L 1066 1700 
Q 1066 1053 1281 711 
Q 1497 369 2066 369 
Q 2544 369 2783 719 
Q 3022 1069 3022 1719 
Q 3022 2381 2786 2715 
Q 2550 3050 2066 3050 
z
" transform="scale(0.015625)"/>
     <path id="OpenSans-Regular-64" d="M 1766 -63 
Q 1116 -63 736 381 
Q 356 825 356 1700 
Q 356 2584 743 3036 
Q 1131 3488 1775 3488 
Q 2047 3488 2250 3416 
Q 2453 3344 2600 3223 
Q 2747 3103 2847 2950 
L 2884 2950 
Q 2872 3047 2859 3215 
Q 2847 3384 2847 3491 
L 2847 4863 
L 3366 4863 
L 3366 0 
L 2947 0 
L 2869 488 
L 2847 488 
Q 2750 334 2601 209 
Q 2453 84 2248 10 
Q 2044 -63 1766 -63 
z
M 1847 369 
Q 2397 369 2625 681 
Q 2853 994 2853 1609 
L 2853 1703 
Q 2853 2356 2636 2706 
Q 2419 3056 1847 3056 
Q 1369 3056 1131 2689 
Q 894 2322 894 1688 
Q 894 1056 1130 712 
Q 1366 369 1847 369 
z
" transform="scale(0.015625)"/>
    </defs>
    <use xlink:href="#OpenSans-Regular-54"/>
    <use xlink:href="#OpenSans-Regular-6f" transform="translate(55.078125 0)"/>
    <use xlink:href="#OpenSans-Regular-70" transform="translate(115.234375 0)"/>
    <use xlink:href="#OpenSans-Regular-20" transform="translate(176.416016 0)"/>
    <use xlink:href="#OpenSans-Regular-35" transform="translate(202.392578 0)"/>
    <use xlink:href="#OpenSans-Regular-20" transform="translate(259.570312 0)"/>
    <use xlink:href="#OpenSans-Regular-63" transform="translate(285.546875 0)"/>
    <use xlink:href="#OpenSans-Regular-69" transform="translate(333.447266 0)"/>
    <use xlink:href="#OpenSans-Regular-74" transform="translate(358.691406 0)"/>
    <use xlink:href="#OpenSans-Regular-69" transform="translate(394.335938 0)"/>
    <use xlink:href="#OpenSans-Regular-65" transform="translate(419.580078 0)"/>
    <use xlink:href="#OpenSans-Regular-73" transform="translate(475.732422 0)"/>
    <use xlink:href="#OpenSans-Regular-20" transform="translate(523.388672 0)"/>
    <use xlink:href="#OpenSans-Regular-6c" transform="translate(549.365234 0)"/>
    <use xlink:href="#OpenSans-Regular-61" transform="translate(574.609375 0)"/>
    <use xlink:href="#OpenSans-Regular-62" transform="translate(630.175781 0)"/>
    <use xlink:href="#OpenSans-Regular-65" transform="translate(691.357422 0)"/>
    <use xlink:href="#OpenSans-Regular-6c" transform="translate(747.509766 0)"/>
    <use xlink:href="#OpenSans-Regular-65" transform="translate(772.753906 0)"/>
    <use xlink:href="#OpenSans-Regular-64" transform="translate(828.90625 0)"/>
   </g>
  </g>
 </g>
 <defs>
  <clipPath id="p14b94870db">
   <rect x="124.2" y="34.057376" width="725.4" height="314.757435"/>
  </clipPath>
 </defs>
</svg>
