<?xml version="1.0" encoding="utf-8" standalone="no"?>
<!DOCTYPE svg PUBLIC "-//W3C//DTD SVG 1.1//EN"
  "http://www.w3.org/Graphics/SVG/1.1/DTD/svg11.dtd">
<svg xmlns:xlink="http://www.w3.org/1999/xlink" width="617.046543pt" height="399.38121pt" viewBox="0 0 617.046543 399.38121" xmlns="http://www.w3.org/2000/svg" version="1.1">
 <metadata>
  <rdf:RDF xmlns:dc="http://purl.org/dc/elements/1.1/" xmlns:cc="http://creativecommons.org/ns#" xmlns:rdf="http://www.w3.org/1999/02/22-rdf-syntax-ns#">
   <cc:Work>
    <dc:type rdf:resource="http://purl.org/dc/dcmitype/StillImage"/>
    <dc:date>2025-12-11T18:04:14.672097</dc:date>
    <dc:format>image/svg+xml</dc:format>
    <dc:creator>
     <cc:Agent>
      <dc:title>Matplotlib v3.10.0, https://matplotlib.org/</dc:title>
     </cc:Agent>
    </dc:creator>
   </cc:Work>
  </rdf:RDF>
 </metadata>
 <defs>
  <style type="text/css">*{stroke-linejoin: round; stroke-linecap: butt}</style>
 </defs>
 <g id="figure_1">
  <g id="patch_1">
   <path d="M 0 399.38121 
L 617.046543 399.38121 
L 617.046543 0 
L 0 0 
L 0 399.38121 
z
" style="fill: none"/>
  </g>
  <g id="axes_1">
   <g id="patch_2">
    <path d="M 19.619668 339.84 
L 577.619668 339.84 
L 577.619668 7.2 
L 19.619668 7.2 
L 19.619668 339.84 
z
" style="fill: none"/>
   </g>
   <g id="LineCollection_1">
    <path d="M 449.230287 41.675294 
L 562.805508 41.675294 
" clip-path="url(#p0f11212530)" style="fill: none; stroke: #000000; stroke-opacity: 0.1; stroke-width: 1.5"/>
   </g>
   <g id="LineCollection_2">
    <path d="M 449.230287 78.945882 
L 562.805508 78.945882 
" clip-path="url(#p0f11212530)" style="fill: none; stroke: #000000; stroke-opacity: 0.1; stroke-width: 1.5"/>
   </g>
   <g id="LineCollection_3">
    <path d="M 449.230287 116.216471 
L 562.805508 116.216471 
" clip-path="url(#p0f11212530)" style="fill: none; stroke: #000000; stroke-opacity: 0.1; stroke-width: 1.5"/>
   </g>
   <g id="LineCollection_4">
    <path d="M 19.619668 153.487059 
L 562.805508 153.487059 
" clip-path="url(#p0f11212530)" style="fill: none; stroke: #000000; stroke-opacity: 0.1; stroke-width: 1.5"/>
   </g>
   <g id="LineCollection_5">
    <path d="M 19.619668 190.757647 
L 562.805508 190.757647 
" clip-path="url(#p0f11212530)" style="fill: none; stroke: #000000; stroke-opacity: 0.1; stroke-width: 1.5"/>
   </g>
   <g id="LineCollection_6">
    <path d="M 19.619668 228.028235 
L 562.805508 228.028235 
" clip-path="url(#p0f11212530)" style="fill: none; stroke: #000000; stroke-opacity: 0.1; stroke-width: 1.5"/>
   </g>
   <g id="LineCollection_7">
    <path d="M 19.619668 265.298824 
L 562.805508 265.298824 
" clip-path="url(#p0f11212530)" style="fill: none; stroke: #000000; stroke-opacity: 0.1; stroke-width: 1.5"/>
   </g>
   <g id="LineCollection_8">
    <path d="M 19.619668 302.569412 
L 562.805508 302.569412 
" clip-path="url(#p0f11212530)" style="fill: none; stroke: #000000; stroke-opacity: 0.1; stroke-width: 1.5"/>
   </g>
   <g id="FillBetweenPolyCollection_1">
    <defs>
     <path id="m73fb5001cd" d="M 24.557721 -59.54121 
L 24.557721 -59.54121 
L 44.309933 -59.54121 
L 88.752411 -59.54121 
L 93.690464 -59.54121 
L 128.256836 -59.54121 
L 187.513473 -59.54121 
L 217.141792 -59.54121 
L 227.017898 -59.54121 
L 241.832057 -59.54121 
L 271.460376 -59.54121 
L 276.398429 -59.54121 
L 286.274535 -59.54121 
L 291.212588 -59.54121 
L 296.150641 -59.54121 
L 301.088694 -59.54121 
L 306.026747 -59.54121 
L 310.9648 -59.54121 
L 320.840907 -59.54121 
L 325.77896 -59.54121 
L 330.717013 -59.54121 
L 335.655066 -59.54121 
L 340.593119 -59.54121 
L 345.531172 -59.54121 
L 350.469225 -59.54121 
L 355.407278 -59.54121 
L 360.345331 -59.54121 
L 365.283385 -59.54121 
L 370.221438 -59.54121 
L 375.159491 -59.54121 
L 380.097544 -59.54121 
L 385.035597 -59.54121 
L 389.97365 -59.54121 
L 394.911703 -59.54121 
L 399.849756 -59.54121 
L 404.787809 -59.54121 
L 409.725862 -59.54121 
L 414.663915 -59.54121 
L 419.601969 -59.54121 
L 424.540022 -59.54121 
L 429.478075 -59.54121 
L 434.416128 -59.54121 
L 439.354181 -59.54121 
L 444.292234 -59.54121 
L 449.230287 -59.54121 
L 454.16834 -59.54121 
L 459.106393 -59.54121 
L 464.044446 -59.54121 
L 468.9825 -59.54121 
L 473.920553 -59.54121 
L 478.858606 -59.54121 
L 483.796659 -59.54121 
L 488.734712 -59.54121 
L 493.672765 -59.54121 
L 498.610818 -59.54121 
L 503.548871 -59.54121 
L 508.486924 -59.54121 
L 513.424977 -59.54121 
L 513.424977 -59.54121 
L 513.424977 -59.54121 
L 508.486924 -59.54121 
L 503.548871 -78.176505 
L 498.610818 -59.54121 
L 493.672765 -78.176505 
L 488.734712 -59.54121 
L 483.796659 -59.54121 
L 478.858606 -78.176505 
L 473.920553 -59.54121 
L 468.9825 -59.54121 
L 464.044446 -115.447093 
L 459.106393 -134.082387 
L 454.16834 -59.54121 
L 449.230287 -78.176505 
L 444.292234 -59.54121 
L 439.354181 -59.54121 
L 434.416128 -78.176505 
L 429.478075 -59.54121 
L 424.540022 -96.811799 
L 419.601969 -78.176505 
L 414.663915 -78.176505 
L 409.725862 -59.54121 
L 404.787809 -59.54121 
L 399.849756 -78.176505 
L 394.911703 -59.54121 
L 389.97365 -59.54121 
L 385.035597 -59.54121 
L 380.097544 -59.54121 
L 375.159491 -59.54121 
L 370.221438 -59.54121 
L 365.283385 -59.54121 
L 360.345331 -59.54121 
L 355.407278 -59.54121 
L 350.469225 -59.54121 
L 345.531172 -59.54121 
L 340.593119 -59.54121 
L 335.655066 -59.54121 
L 330.717013 -59.54121 
L 325.77896 -59.54121 
L 320.840907 -78.176505 
L 310.9648 -59.54121 
L 306.026747 -59.54121 
L 301.088694 -59.54121 
L 296.150641 -59.54121 
L 291.212588 -59.54121 
L 286.274535 -59.54121 
L 276.398429 -59.54121 
L 271.460376 -59.54121 
L 241.832057 -59.54121 
L 227.017898 -59.54121 
L 217.141792 -59.54121 
L 187.513473 -59.54121 
L 128.256836 -59.54121 
L 93.690464 -59.54121 
L 88.752411 -59.54121 
L 44.309933 -59.54121 
L 24.557721 -59.54121 
z
" style="stroke: #000000; stroke-width: 0.5"/>
    </defs>
    <g clip-path="url(#p0f11212530)">
     <use xlink:href="#m73fb5001cd" x="0" y="399.38121" style="fill: #d6e4e6; stroke: #000000; stroke-width: 0.5"/>
    </g>
   </g>
   <g id="FillBetweenPolyCollection_2">
    <defs>
     <path id="ma198ae19ab" d="M 24.557721 -59.54121 
L 24.557721 -59.54121 
L 44.309933 -59.54121 
L 88.752411 -59.54121 
L 93.690464 -59.54121 
L 128.256836 -59.54121 
L 187.513473 -59.54121 
L 217.141792 -59.54121 
L 227.017898 -59.54121 
L 241.832057 -59.54121 
L 271.460376 -59.54121 
L 276.398429 -59.54121 
L 286.274535 -59.54121 
L 291.212588 -59.54121 
L 296.150641 -59.54121 
L 301.088694 -59.54121 
L 306.026747 -59.54121 
L 310.9648 -59.54121 
L 320.840907 -78.176505 
L 325.77896 -59.54121 
L 330.717013 -59.54121 
L 335.655066 -59.54121 
L 340.593119 -59.54121 
L 345.531172 -59.54121 
L 350.469225 -59.54121 
L 355.407278 -59.54121 
L 360.345331 -59.54121 
L 365.283385 -59.54121 
L 370.221438 -59.54121 
L 375.159491 -59.54121 
L 380.097544 -59.54121 
L 385.035597 -59.54121 
L 389.97365 -59.54121 
L 394.911703 -59.54121 
L 399.849756 -78.176505 
L 404.787809 -59.54121 
L 409.725862 -59.54121 
L 414.663915 -78.176505 
L 419.601969 -78.176505 
L 424.540022 -96.811799 
L 429.478075 -59.54121 
L 434.416128 -78.176505 
L 439.354181 -59.54121 
L 444.292234 -59.54121 
L 449.230287 -78.176505 
L 454.16834 -59.54121 
L 459.106393 -134.082387 
L 464.044446 -115.447093 
L 468.9825 -59.54121 
L 473.920553 -59.54121 
L 478.858606 -78.176505 
L 483.796659 -59.54121 
L 488.734712 -59.54121 
L 493.672765 -78.176505 
L 498.610818 -59.54121 
L 503.548871 -78.176505 
L 508.486924 -59.54121 
L 513.424977 -59.54121 
L 513.424977 -59.54121 
L 513.424977 -59.54121 
L 508.486924 -59.54121 
L 503.548871 -78.176505 
L 498.610818 -59.54121 
L 493.672765 -78.176505 
L 488.734712 -59.54121 
L 483.796659 -59.54121 
L 478.858606 -78.176505 
L 473.920553 -59.54121 
L 468.9825 -59.54121 
L 464.044446 -115.447093 
L 459.106393 -134.082387 
L 454.16834 -78.176505 
L 449.230287 -96.811799 
L 444.292234 -59.54121 
L 439.354181 -59.54121 
L 434.416128 -78.176505 
L 429.478075 -59.54121 
L 424.540022 -96.811799 
L 419.601969 -96.811799 
L 414.663915 -78.176505 
L 409.725862 -59.54121 
L 404.787809 -59.54121 
L 399.849756 -78.176505 
L 394.911703 -59.54121 
L 389.97365 -59.54121 
L 385.035597 -59.54121 
L 380.097544 -59.54121 
L 375.159491 -59.54121 
L 370.221438 -78.176505 
L 365.283385 -59.54121 
L 360.345331 -59.54121 
L 355.407278 -59.54121 
L 350.469225 -59.54121 
L 345.531172 -59.54121 
L 340.593119 -59.54121 
L 335.655066 -59.54121 
L 330.717013 -59.54121 
L 325.77896 -59.54121 
L 320.840907 -78.176505 
L 310.9648 -59.54121 
L 306.026747 -59.54121 
L 301.088694 -59.54121 
L 296.150641 -59.54121 
L 291.212588 -59.54121 
L 286.274535 -59.54121 
L 276.398429 -59.54121 
L 271.460376 -59.54121 
L 241.832057 -59.54121 
L 227.017898 -78.176505 
L 217.141792 -59.54121 
L 187.513473 -59.54121 
L 128.256836 -59.54121 
L 93.690464 -59.54121 
L 88.752411 -59.54121 
L 44.309933 -59.54121 
L 24.557721 -59.54121 
z
" style="stroke: #000000; stroke-width: 0.5"/>
    </defs>
    <g clip-path="url(#p0f11212530)">
     <use xlink:href="#ma198ae19ab" x="0" y="399.38121" style="fill: #a8c8cc; stroke: #000000; stroke-width: 0.5"/>
    </g>
   </g>
   <g id="FillBetweenPolyCollection_3">
    <defs>
     <path id="m762039606d" d="M 24.557721 -59.54121 
L 24.557721 -59.54121 
L 44.309933 -59.54121 
L 88.752411 -59.54121 
L 93.690464 -59.54121 
L 128.256836 -59.54121 
L 187.513473 -59.54121 
L 217.141792 -59.54121 
L 227.017898 -78.176505 
L 241.832057 -59.54121 
L 271.460376 -59.54121 
L 276.398429 -59.54121 
L 286.274535 -59.54121 
L 291.212588 -59.54121 
L 296.150641 -59.54121 
L 301.088694 -59.54121 
L 306.026747 -59.54121 
L 310.9648 -59.54121 
L 320.840907 -78.176505 
L 325.77896 -59.54121 
L 330.717013 -59.54121 
L 335.655066 -59.54121 
L 340.593119 -59.54121 
L 345.531172 -59.54121 
L 350.469225 -59.54121 
L 355.407278 -59.54121 
L 360.345331 -59.54121 
L 365.283385 -59.54121 
L 370.221438 -78.176505 
L 375.159491 -59.54121 
L 380.097544 -59.54121 
L 385.035597 -59.54121 
L 389.97365 -59.54121 
L 394.911703 -59.54121 
L 399.849756 -78.176505 
L 404.787809 -59.54121 
L 409.725862 -59.54121 
L 414.663915 -78.176505 
L 419.601969 -96.811799 
L 424.540022 -96.811799 
L 429.478075 -59.54121 
L 434.416128 -78.176505 
L 439.354181 -59.54121 
L 444.292234 -59.54121 
L 449.230287 -96.811799 
L 454.16834 -78.176505 
L 459.106393 -134.082387 
L 464.044446 -115.447093 
L 468.9825 -59.54121 
L 473.920553 -59.54121 
L 478.858606 -78.176505 
L 483.796659 -59.54121 
L 488.734712 -59.54121 
L 493.672765 -78.176505 
L 498.610818 -59.54121 
L 503.548871 -78.176505 
L 508.486924 -59.54121 
L 513.424977 -59.54121 
L 513.424977 -59.54121 
L 513.424977 -59.54121 
L 508.486924 -96.811799 
L 503.548871 -115.447093 
L 498.610818 -78.176505 
L 493.672765 -134.082387 
L 488.734712 -96.811799 
L 483.796659 -134.082387 
L 478.858606 -115.447093 
L 473.920553 -96.811799 
L 468.9825 -115.447093 
L 464.044446 -134.082387 
L 459.106393 -152.717681 
L 454.16834 -115.447093 
L 449.230287 -115.447093 
L 444.292234 -59.54121 
L 439.354181 -115.447093 
L 434.416128 -96.811799 
L 429.478075 -59.54121 
L 424.540022 -96.811799 
L 419.601969 -134.082387 
L 414.663915 -78.176505 
L 409.725862 -59.54121 
L 404.787809 -78.176505 
L 399.849756 -78.176505 
L 394.911703 -59.54121 
L 389.97365 -78.176505 
L 385.035597 -59.54121 
L 380.097544 -59.54121 
L 375.159491 -59.54121 
L 370.221438 -96.811799 
L 365.283385 -59.54121 
L 360.345331 -59.54121 
L 355.407278 -59.54121 
L 350.469225 -96.811799 
L 345.531172 -59.54121 
L 340.593119 -59.54121 
L 335.655066 -59.54121 
L 330.717013 -59.54121 
L 325.77896 -59.54121 
L 320.840907 -78.176505 
L 310.9648 -59.54121 
L 306.026747 -59.54121 
L 301.088694 -59.54121 
L 296.150641 -59.54121 
L 291.212588 -59.54121 
L 286.274535 -78.176505 
L 276.398429 -59.54121 
L 271.460376 -59.54121 
L 241.832057 -59.54121 
L 227.017898 -78.176505 
L 217.141792 -59.54121 
L 187.513473 -59.54121 
L 128.256836 -59.54121 
L 93.690464 -78.176505 
L 88.752411 -59.54121 
L 44.309933 -59.54121 
L 24.557721 -59.54121 
z
" style="stroke: #000000; stroke-width: 0.5"/>
    </defs>
    <g clip-path="url(#p0f11212530)">
     <use xlink:href="#m762039606d" x="0" y="399.38121" style="fill: #7aacb3; stroke: #000000; stroke-width: 0.5"/>
    </g>
   </g>
   <g id="FillBetweenPolyCollection_4">
    <defs>
     <path id="m28b5f20bf4" d="M 24.557721 -59.54121 
L 24.557721 -59.54121 
L 44.309933 -59.54121 
L 88.752411 -59.54121 
L 93.690464 -78.176505 
L 128.256836 -59.54121 
L 187.513473 -59.54121 
L 217.141792 -59.54121 
L 227.017898 -78.176505 
L 241.832057 -59.54121 
L 271.460376 -59.54121 
L 276.398429 -59.54121 
L 286.274535 -78.176505 
L 291.212588 -59.54121 
L 296.150641 -59.54121 
L 301.088694 -59.54121 
L 306.026747 -59.54121 
L 310.9648 -59.54121 
L 320.840907 -78.176505 
L 325.77896 -59.54121 
L 330.717013 -59.54121 
L 335.655066 -59.54121 
L 340.593119 -59.54121 
L 345.531172 -59.54121 
L 350.469225 -96.811799 
L 355.407278 -59.54121 
L 360.345331 -59.54121 
L 365.283385 -59.54121 
L 370.221438 -96.811799 
L 375.159491 -59.54121 
L 380.097544 -59.54121 
L 385.035597 -59.54121 
L 389.97365 -78.176505 
L 394.911703 -59.54121 
L 399.849756 -78.176505 
L 404.787809 -78.176505 
L 409.725862 -59.54121 
L 414.663915 -78.176505 
L 419.601969 -134.082387 
L 424.540022 -96.811799 
L 429.478075 -59.54121 
L 434.416128 -96.811799 
L 439.354181 -115.447093 
L 444.292234 -59.54121 
L 449.230287 -115.447093 
L 454.16834 -115.447093 
L 459.106393 -152.717681 
L 464.044446 -134.082387 
L 468.9825 -115.447093 
L 473.920553 -96.811799 
L 478.858606 -115.447093 
L 483.796659 -134.082387 
L 488.734712 -96.811799 
L 493.672765 -134.082387 
L 498.610818 -78.176505 
L 503.548871 -115.447093 
L 508.486924 -96.811799 
L 513.424977 -59.54121 
L 513.424977 -59.54121 
L 513.424977 -59.54121 
L 508.486924 -134.082387 
L 503.548871 -171.352975 
L 498.610818 -96.811799 
L 493.672765 -152.717681 
L 488.734712 -115.447093 
L 483.796659 -152.717681 
L 478.858606 -134.082387 
L 473.920553 -96.811799 
L 468.9825 -171.352975 
L 464.044446 -208.623563 
L 459.106393 -152.717681 
L 454.16834 -115.447093 
L 449.230287 -152.717681 
L 444.292234 -59.54121 
L 439.354181 -115.447093 
L 434.416128 -96.811799 
L 429.478075 -96.811799 
L 424.540022 -96.811799 
L 419.601969 -152.717681 
L 414.663915 -78.176505 
L 409.725862 -78.176505 
L 404.787809 -134.082387 
L 399.849756 -152.717681 
L 394.911703 -59.54121 
L 389.97365 -78.176505 
L 385.035597 -59.54121 
L 380.097544 -59.54121 
L 375.159491 -59.54121 
L 370.221438 -134.082387 
L 365.283385 -59.54121 
L 360.345331 -59.54121 
L 355.407278 -59.54121 
L 350.469225 -96.811799 
L 345.531172 -59.54121 
L 340.593119 -78.176505 
L 335.655066 -59.54121 
L 330.717013 -59.54121 
L 325.77896 -59.54121 
L 320.840907 -78.176505 
L 310.9648 -59.54121 
L 306.026747 -59.54121 
L 301.088694 -78.176505 
L 296.150641 -59.54121 
L 291.212588 -78.176505 
L 286.274535 -78.176505 
L 276.398429 -96.811799 
L 271.460376 -115.447093 
L 241.832057 -59.54121 
L 227.017898 -78.176505 
L 217.141792 -115.447093 
L 187.513473 -78.176505 
L 128.256836 -59.54121 
L 93.690464 -78.176505 
L 88.752411 -78.176505 
L 44.309933 -96.811799 
L 24.557721 -59.54121 
z
" style="stroke: #000000; stroke-width: 0.5"/>
    </defs>
    <g clip-path="url(#p0f11212530)">
     <use xlink:href="#m28b5f20bf4" x="0" y="399.38121" style="fill: #4c9199; stroke: #000000; stroke-width: 0.5"/>
    </g>
   </g>
   <g id="FillBetweenPolyCollection_5">
    <defs>
     <path id="mc1ded6db36" d="M 24.557721 -78.176505 
L 24.557721 -59.54121 
L 44.309933 -96.811799 
L 88.752411 -78.176505 
L 93.690464 -78.176505 
L 128.256836 -59.54121 
L 187.513473 -78.176505 
L 217.141792 -115.447093 
L 227.017898 -78.176505 
L 241.832057 -59.54121 
L 271.460376 -115.447093 
L 276.398429 -96.811799 
L 286.274535 -78.176505 
L 291.212588 -78.176505 
L 296.150641 -59.54121 
L 301.088694 -78.176505 
L 306.026747 -59.54121 
L 310.9648 -59.54121 
L 320.840907 -78.176505 
L 325.77896 -59.54121 
L 330.717013 -59.54121 
L 335.655066 -59.54121 
L 340.593119 -78.176505 
L 345.531172 -59.54121 
L 350.469225 -96.811799 
L 355.407278 -59.54121 
L 360.345331 -59.54121 
L 365.283385 -59.54121 
L 370.221438 -134.082387 
L 375.159491 -59.54121 
L 380.097544 -59.54121 
L 385.035597 -59.54121 
L 389.97365 -78.176505 
L 394.911703 -59.54121 
L 399.849756 -152.717681 
L 404.787809 -134.082387 
L 409.725862 -78.176505 
L 414.663915 -78.176505 
L 419.601969 -152.717681 
L 424.540022 -96.811799 
L 429.478075 -96.811799 
L 434.416128 -96.811799 
L 439.354181 -115.447093 
L 444.292234 -59.54121 
L 449.230287 -152.717681 
L 454.16834 -115.447093 
L 459.106393 -152.717681 
L 464.044446 -208.623563 
L 468.9825 -171.352975 
L 473.920553 -96.811799 
L 478.858606 -134.082387 
L 483.796659 -152.717681 
L 488.734712 -115.447093 
L 493.672765 -152.717681 
L 498.610818 -96.811799 
L 503.548871 -171.352975 
L 508.486924 -134.082387 
L 513.424977 -59.54121 
L 513.424977 -96.811799 
L 513.424977 -96.811799 
L 508.486924 -189.988269 
L 503.548871 -208.623563 
L 498.610818 -189.988269 
L 493.672765 -376.34121 
L 488.734712 -301.800034 
L 483.796659 -301.800034 
L 478.858606 -320.435328 
L 473.920553 -171.352975 
L 468.9825 -283.16474 
L 464.044446 -245.894152 
L 459.106393 -227.258857 
L 454.16834 -301.800034 
L 449.230287 -227.258857 
L 444.292234 -115.447093 
L 439.354181 -227.258857 
L 434.416128 -189.988269 
L 429.478075 -208.623563 
L 424.540022 -227.258857 
L 419.601969 -264.529446 
L 414.663915 -134.082387 
L 409.725862 -227.258857 
L 404.787809 -245.894152 
L 399.849756 -227.258857 
L 394.911703 -96.811799 
L 389.97365 -152.717681 
L 385.035597 -78.176505 
L 380.097544 -96.811799 
L 375.159491 -115.447093 
L 370.221438 -171.352975 
L 365.283385 -78.176505 
L 360.345331 -115.447093 
L 355.407278 -78.176505 
L 350.469225 -152.717681 
L 345.531172 -134.082387 
L 340.593119 -152.717681 
L 335.655066 -134.082387 
L 330.717013 -78.176505 
L 325.77896 -96.811799 
L 320.840907 -78.176505 
L 310.9648 -115.447093 
L 306.026747 -78.176505 
L 301.088694 -96.811799 
L 296.150641 -78.176505 
L 291.212588 -96.811799 
L 286.274535 -78.176505 
L 276.398429 -96.811799 
L 271.460376 -115.447093 
L 241.832057 -78.176505 
L 227.017898 -96.811799 
L 217.141792 -189.988269 
L 187.513473 -78.176505 
L 128.256836 -78.176505 
L 93.690464 -96.811799 
L 88.752411 -78.176505 
L 44.309933 -96.811799 
L 24.557721 -78.176505 
z
" style="stroke: #000000; stroke-width: 0.5"/>
    </defs>
    <g clip-path="url(#p0f11212530)">
     <use xlink:href="#mc1ded6db36" x="0" y="399.38121" style="fill: #207681; stroke: #000000; stroke-width: 0.5"/>
    </g>
   </g>
   <g id="matplotlib.axis_1">
    <g id="xtick_1">
     <g id="line2d_1">
      <defs>
       <path id="mf3d25fd46a" d="M 0 0 
L 0 8 
" style="stroke: #000000; stroke-width: 0.8"/>
      </defs>
      <g>
       <use xlink:href="#mf3d25fd46a" x="19.619668" y="339.84" style="stroke: #000000; stroke-width: 0.8"/>
      </g>
     </g>
     <g id="text_1">
      <!-- 1925 -->
      <g transform="translate(12.572907 374.708774) rotate(-45) scale(0.1 -0.1)">
       <defs>
        <path id="DejaVuSans-31" d="M 794 531 
L 1825 531 
L 1825 4091 
L 703 3866 
L 703 4441 
L 1819 4666 
L 2450 4666 
L 2450 531 
L 3481 531 
L 3481 0 
L 794 0 
L 794 531 
z
" transform="scale(0.015625)"/>
        <path id="DejaVuSans-39" d="M 703 97 
L 703 672 
Q 941 559 1184 500 
Q 1428 441 1663 441 
Q 2288 441 2617 861 
Q 2947 1281 2994 2138 
Q 2813 1869 2534 1725 
Q 2256 1581 1919 1581 
Q 1219 1581 811 2004 
Q 403 2428 403 3163 
Q 403 3881 828 4315 
Q 1253 4750 1959 4750 
Q 2769 4750 3195 4129 
Q 3622 3509 3622 2328 
Q 3622 1225 3098 567 
Q 2575 -91 1691 -91 
Q 1453 -91 1209 -44 
Q 966 3 703 97 
z
M 1959 2075 
Q 2384 2075 2632 2365 
Q 2881 2656 2881 3163 
Q 2881 3666 2632 3958 
Q 2384 4250 1959 4250 
Q 1534 4250 1286 3958 
Q 1038 3666 1038 3163 
Q 1038 2656 1286 2365 
Q 1534 2075 1959 2075 
z
" transform="scale(0.015625)"/>
        <path id="DejaVuSans-32" d="M 1228 531 
L 3431 531 
L 3431 0 
L 469 0 
L 469 531 
Q 828 903 1448 1529 
Q 2069 2156 2228 2338 
Q 2531 2678 2651 2914 
Q 2772 3150 2772 3378 
Q 2772 3750 2511 3984 
Q 2250 4219 1831 4219 
Q 1534 4219 1204 4116 
Q 875 4013 500 3803 
L 500 4441 
Q 881 4594 1212 4672 
Q 1544 4750 1819 4750 
Q 2544 4750 2975 4387 
Q 3406 4025 3406 3419 
Q 3406 3131 3298 2873 
Q 3191 2616 2906 2266 
Q 2828 2175 2409 1742 
Q 1991 1309 1228 531 
z
" transform="scale(0.015625)"/>
        <path id="DejaVuSans-35" d="M 691 4666 
L 3169 4666 
L 3169 4134 
L 1269 4134 
L 1269 2991 
Q 1406 3038 1543 3061 
Q 1681 3084 1819 3084 
Q 2600 3084 3056 2656 
Q 3513 2228 3513 1497 
Q 3513 744 3044 326 
Q 2575 -91 1722 -91 
Q 1428 -91 1123 -41 
Q 819 9 494 109 
L 494 744 
Q 775 591 1075 516 
Q 1375 441 1709 441 
Q 2250 441 2565 725 
Q 2881 1009 2881 1497 
Q 2881 1984 2565 2268 
Q 2250 2553 1709 2553 
Q 1456 2553 1204 2497 
Q 953 2441 691 2322 
L 691 4666 
z
" transform="scale(0.015625)"/>
       </defs>
       <use xlink:href="#DejaVuSans-31"/>
       <use xlink:href="#DejaVuSans-39" transform="translate(63.623047 0)"/>
       <use xlink:href="#DejaVuSans-32" transform="translate(127.246094 0)"/>
       <use xlink:href="#DejaVuSans-35" transform="translate(190.869141 0)"/>
      </g>
     </g>
    </g>
    <g id="xtick_2">
     <g id="line2d_2">
      <g>
       <use xlink:href="#mf3d25fd46a" x="69.000199" y="339.84" style="stroke: #000000; stroke-width: 0.8"/>
      </g>
     </g>
     <g id="text_2">
      <!-- 1935 -->
      <g transform="translate(61.953438 374.708774) rotate(-45) scale(0.1 -0.1)">
       <defs>
        <path id="DejaVuSans-33" d="M 2597 2516 
Q 3050 2419 3304 2112 
Q 3559 1806 3559 1356 
Q 3559 666 3084 287 
Q 2609 -91 1734 -91 
Q 1441 -91 1130 -33 
Q 819 25 488 141 
L 488 750 
Q 750 597 1062 519 
Q 1375 441 1716 441 
Q 2309 441 2620 675 
Q 2931 909 2931 1356 
Q 2931 1769 2642 2001 
Q 2353 2234 1838 2234 
L 1294 2234 
L 1294 2753 
L 1863 2753 
Q 2328 2753 2575 2939 
Q 2822 3125 2822 3475 
Q 2822 3834 2567 4026 
Q 2313 4219 1838 4219 
Q 1578 4219 1281 4162 
Q 984 4106 628 3988 
L 628 4550 
Q 988 4650 1302 4700 
Q 1616 4750 1894 4750 
Q 2613 4750 3031 4423 
Q 3450 4097 3450 3541 
Q 3450 3153 3228 2886 
Q 3006 2619 2597 2516 
z
" transform="scale(0.015625)"/>
       </defs>
       <use xlink:href="#DejaVuSans-31"/>
       <use xlink:href="#DejaVuSans-39" transform="translate(63.623047 0)"/>
       <use xlink:href="#DejaVuSans-33" transform="translate(127.246094 0)"/>
       <use xlink:href="#DejaVuSans-35" transform="translate(190.869141 0)"/>
      </g>
     </g>
    </g>
    <g id="xtick_3">
     <g id="line2d_3">
      <g>
       <use xlink:href="#mf3d25fd46a" x="118.38073" y="339.84" style="stroke: #000000; stroke-width: 0.8"/>
      </g>
     </g>
     <g id="text_3">
      <!-- 1945 -->
      <g transform="translate(111.333969 374.708774) rotate(-45) scale(0.1 -0.1)">
       <defs>
        <path id="DejaVuSans-34" d="M 2419 4116 
L 825 1625 
L 2419 1625 
L 2419 4116 
z
M 2253 4666 
L 3047 4666 
L 3047 1625 
L 3713 1625 
L 3713 1100 
L 3047 1100 
L 3047 0 
L 2419 0 
L 2419 1100 
L 313 1100 
L 313 1709 
L 2253 4666 
z
" transform="scale(0.015625)"/>
       </defs>
       <use xlink:href="#DejaVuSans-31"/>
       <use xlink:href="#DejaVuSans-39" transform="translate(63.623047 0)"/>
       <use xlink:href="#DejaVuSans-34" transform="translate(127.246094 0)"/>
       <use xlink:href="#DejaVuSans-35" transform="translate(190.869141 0)"/>
      </g>
     </g>
    </g>
    <g id="xtick_4">
     <g id="line2d_4">
      <g>
       <use xlink:href="#mf3d25fd46a" x="167.761261" y="339.84" style="stroke: #000000; stroke-width: 0.8"/>
      </g>
     </g>
     <g id="text_4">
      <!-- 1955 -->
      <g transform="translate(160.7145 374.708774) rotate(-45) scale(0.1 -0.1)">
       <use xlink:href="#DejaVuSans-31"/>
       <use xlink:href="#DejaVuSans-39" transform="translate(63.623047 0)"/>
       <use xlink:href="#DejaVuSans-35" transform="translate(127.246094 0)"/>
       <use xlink:href="#DejaVuSans-35" transform="translate(190.869141 0)"/>
      </g>
     </g>
    </g>
    <g id="xtick_5">
     <g id="line2d_5">
      <g>
       <use xlink:href="#mf3d25fd46a" x="217.141792" y="339.84" style="stroke: #000000; stroke-width: 0.8"/>
      </g>
     </g>
     <g id="text_5">
      <!-- 1965 -->
      <g transform="translate(210.095031 374.708774) rotate(-45) scale(0.1 -0.1)">
       <defs>
        <path id="DejaVuSans-36" d="M 2113 2584 
Q 1688 2584 1439 2293 
Q 1191 2003 1191 1497 
Q 1191 994 1439 701 
Q 1688 409 2113 409 
Q 2538 409 2786 701 
Q 3034 994 3034 1497 
Q 3034 2003 2786 2293 
Q 2538 2584 2113 2584 
z
M 3366 4563 
L 3366 3988 
Q 3128 4100 2886 4159 
Q 2644 4219 2406 4219 
Q 1781 4219 1451 3797 
Q 1122 3375 1075 2522 
Q 1259 2794 1537 2939 
Q 1816 3084 2150 3084 
Q 2853 3084 3261 2657 
Q 3669 2231 3669 1497 
Q 3669 778 3244 343 
Q 2819 -91 2113 -91 
Q 1303 -91 875 529 
Q 447 1150 447 2328 
Q 447 3434 972 4092 
Q 1497 4750 2381 4750 
Q 2619 4750 2861 4703 
Q 3103 4656 3366 4563 
z
" transform="scale(0.015625)"/>
       </defs>
       <use xlink:href="#DejaVuSans-31"/>
       <use xlink:href="#DejaVuSans-39" transform="translate(63.623047 0)"/>
       <use xlink:href="#DejaVuSans-36" transform="translate(127.246094 0)"/>
       <use xlink:href="#DejaVuSans-35" transform="translate(190.869141 0)"/>
      </g>
     </g>
    </g>
    <g id="xtick_6">
     <g id="line2d_6">
      <g>
       <use xlink:href="#mf3d25fd46a" x="266.522323" y="339.84" style="stroke: #000000; stroke-width: 0.8"/>
      </g>
     </g>
     <g id="text_6">
      <!-- 1975 -->
      <g transform="translate(259.475562 374.708774) rotate(-45) scale(0.1 -0.1)">
       <defs>
        <path id="DejaVuSans-37" d="M 525 4666 
L 3525 4666 
L 3525 4397 
L 1831 0 
L 1172 0 
L 2766 4134 
L 525 4134 
L 525 4666 
z
" transform="scale(0.015625)"/>
       </defs>
       <use xlink:href="#DejaVuSans-31"/>
       <use xlink:href="#DejaVuSans-39" transform="translate(63.623047 0)"/>
       <use xlink:href="#DejaVuSans-37" transform="translate(127.246094 0)"/>
       <use xlink:href="#DejaVuSans-35" transform="translate(190.869141 0)"/>
      </g>
     </g>
    </g>
    <g id="xtick_7">
     <g id="line2d_7">
      <g>
       <use xlink:href="#mf3d25fd46a" x="315.902854" y="339.84" style="stroke: #000000; stroke-width: 0.8"/>
      </g>
     </g>
     <g id="text_7">
      <!-- 1985 -->
      <g transform="translate(308.856093 374.708774) rotate(-45) scale(0.1 -0.1)">
       <defs>
        <path id="DejaVuSans-38" d="M 2034 2216 
Q 1584 2216 1326 1975 
Q 1069 1734 1069 1313 
Q 1069 891 1326 650 
Q 1584 409 2034 409 
Q 2484 409 2743 651 
Q 3003 894 3003 1313 
Q 3003 1734 2745 1975 
Q 2488 2216 2034 2216 
z
M 1403 2484 
Q 997 2584 770 2862 
Q 544 3141 544 3541 
Q 544 4100 942 4425 
Q 1341 4750 2034 4750 
Q 2731 4750 3128 4425 
Q 3525 4100 3525 3541 
Q 3525 3141 3298 2862 
Q 3072 2584 2669 2484 
Q 3125 2378 3379 2068 
Q 3634 1759 3634 1313 
Q 3634 634 3220 271 
Q 2806 -91 2034 -91 
Q 1263 -91 848 271 
Q 434 634 434 1313 
Q 434 1759 690 2068 
Q 947 2378 1403 2484 
z
M 1172 3481 
Q 1172 3119 1398 2916 
Q 1625 2713 2034 2713 
Q 2441 2713 2670 2916 
Q 2900 3119 2900 3481 
Q 2900 3844 2670 4047 
Q 2441 4250 2034 4250 
Q 1625 4250 1398 4047 
Q 1172 3844 1172 3481 
z
" transform="scale(0.015625)"/>
       </defs>
       <use xlink:href="#DejaVuSans-31"/>
       <use xlink:href="#DejaVuSans-39" transform="translate(63.623047 0)"/>
       <use xlink:href="#DejaVuSans-38" transform="translate(127.246094 0)"/>
       <use xlink:href="#DejaVuSans-35" transform="translate(190.869141 0)"/>
      </g>
     </g>
    </g>
    <g id="xtick_8">
     <g id="line2d_8">
      <g>
       <use xlink:href="#mf3d25fd46a" x="365.283385" y="339.84" style="stroke: #000000; stroke-width: 0.8"/>
      </g>
     </g>
     <g id="text_8">
      <!-- 1995 -->
      <g transform="translate(358.236623 374.708774) rotate(-45) scale(0.1 -0.1)">
       <use xlink:href="#DejaVuSans-31"/>
       <use xlink:href="#DejaVuSans-39" transform="translate(63.623047 0)"/>
       <use xlink:href="#DejaVuSans-39" transform="translate(127.246094 0)"/>
       <use xlink:href="#DejaVuSans-35" transform="translate(190.869141 0)"/>
      </g>
     </g>
    </g>
    <g id="xtick_9">
     <g id="line2d_9">
      <g>
       <use xlink:href="#mf3d25fd46a" x="414.663915" y="339.84" style="stroke: #000000; stroke-width: 0.8"/>
      </g>
     </g>
     <g id="text_9">
      <!-- 2005 -->
      <g transform="translate(407.617154 374.708774) rotate(-45) scale(0.1 -0.1)">
       <defs>
        <path id="DejaVuSans-30" d="M 2034 4250 
Q 1547 4250 1301 3770 
Q 1056 3291 1056 2328 
Q 1056 1369 1301 889 
Q 1547 409 2034 409 
Q 2525 409 2770 889 
Q 3016 1369 3016 2328 
Q 3016 3291 2770 3770 
Q 2525 4250 2034 4250 
z
M 2034 4750 
Q 2819 4750 3233 4129 
Q 3647 3509 3647 2328 
Q 3647 1150 3233 529 
Q 2819 -91 2034 -91 
Q 1250 -91 836 529 
Q 422 1150 422 2328 
Q 422 3509 836 4129 
Q 1250 4750 2034 4750 
z
" transform="scale(0.015625)"/>
       </defs>
       <use xlink:href="#DejaVuSans-32"/>
       <use xlink:href="#DejaVuSans-30" transform="translate(63.623047 0)"/>
       <use xlink:href="#DejaVuSans-30" transform="translate(127.246094 0)"/>
       <use xlink:href="#DejaVuSans-35" transform="translate(190.869141 0)"/>
      </g>
     </g>
    </g>
    <g id="xtick_10">
     <g id="line2d_10">
      <g>
       <use xlink:href="#mf3d25fd46a" x="464.044446" y="339.84" style="stroke: #000000; stroke-width: 0.8"/>
      </g>
     </g>
     <g id="text_10">
      <!-- 2015 -->
      <g transform="translate(456.997685 374.708774) rotate(-45) scale(0.1 -0.1)">
       <use xlink:href="#DejaVuSans-32"/>
       <use xlink:href="#DejaVuSans-30" transform="translate(63.623047 0)"/>
       <use xlink:href="#DejaVuSans-31" transform="translate(127.246094 0)"/>
       <use xlink:href="#DejaVuSans-35" transform="translate(190.869141 0)"/>
      </g>
     </g>
    </g>
    <g id="xtick_11">
     <g id="line2d_11">
      <g>
       <use xlink:href="#mf3d25fd46a" x="513.424977" y="339.84" style="stroke: #000000; stroke-width: 0.8"/>
      </g>
     </g>
     <g id="text_11">
      <!-- 2025 -->
      <g transform="translate(506.378216 374.708774) rotate(-45) scale(0.1 -0.1)">
       <use xlink:href="#DejaVuSans-32"/>
       <use xlink:href="#DejaVuSans-30" transform="translate(63.623047 0)"/>
       <use xlink:href="#DejaVuSans-32" transform="translate(127.246094 0)"/>
       <use xlink:href="#DejaVuSans-35" transform="translate(190.869141 0)"/>
      </g>
     </g>
    </g>
    <g id="xtick_12">
     <g id="line2d_12">
      <defs>
       <path id="mf84ce4a4d5" d="M 0 0 
L 0 4 
" style="stroke: #000000; stroke-width: 0.6"/>
      </defs>
      <g>
       <use xlink:href="#mf84ce4a4d5" x="44.309933" y="339.84" style="stroke: #000000; stroke-width: 0.6"/>
      </g>
     </g>
    </g>
    <g id="xtick_13">
     <g id="line2d_13">
      <g>
       <use xlink:href="#mf84ce4a4d5" x="93.690464" y="339.84" style="stroke: #000000; stroke-width: 0.6"/>
      </g>
     </g>
    </g>
    <g id="xtick_14">
     <g id="line2d_14">
      <g>
       <use xlink:href="#mf84ce4a4d5" x="143.070995" y="339.84" style="stroke: #000000; stroke-width: 0.6"/>
      </g>
     </g>
    </g>
    <g id="xtick_15">
     <g id="line2d_15">
      <g>
       <use xlink:href="#mf84ce4a4d5" x="192.451526" y="339.84" style="stroke: #000000; stroke-width: 0.6"/>
      </g>
     </g>
    </g>
    <g id="xtick_16">
     <g id="line2d_16">
      <g>
       <use xlink:href="#mf84ce4a4d5" x="241.832057" y="339.84" style="stroke: #000000; stroke-width: 0.6"/>
      </g>
     </g>
    </g>
    <g id="xtick_17">
     <g id="line2d_17">
      <g>
       <use xlink:href="#mf84ce4a4d5" x="291.212588" y="339.84" style="stroke: #000000; stroke-width: 0.6"/>
      </g>
     </g>
    </g>
    <g id="xtick_18">
     <g id="line2d_18">
      <g>
       <use xlink:href="#mf84ce4a4d5" x="340.593119" y="339.84" style="stroke: #000000; stroke-width: 0.6"/>
      </g>
     </g>
    </g>
    <g id="xtick_19">
     <g id="line2d_19">
      <g>
       <use xlink:href="#mf84ce4a4d5" x="389.97365" y="339.84" style="stroke: #000000; stroke-width: 0.6"/>
      </g>
     </g>
    </g>
    <g id="xtick_20">
     <g id="line2d_20">
      <g>
       <use xlink:href="#mf84ce4a4d5" x="439.354181" y="339.84" style="stroke: #000000; stroke-width: 0.6"/>
      </g>
     </g>
    </g>
    <g id="xtick_21">
     <g id="line2d_21">
      <g>
       <use xlink:href="#mf84ce4a4d5" x="488.734712" y="339.84" style="stroke: #000000; stroke-width: 0.6"/>
      </g>
     </g>
    </g>
    <g id="text_12">
     <!-- Year Created -->
     <g transform="translate(259.760293 389.29746) scale(0.12 -0.12)">
      <defs>
       <path id="OpenSans-Bold-59" d="M 1997 2688 
L 2950 4569 
L 3994 4569 
L 2478 1778 
L 2478 0 
L 1516 0 
L 1516 1747 
L 0 4569 
L 1050 4569 
L 1997 2688 
z
" transform="scale(0.015625)"/>
       <path id="OpenSans-Bold-65" d="M 1941 3559 
Q 2425 3559 2775 3373 
Q 3125 3188 3315 2834 
Q 3506 2481 3506 1972 
L 3506 1509 
L 1253 1509 
Q 1269 1106 1495 876 
Q 1722 647 2125 647 
Q 2459 647 2737 715 
Q 3016 784 3309 922 
L 3309 184 
Q 3050 56 2767 -3 
Q 2484 -63 2081 -63 
Q 1556 -63 1151 131 
Q 747 325 517 722 
Q 288 1119 288 1722 
Q 288 2334 495 2742 
Q 703 3150 1075 3354 
Q 1447 3559 1941 3559 
z
M 1947 2881 
Q 1669 2881 1486 2703 
Q 1303 2525 1275 2144 
L 2613 2144 
Q 2609 2356 2536 2522 
Q 2463 2688 2317 2784 
Q 2172 2881 1947 2881 
z
" transform="scale(0.015625)"/>
       <path id="OpenSans-Bold-61" d="M 1931 3566 
Q 2634 3566 3009 3259 
Q 3384 2953 3384 2328 
L 3384 0 
L 2719 0 
L 2534 475 
L 2509 475 
Q 2359 288 2203 169 
Q 2047 50 1844 -6 
Q 1641 -63 1350 -63 
Q 1041 -63 795 56 
Q 550 175 409 420 
Q 269 666 269 1044 
Q 269 1600 659 1864 
Q 1050 2128 1831 2156 
L 2438 2175 
L 2438 2328 
Q 2438 2603 2294 2731 
Q 2150 2859 1894 2859 
Q 1641 2859 1397 2787 
Q 1153 2716 909 2606 
L 594 3250 
Q 872 3397 1217 3481 
Q 1563 3566 1931 3566 
z
M 2438 1619 
L 2069 1606 
Q 1606 1594 1426 1441 
Q 1247 1288 1247 1038 
Q 1247 819 1375 726 
Q 1503 634 1709 634 
Q 2016 634 2227 815 
Q 2438 997 2438 1331 
L 2438 1619 
z
" transform="scale(0.015625)"/>
       <path id="OpenSans-Bold-72" d="M 2450 3559 
Q 2522 3559 2617 3551 
Q 2713 3544 2772 3531 
L 2700 2638 
Q 2653 2653 2567 2661 
Q 2481 2669 2419 2669 
Q 2234 2669 2061 2622 
Q 1888 2575 1750 2470 
Q 1613 2366 1533 2195 
Q 1453 2025 1453 1778 
L 1453 0 
L 500 0 
L 500 3494 
L 1222 3494 
L 1363 2906 
L 1409 2906 
Q 1513 3084 1667 3232 
Q 1822 3381 2020 3470 
Q 2219 3559 2450 3559 
z
" transform="scale(0.015625)"/>
       <path id="OpenSans-Bold-20" transform="scale(0.015625)"/>
       <path id="OpenSans-Bold-43" d="M 2516 3828 
Q 2238 3828 2023 3720 
Q 1809 3613 1664 3409 
Q 1519 3206 1444 2918 
Q 1369 2631 1369 2272 
Q 1369 1788 1489 1445 
Q 1609 1103 1862 923 
Q 2116 744 2516 744 
Q 2794 744 3073 806 
Q 3353 869 3681 984 
L 3681 172 
Q 3378 47 3084 -8 
Q 2791 -63 2425 -63 
Q 1719 -63 1264 229 
Q 809 522 590 1048 
Q 372 1575 372 2278 
Q 372 2797 512 3228 
Q 653 3659 925 3975 
Q 1197 4291 1597 4462 
Q 1997 4634 2516 4634 
Q 2856 4634 3198 4548 
Q 3541 4463 3853 4313 
L 3541 3525 
Q 3284 3647 3025 3737 
Q 2766 3828 2516 3828 
z
" transform="scale(0.015625)"/>
       <path id="OpenSans-Bold-74" d="M 1972 697 
Q 2128 697 2276 728 
Q 2425 759 2572 806 
L 2572 97 
Q 2419 28 2192 -17 
Q 1966 -63 1697 -63 
Q 1384 -63 1136 39 
Q 888 141 745 392 
Q 603 644 603 1094 
L 603 2778 
L 147 2778 
L 147 3181 
L 672 3500 
L 947 4238 
L 1556 4238 
L 1556 3494 
L 2534 3494 
L 2534 2778 
L 1556 2778 
L 1556 1094 
Q 1556 894 1670 795 
Q 1784 697 1972 697 
z
" transform="scale(0.015625)"/>
       <path id="OpenSans-Bold-64" d="M 1606 -63 
Q 1022 -63 655 395 
Q 288 853 288 1741 
Q 288 2638 659 3098 
Q 1031 3559 1631 3559 
Q 1881 3559 2072 3490 
Q 2263 3422 2402 3306 
Q 2541 3191 2638 3047 
L 2669 3047 
Q 2650 3147 2623 3342 
Q 2597 3538 2597 3744 
L 2597 4863 
L 3553 4863 
L 3553 0 
L 2822 0 
L 2638 453 
L 2597 453 
Q 2506 309 2370 192 
Q 2234 75 2046 6 
Q 1859 -63 1606 -63 
z
M 1941 697 
Q 2331 697 2492 930 
Q 2653 1163 2663 1631 
L 2663 1734 
Q 2663 2244 2506 2514 
Q 2350 2784 1925 2784 
Q 1609 2784 1431 2512 
Q 1253 2241 1253 1728 
Q 1253 1216 1433 956 
Q 1613 697 1941 697 
z
" transform="scale(0.015625)"/>
      </defs>
      <use xlink:href="#OpenSans-Bold-59"/>
      <use xlink:href="#OpenSans-Bold-65" transform="translate(62.402344 0)"/>
      <use xlink:href="#OpenSans-Bold-61" transform="translate(121.484375 0)"/>
      <use xlink:href="#OpenSans-Bold-72" transform="translate(181.884766 0)"/>
      <use xlink:href="#OpenSans-Bold-20" transform="translate(227.294922 0)"/>
      <use xlink:href="#OpenSans-Bold-43" transform="translate(253.271484 0)"/>
      <use xlink:href="#OpenSans-Bold-72" transform="translate(316.992188 0)"/>
      <use xlink:href="#OpenSans-Bold-65" transform="translate(362.402344 0)"/>
      <use xlink:href="#OpenSans-Bold-61" transform="translate(421.484375 0)"/>
      <use xlink:href="#OpenSans-Bold-74" transform="translate(481.884766 0)"/>
      <use xlink:href="#OpenSans-Bold-65" transform="translate(525.292969 0)"/>
      <use xlink:href="#OpenSans-Bold-64" transform="translate(584.375 0)"/>
     </g>
    </g>
   </g>
   <g id="matplotlib.axis_2">
    <g id="ytick_1">
     <g id="line2d_22"/>
     <g id="text_13">
      <!-- 0 -->
      <g transform="translate(581.119668 343.639219) scale(0.1 -0.1)">
       <use xlink:href="#DejaVuSans-30"/>
      </g>
     </g>
    </g>
    <g id="ytick_2">
     <g id="line2d_23"/>
     <g id="text_14">
      <!-- 2 -->
      <g transform="translate(581.119668 306.368631) scale(0.1 -0.1)">
       <use xlink:href="#DejaVuSans-32"/>
      </g>
     </g>
    </g>
    <g id="ytick_3">
     <g id="line2d_24"/>
     <g id="text_15">
      <!-- 4 -->
      <g transform="translate(581.119668 269.098042) scale(0.1 -0.1)">
       <use xlink:href="#DejaVuSans-34"/>
      </g>
     </g>
    </g>
    <g id="ytick_4">
     <g id="line2d_25"/>
     <g id="text_16">
      <!-- 6 -->
      <g transform="translate(581.119668 231.827454) scale(0.1 -0.1)">
       <use xlink:href="#DejaVuSans-36"/>
      </g>
     </g>
    </g>
    <g id="ytick_5">
     <g id="line2d_26"/>
     <g id="text_17">
      <!-- 8 -->
      <g transform="translate(581.119668 194.556866) scale(0.1 -0.1)">
       <use xlink:href="#DejaVuSans-38"/>
      </g>
     </g>
    </g>
    <g id="ytick_6">
     <g id="line2d_27"/>
     <g id="text_18">
      <!-- 10 -->
      <g transform="translate(581.119668 157.286278) scale(0.1 -0.1)">
       <use xlink:href="#DejaVuSans-31"/>
       <use xlink:href="#DejaVuSans-30" transform="translate(63.623047 0)"/>
      </g>
     </g>
    </g>
    <g id="ytick_7">
     <g id="line2d_28"/>
     <g id="text_19">
      <!-- 12 -->
      <g transform="translate(581.119668 120.015689) scale(0.1 -0.1)">
       <use xlink:href="#DejaVuSans-31"/>
       <use xlink:href="#DejaVuSans-32" transform="translate(63.623047 0)"/>
      </g>
     </g>
    </g>
    <g id="ytick_8">
     <g id="line2d_29"/>
     <g id="text_20">
      <!-- 14 -->
      <g transform="translate(581.119668 82.745101) scale(0.1 -0.1)">
       <use xlink:href="#DejaVuSans-31"/>
       <use xlink:href="#DejaVuSans-34" transform="translate(63.623047 0)"/>
      </g>
     </g>
    </g>
    <g id="ytick_9">
     <g id="line2d_30"/>
     <g id="text_21">
      <!-- 16 -->
      <g transform="translate(581.119668 45.474513) scale(0.1 -0.1)">
       <use xlink:href="#DejaVuSans-31"/>
       <use xlink:href="#DejaVuSans-36" transform="translate(63.623047 0)"/>
      </g>
     </g>
    </g>
    <g id="text_22">
     <!-- Number of Artworks -->
     <g transform="translate(606.962793 235.201875) rotate(-90) scale(0.12 -0.12)">
      <defs>
       <path id="OpenSans-Bold-4e" d="M 4628 0 
L 3397 0 
L 1409 3456 
L 1381 3456 
Q 1394 3241 1403 3022 
Q 1413 2803 1422 2586 
Q 1431 2369 1441 2150 
L 1441 0 
L 575 0 
L 575 4569 
L 1797 4569 
L 3781 1147 
L 3803 1147 
Q 3797 1359 3787 1568 
Q 3778 1778 3770 1987 
Q 3763 2197 3756 2406 
L 3756 4569 
L 4628 4569 
L 4628 0 
z
" transform="scale(0.015625)"/>
       <path id="OpenSans-Bold-75" d="M 3706 3494 
L 3706 0 
L 2975 0 
L 2847 447 
L 2797 447 
Q 2684 269 2515 156 
Q 2347 44 2144 -9 
Q 1941 -63 1722 -63 
Q 1347 -63 1069 70 
Q 791 203 636 484 
Q 481 766 481 1216 
L 481 3494 
L 1434 3494 
L 1434 1453 
Q 1434 1078 1568 887 
Q 1703 697 1997 697 
Q 2288 697 2453 830 
Q 2619 963 2686 1220 
Q 2753 1478 2753 1850 
L 2753 3494 
L 3706 3494 
z
" transform="scale(0.015625)"/>
       <path id="OpenSans-Bold-6d" d="M 4603 3559 
Q 5197 3559 5501 3254 
Q 5806 2950 5806 2278 
L 5806 0 
L 4850 0 
L 4850 2041 
Q 4850 2416 4722 2606 
Q 4594 2797 4325 2797 
Q 3947 2797 3787 2526 
Q 3628 2256 3628 1753 
L 3628 0 
L 2675 0 
L 2675 2041 
Q 2675 2291 2619 2459 
Q 2563 2628 2447 2712 
Q 2331 2797 2150 2797 
Q 1884 2797 1732 2664 
Q 1581 2531 1517 2273 
Q 1453 2016 1453 1644 
L 1453 0 
L 500 0 
L 500 3494 
L 1228 3494 
L 1356 3047 
L 1409 3047 
Q 1516 3228 1677 3340 
Q 1838 3453 2031 3506 
Q 2225 3559 2425 3559 
Q 2809 3559 3076 3434 
Q 3344 3309 3488 3047 
L 3572 3047 
Q 3728 3316 4014 3437 
Q 4300 3559 4603 3559 
z
" transform="scale(0.015625)"/>
       <path id="OpenSans-Bold-62" d="M 1453 4863 
L 1453 3731 
Q 1453 3534 1442 3340 
Q 1431 3147 1416 3041 
L 1453 3041 
Q 1591 3256 1828 3407 
Q 2066 3559 2444 3559 
Q 3031 3559 3397 3100 
Q 3763 2641 3763 1753 
Q 3763 1156 3594 751 
Q 3425 347 3122 142 
Q 2819 -63 2419 -63 
Q 2034 -63 1812 75 
Q 1591 213 1453 384 
L 1388 384 
L 1228 0 
L 500 0 
L 500 4863 
L 1453 4863 
z
M 2138 2797 
Q 1888 2797 1741 2694 
Q 1594 2591 1526 2384 
Q 1459 2178 1453 1863 
L 1453 1759 
Q 1453 1250 1603 979 
Q 1753 709 2150 709 
Q 2444 709 2617 981 
Q 2791 1253 2791 1766 
Q 2791 2278 2616 2537 
Q 2441 2797 2138 2797 
z
" transform="scale(0.015625)"/>
       <path id="OpenSans-Bold-6f" d="M 3675 1753 
Q 3675 1316 3558 978 
Q 3441 641 3217 408 
Q 2994 175 2680 56 
Q 2366 -63 1972 -63 
Q 1603 -63 1295 56 
Q 988 175 761 408 
Q 534 641 411 978 
Q 288 1316 288 1753 
Q 288 2334 494 2737 
Q 700 3141 1081 3350 
Q 1463 3559 1991 3559 
Q 2481 3559 2861 3350 
Q 3241 3141 3458 2737 
Q 3675 2334 3675 1753 
z
M 1259 1753 
Q 1259 1409 1334 1175 
Q 1409 941 1568 822 
Q 1728 703 1984 703 
Q 2238 703 2395 822 
Q 2553 941 2626 1175 
Q 2700 1409 2700 1753 
Q 2700 2100 2626 2329 
Q 2553 2559 2393 2675 
Q 2234 2791 1978 2791 
Q 1600 2791 1429 2531 
Q 1259 2272 1259 1753 
z
" transform="scale(0.015625)"/>
       <path id="OpenSans-Bold-66" d="M 2431 2778 
L 1606 2778 
L 1606 0 
L 653 0 
L 653 2778 
L 128 2778 
L 128 3238 
L 653 3494 
L 653 3750 
Q 653 4197 804 4445 
Q 956 4694 1232 4795 
Q 1509 4897 1888 4897 
Q 2166 4897 2394 4851 
Q 2622 4806 2766 4750 
L 2522 4050 
Q 2413 4084 2284 4112 
Q 2156 4141 1991 4141 
Q 1791 4141 1698 4020 
Q 1606 3900 1606 3713 
L 1606 3494 
L 2431 3494 
L 2431 2778 
z
" transform="scale(0.015625)"/>
       <path id="OpenSans-Bold-41" d="M 3372 0 
L 3041 1088 
L 1375 1088 
L 1044 0 
L 0 0 
L 1613 4588 
L 2797 4588 
L 4416 0 
L 3372 0 
z
M 2809 1900 
L 2478 2963 
Q 2447 3069 2395 3236 
Q 2344 3403 2292 3576 
Q 2241 3750 2209 3878 
Q 2178 3750 2123 3561 
Q 2069 3372 2019 3203 
Q 1969 3034 1947 2963 
L 1619 1900 
L 2809 1900 
z
" transform="scale(0.015625)"/>
       <path id="OpenSans-Bold-77" d="M 3372 0 
L 3103 1222 
Q 3081 1331 3031 1545 
Q 2981 1759 2923 2004 
Q 2866 2250 2817 2459 
Q 2769 2669 2747 2766 
L 2719 2766 
Q 2697 2669 2650 2459 
Q 2603 2250 2545 2003 
Q 2488 1756 2438 1539 
Q 2388 1322 2363 1209 
L 2081 0 
L 1056 0 
L 63 3494 
L 1013 3494 
L 1416 1947 
Q 1456 1784 1493 1561 
Q 1531 1338 1561 1130 
Q 1591 922 1606 800 
L 1631 800 
Q 1638 891 1658 1041 
Q 1678 1191 1704 1352 
Q 1731 1513 1754 1642 
Q 1778 1772 1791 1819 
L 2222 3494 
L 3272 3494 
L 3681 1819 
Q 3703 1728 3739 1531 
Q 3775 1334 3803 1126 
Q 3831 919 3834 800 
L 3859 800 
Q 3872 906 3903 1115 
Q 3934 1325 3976 1554 
Q 4019 1784 4063 1947 
L 4481 3494 
L 5416 3494 
L 4409 0 
L 3372 0 
z
" transform="scale(0.015625)"/>
       <path id="OpenSans-Bold-6b" d="M 1453 4863 
L 1453 2688 
Q 1453 2491 1437 2294 
Q 1422 2097 1403 1900 
L 1416 1900 
Q 1513 2038 1614 2172 
Q 1716 2306 1831 2431 
L 2809 3494 
L 3884 3494 
L 2497 1978 
L 3969 0 
L 2869 0 
L 1863 1416 
L 1453 1088 
L 1453 0 
L 500 0 
L 500 4863 
L 1453 4863 
z
" transform="scale(0.015625)"/>
       <path id="OpenSans-Bold-73" d="M 2938 1038 
Q 2938 681 2770 436 
Q 2603 191 2272 64 
Q 1941 -63 1447 -63 
Q 1081 -63 820 -16 
Q 559 31 294 141 
L 294 928 
Q 578 800 904 717 
Q 1231 634 1478 634 
Q 1756 634 1876 717 
Q 1997 800 1997 934 
Q 1997 1022 1948 1092 
Q 1900 1163 1740 1252 
Q 1581 1341 1241 1484 
Q 913 1622 702 1762 
Q 491 1903 389 2095 
Q 288 2288 288 2584 
Q 288 3069 664 3314 
Q 1041 3559 1672 3559 
Q 1997 3559 2292 3493 
Q 2588 3428 2900 3284 
L 2613 2597 
Q 2353 2709 2123 2781 
Q 1894 2853 1656 2853 
Q 1447 2853 1340 2797 
Q 1234 2741 1234 2625 
Q 1234 2541 1289 2475 
Q 1344 2409 1501 2329 
Q 1659 2250 1966 2125 
Q 2263 2003 2481 1870 
Q 2700 1738 2819 1542 
Q 2938 1347 2938 1038 
z
" transform="scale(0.015625)"/>
      </defs>
      <use xlink:href="#OpenSans-Bold-4e"/>
      <use xlink:href="#OpenSans-Bold-75" transform="translate(81.298828 0)"/>
      <use xlink:href="#OpenSans-Bold-6d" transform="translate(147.021484 0)"/>
      <use xlink:href="#OpenSans-Bold-62" transform="translate(245.214844 0)"/>
      <use xlink:href="#OpenSans-Bold-65" transform="translate(308.496094 0)"/>
      <use xlink:href="#OpenSans-Bold-72" transform="translate(367.578125 0)"/>
      <use xlink:href="#OpenSans-Bold-20" transform="translate(412.988281 0)"/>
      <use xlink:href="#OpenSans-Bold-6f" transform="translate(438.964844 0)"/>
      <use xlink:href="#OpenSans-Bold-66" transform="translate(500.878906 0)"/>
      <use xlink:href="#OpenSans-Bold-20" transform="translate(539.599609 0)"/>
      <use xlink:href="#OpenSans-Bold-41" transform="translate(565.576172 0)"/>
      <use xlink:href="#OpenSans-Bold-72" transform="translate(634.570312 0)"/>
      <use xlink:href="#OpenSans-Bold-74" transform="translate(679.980469 0)"/>
      <use xlink:href="#OpenSans-Bold-77" transform="translate(723.388672 0)"/>
      <use xlink:href="#OpenSans-Bold-6f" transform="translate(808.984375 0)"/>
      <use xlink:href="#OpenSans-Bold-72" transform="translate(870.898438 0)"/>
      <use xlink:href="#OpenSans-Bold-6b" transform="translate(916.308594 0)"/>
      <use xlink:href="#OpenSans-Bold-73" transform="translate(978.320312 0)"/>
     </g>
    </g>
   </g>
   <g id="LineCollection_9">
    <path d="M 217.141792 339.84 
L 217.141792 209.392941 
" clip-path="url(#p0f11212530)" style="fill: none; stroke-dasharray: 5.55,2.4; stroke-dashoffset: 0; stroke: #ffffff; stroke-opacity: 0.9; stroke-width: 1.5"/>
   </g>
   <g id="patch_3">
    <path d="M 19.619668 339.84 
L 577.619668 339.84 
" style="fill: none; stroke: #207681; stroke-width: 1.5; stroke-linejoin: miter; stroke-linecap: square"/>
   </g>
   <g id="patch_4">
    <path d="M 191.368298 178.380076 
Q 206.975145 189.508191 215.483725 206.11116 
" style="fill: none; stroke: #000000; stroke-width: 1.5; stroke-linecap: round"/>
    <path d="M 215.417122 199.403287 
L 215.483725 206.11116 
L 210.077465 202.139719 
" style="fill: none; stroke: #000000; stroke-width: 1.5; stroke-linecap: round"/>
   </g>
   <g id="text_23">
    <!-- NEA Created -->
    <g transform="translate(118.38073 172.122353) scale(0.15 -0.15)">
     <defs>
      <path id="DejaVuSans-Bold-4e" d="M 588 4666 
L 1931 4666 
L 3628 1466 
L 3628 4666 
L 4769 4666 
L 4769 0 
L 3425 0 
L 1728 3200 
L 1728 0 
L 588 0 
L 588 4666 
z
" transform="scale(0.015625)"/>
      <path id="DejaVuSans-Bold-45" d="M 588 4666 
L 3834 4666 
L 3834 3756 
L 1791 3756 
L 1791 2888 
L 3713 2888 
L 3713 1978 
L 1791 1978 
L 1791 909 
L 3903 909 
L 3903 0 
L 588 0 
L 588 4666 
z
" transform="scale(0.015625)"/>
      <path id="DejaVuSans-Bold-41" d="M 3419 850 
L 1538 850 
L 1241 0 
L 31 0 
L 1759 4666 
L 3194 4666 
L 4922 0 
L 3713 0 
L 3419 850 
z
M 1838 1716 
L 3116 1716 
L 2478 3572 
L 1838 1716 
z
" transform="scale(0.015625)"/>
      <path id="DejaVuSans-Bold-20" transform="scale(0.015625)"/>
      <path id="DejaVuSans-Bold-43" d="M 4288 256 
Q 3956 84 3597 -3 
Q 3238 -91 2847 -91 
Q 1681 -91 1000 561 
Q 319 1213 319 2328 
Q 319 3447 1000 4098 
Q 1681 4750 2847 4750 
Q 3238 4750 3597 4662 
Q 3956 4575 4288 4403 
L 4288 3438 
Q 3953 3666 3628 3772 
Q 3303 3878 2944 3878 
Q 2300 3878 1931 3465 
Q 1563 3053 1563 2328 
Q 1563 1606 1931 1193 
Q 2300 781 2944 781 
Q 3303 781 3628 887 
Q 3953 994 4288 1222 
L 4288 256 
z
" transform="scale(0.015625)"/>
      <path id="DejaVuSans-Bold-72" d="M 3138 2547 
Q 2991 2616 2845 2648 
Q 2700 2681 2553 2681 
Q 2122 2681 1889 2404 
Q 1656 2128 1656 1613 
L 1656 0 
L 538 0 
L 538 3500 
L 1656 3500 
L 1656 2925 
Q 1872 3269 2151 3426 
Q 2431 3584 2822 3584 
Q 2878 3584 2943 3579 
Q 3009 3575 3134 3559 
L 3138 2547 
z
" transform="scale(0.015625)"/>
      <path id="DejaVuSans-Bold-65" d="M 4031 1759 
L 4031 1441 
L 1416 1441 
Q 1456 1047 1700 850 
Q 1944 653 2381 653 
Q 2734 653 3104 758 
Q 3475 863 3866 1075 
L 3866 213 
Q 3469 63 3072 -14 
Q 2675 -91 2278 -91 
Q 1328 -91 801 392 
Q 275 875 275 1747 
Q 275 2603 792 3093 
Q 1309 3584 2216 3584 
Q 3041 3584 3536 3087 
Q 4031 2591 4031 1759 
z
M 2881 2131 
Q 2881 2450 2695 2645 
Q 2509 2841 2209 2841 
Q 1884 2841 1681 2658 
Q 1478 2475 1428 2131 
L 2881 2131 
z
" transform="scale(0.015625)"/>
      <path id="DejaVuSans-Bold-61" d="M 2106 1575 
Q 1756 1575 1579 1456 
Q 1403 1338 1403 1106 
Q 1403 894 1545 773 
Q 1688 653 1941 653 
Q 2256 653 2472 879 
Q 2688 1106 2688 1447 
L 2688 1575 
L 2106 1575 
z
M 3816 1997 
L 3816 0 
L 2688 0 
L 2688 519 
Q 2463 200 2181 54 
Q 1900 -91 1497 -91 
Q 953 -91 614 226 
Q 275 544 275 1050 
Q 275 1666 698 1953 
Q 1122 2241 2028 2241 
L 2688 2241 
L 2688 2328 
Q 2688 2594 2478 2717 
Q 2269 2841 1825 2841 
Q 1466 2841 1156 2769 
Q 847 2697 581 2553 
L 581 3406 
Q 941 3494 1303 3539 
Q 1666 3584 2028 3584 
Q 2975 3584 3395 3211 
Q 3816 2838 3816 1997 
z
" transform="scale(0.015625)"/>
      <path id="DejaVuSans-Bold-74" d="M 1759 4494 
L 1759 3500 
L 2913 3500 
L 2913 2700 
L 1759 2700 
L 1759 1216 
Q 1759 972 1856 886 
Q 1953 800 2241 800 
L 2816 800 
L 2816 0 
L 1856 0 
Q 1194 0 917 276 
Q 641 553 641 1216 
L 641 2700 
L 84 2700 
L 84 3500 
L 641 3500 
L 641 4494 
L 1759 4494 
z
" transform="scale(0.015625)"/>
      <path id="DejaVuSans-Bold-64" d="M 2919 2988 
L 2919 4863 
L 4044 4863 
L 4044 0 
L 2919 0 
L 2919 506 
Q 2688 197 2409 53 
Q 2131 -91 1766 -91 
Q 1119 -91 703 423 
Q 288 938 288 1747 
Q 288 2556 703 3070 
Q 1119 3584 1766 3584 
Q 2128 3584 2408 3439 
Q 2688 3294 2919 2988 
z
M 2181 722 
Q 2541 722 2730 984 
Q 2919 1247 2919 1747 
Q 2919 2247 2730 2509 
Q 2541 2772 2181 2772 
Q 1825 2772 1636 2509 
Q 1447 2247 1447 1747 
Q 1447 1247 1636 984 
Q 1825 722 2181 722 
z
" transform="scale(0.015625)"/>
     </defs>
     <use xlink:href="#DejaVuSans-Bold-4e"/>
     <use xlink:href="#DejaVuSans-Bold-45" transform="translate(83.691406 0)"/>
     <use xlink:href="#DejaVuSans-Bold-41" transform="translate(152.001953 0)"/>
     <use xlink:href="#DejaVuSans-Bold-20" transform="translate(229.394531 0)"/>
     <use xlink:href="#DejaVuSans-Bold-43" transform="translate(264.208984 0)"/>
     <use xlink:href="#DejaVuSans-Bold-72" transform="translate(337.597656 0)"/>
     <use xlink:href="#DejaVuSans-Bold-65" transform="translate(386.914062 0)"/>
     <use xlink:href="#DejaVuSans-Bold-61" transform="translate(454.736328 0)"/>
     <use xlink:href="#DejaVuSans-Bold-74" transform="translate(522.216797 0)"/>
     <use xlink:href="#DejaVuSans-Bold-65" transform="translate(570.019531 0)"/>
     <use xlink:href="#DejaVuSans-Bold-64" transform="translate(637.841797 0)"/>
    </g>
   </g>
   <g id="patch_5">
    <path d="M 501.516736 52.900675 
Q 506.653099 116.125882 503.315612 177.232236 
" style="fill: none; stroke: #000000; stroke-width: 2; stroke-linecap: round"/>
    <path d="M 505.530781 173.347262 
L 503.315612 177.232236 
L 501.536734 173.129116 
" style="fill: none; stroke: #000000; stroke-width: 2; stroke-linecap: round"/>
   </g>
   <g id="text_24">
    <!-- COVID-19 -->
    <g transform="translate(508.486924 101.14114) scale(0.15 -0.15)">
     <defs>
      <path id="DejaVuSans-Bold-4f" d="M 2719 3878 
Q 2169 3878 1866 3472 
Q 1563 3066 1563 2328 
Q 1563 1594 1866 1187 
Q 2169 781 2719 781 
Q 3272 781 3575 1187 
Q 3878 1594 3878 2328 
Q 3878 3066 3575 3472 
Q 3272 3878 2719 3878 
z
M 2719 4750 
Q 3844 4750 4481 4106 
Q 5119 3463 5119 2328 
Q 5119 1197 4481 553 
Q 3844 -91 2719 -91 
Q 1597 -91 958 553 
Q 319 1197 319 2328 
Q 319 3463 958 4106 
Q 1597 4750 2719 4750 
z
" transform="scale(0.015625)"/>
      <path id="DejaVuSans-Bold-56" d="M 31 4666 
L 1241 4666 
L 2478 1222 
L 3713 4666 
L 4922 4666 
L 3194 0 
L 1759 0 
L 31 4666 
z
" transform="scale(0.015625)"/>
      <path id="DejaVuSans-Bold-49" d="M 588 4666 
L 1791 4666 
L 1791 0 
L 588 0 
L 588 4666 
z
" transform="scale(0.015625)"/>
      <path id="DejaVuSans-Bold-44" d="M 1791 3756 
L 1791 909 
L 2222 909 
Q 2959 909 3348 1275 
Q 3738 1641 3738 2338 
Q 3738 3031 3350 3393 
Q 2963 3756 2222 3756 
L 1791 3756 
z
M 588 4666 
L 1856 4666 
Q 2919 4666 3439 4514 
Q 3959 4363 4331 4000 
Q 4659 3684 4818 3271 
Q 4978 2859 4978 2338 
Q 4978 1809 4818 1395 
Q 4659 981 4331 666 
Q 3956 303 3431 151 
Q 2906 0 1856 0 
L 588 0 
L 588 4666 
z
" transform="scale(0.015625)"/>
      <path id="DejaVuSans-Bold-2d" d="M 347 2297 
L 2309 2297 
L 2309 1388 
L 347 1388 
L 347 2297 
z
" transform="scale(0.015625)"/>
      <path id="DejaVuSans-Bold-31" d="M 750 831 
L 1813 831 
L 1813 3847 
L 722 3622 
L 722 4441 
L 1806 4666 
L 2950 4666 
L 2950 831 
L 4013 831 
L 4013 0 
L 750 0 
L 750 831 
z
" transform="scale(0.015625)"/>
      <path id="DejaVuSans-Bold-39" d="M 641 103 
L 641 966 
Q 928 831 1190 764 
Q 1453 697 1709 697 
Q 2247 697 2547 995 
Q 2847 1294 2900 1881 
Q 2688 1725 2447 1647 
Q 2206 1569 1925 1569 
Q 1209 1569 770 1986 
Q 331 2403 331 3084 
Q 331 3838 820 4291 
Q 1309 4744 2131 4744 
Q 3044 4744 3544 4128 
Q 4044 3513 4044 2388 
Q 4044 1231 3459 570 
Q 2875 -91 1856 -91 
Q 1528 -91 1228 -42 
Q 928 6 641 103 
z
M 2125 2350 
Q 2441 2350 2600 2554 
Q 2759 2759 2759 3169 
Q 2759 3575 2600 3781 
Q 2441 3988 2125 3988 
Q 1809 3988 1650 3781 
Q 1491 3575 1491 3169 
Q 1491 2759 1650 2554 
Q 1809 2350 2125 2350 
z
" transform="scale(0.015625)"/>
     </defs>
     <use xlink:href="#DejaVuSans-Bold-43"/>
     <use xlink:href="#DejaVuSans-Bold-4f" transform="translate(73.388672 0)"/>
     <use xlink:href="#DejaVuSans-Bold-56" transform="translate(155.773438 0)"/>
     <use xlink:href="#DejaVuSans-Bold-49" transform="translate(233.166016 0)"/>
     <use xlink:href="#DejaVuSans-Bold-44" transform="translate(270.373047 0)"/>
     <use xlink:href="#DejaVuSans-Bold-2d" transform="translate(355.255859 0)"/>
     <use xlink:href="#DejaVuSans-Bold-31" transform="translate(396.759766 0)"/>
     <use xlink:href="#DejaVuSans-Bold-39" transform="translate(466.339844 0)"/>
    </g>
    <!-- Delayed -->
    <g transform="translate(508.486924 117.937858) scale(0.15 -0.15)">
     <defs>
      <path id="DejaVuSans-Bold-6c" d="M 538 4863 
L 1656 4863 
L 1656 0 
L 538 0 
L 538 4863 
z
" transform="scale(0.015625)"/>
      <path id="DejaVuSans-Bold-79" d="M 78 3500 
L 1197 3500 
L 2138 1125 
L 2938 3500 
L 4056 3500 
L 2584 -331 
Q 2363 -916 2067 -1148 
Q 1772 -1381 1288 -1381 
L 641 -1381 
L 641 -647 
L 991 -647 
Q 1275 -647 1404 -556 
Q 1534 -466 1606 -231 
L 1638 -134 
L 78 3500 
z
" transform="scale(0.015625)"/>
     </defs>
     <use xlink:href="#DejaVuSans-Bold-44"/>
     <use xlink:href="#DejaVuSans-Bold-65" transform="translate(83.007812 0)"/>
     <use xlink:href="#DejaVuSans-Bold-6c" transform="translate(150.830078 0)"/>
     <use xlink:href="#DejaVuSans-Bold-61" transform="translate(185.107422 0)"/>
     <use xlink:href="#DejaVuSans-Bold-79" transform="translate(249.462891 0)"/>
     <use xlink:href="#DejaVuSans-Bold-65" transform="translate(314.648438 0)"/>
     <use xlink:href="#DejaVuSans-Bold-64" transform="translate(382.470703 0)"/>
    </g>
    <!-- Impact -->
    <g transform="translate(508.486924 134.851765) scale(0.15 -0.15)">
     <defs>
      <path id="DejaVuSans-Bold-6d" d="M 3781 2919 
Q 3994 3244 4286 3414 
Q 4578 3584 4928 3584 
Q 5531 3584 5847 3212 
Q 6163 2841 6163 2131 
L 6163 0 
L 5038 0 
L 5038 1825 
Q 5041 1866 5042 1909 
Q 5044 1953 5044 2034 
Q 5044 2406 4934 2573 
Q 4825 2741 4581 2741 
Q 4263 2741 4089 2478 
Q 3916 2216 3909 1719 
L 3909 0 
L 2784 0 
L 2784 1825 
Q 2784 2406 2684 2573 
Q 2584 2741 2328 2741 
Q 2006 2741 1831 2477 
Q 1656 2213 1656 1722 
L 1656 0 
L 531 0 
L 531 3500 
L 1656 3500 
L 1656 2988 
Q 1863 3284 2130 3434 
Q 2397 3584 2719 3584 
Q 3081 3584 3359 3409 
Q 3638 3234 3781 2919 
z
" transform="scale(0.015625)"/>
      <path id="DejaVuSans-Bold-70" d="M 1656 506 
L 1656 -1331 
L 538 -1331 
L 538 3500 
L 1656 3500 
L 1656 2988 
Q 1888 3294 2169 3439 
Q 2450 3584 2816 3584 
Q 3463 3584 3878 3070 
Q 4294 2556 4294 1747 
Q 4294 938 3878 423 
Q 3463 -91 2816 -91 
Q 2450 -91 2169 54 
Q 1888 200 1656 506 
z
M 2400 2772 
Q 2041 2772 1848 2508 
Q 1656 2244 1656 1747 
Q 1656 1250 1848 986 
Q 2041 722 2400 722 
Q 2759 722 2948 984 
Q 3138 1247 3138 1747 
Q 3138 2247 2948 2509 
Q 2759 2772 2400 2772 
z
" transform="scale(0.015625)"/>
      <path id="DejaVuSans-Bold-63" d="M 3366 3391 
L 3366 2478 
Q 3138 2634 2908 2709 
Q 2678 2784 2431 2784 
Q 1963 2784 1702 2511 
Q 1441 2238 1441 1747 
Q 1441 1256 1702 982 
Q 1963 709 2431 709 
Q 2694 709 2930 787 
Q 3166 866 3366 1019 
L 3366 103 
Q 3103 6 2833 -42 
Q 2563 -91 2291 -91 
Q 1344 -91 809 395 
Q 275 881 275 1747 
Q 275 2613 809 3098 
Q 1344 3584 2291 3584 
Q 2566 3584 2833 3536 
Q 3100 3488 3366 3391 
z
" transform="scale(0.015625)"/>
     </defs>
     <use xlink:href="#DejaVuSans-Bold-49"/>
     <use xlink:href="#DejaVuSans-Bold-6d" transform="translate(37.207031 0)"/>
     <use xlink:href="#DejaVuSans-Bold-70" transform="translate(141.40625 0)"/>
     <use xlink:href="#DejaVuSans-Bold-61" transform="translate(212.988281 0)"/>
     <use xlink:href="#DejaVuSans-Bold-63" transform="translate(280.46875 0)"/>
     <use xlink:href="#DejaVuSans-Bold-74" transform="translate(339.746094 0)"/>
    </g>
   </g>
   <g id="legend_1">
    <g id="patch_6">
     <path d="M 32.199668 121.735181 
L 445.55748 121.735181 
Q 447.55748 121.735181 447.55748 119.735181 
L 447.55748 84.0544 
Q 447.55748 82.0544 445.55748 82.0544 
L 32.199668 82.0544 
Q 30.199668 82.0544 30.199668 84.0544 
L 30.199668 119.735181 
Q 30.199668 121.735181 32.199668 121.735181 
L 32.199668 121.735181 
z
" style="fill: none; opacity: 0.8; stroke: #207681; stroke-linejoin: miter"/>
    </g>
    <g id="text_25">
     <!-- Artwork Type -->
     <g transform="translate(181.427871 98.971744) scale(0.17 -0.17)">
      <defs>
       <path id="OpenSans-Bold-54" d="M 2338 0 
L 1369 0 
L 1369 3763 
L 128 3763 
L 128 4569 
L 3578 4569 
L 3578 3763 
L 2338 3763 
L 2338 0 
z
" transform="scale(0.015625)"/>
       <path id="OpenSans-Bold-79" d="M 0 3494 
L 1044 3494 
L 1703 1528 
Q 1734 1434 1756 1337 
Q 1778 1241 1793 1137 
Q 1809 1034 1819 922 
L 1838 922 
Q 1856 1091 1889 1237 
Q 1922 1384 1972 1528 
L 2619 3494 
L 3641 3494 
L 2163 -447 
Q 2028 -809 1812 -1051 
Q 1597 -1294 1317 -1416 
Q 1038 -1538 703 -1538 
Q 541 -1538 422 -1520 
Q 303 -1503 219 -1484 
L 219 -728 
Q 284 -744 384 -756 
Q 484 -769 594 -769 
Q 794 -769 937 -684 
Q 1081 -600 1178 -458 
Q 1275 -316 1331 -147 
L 1388 25 
L 0 3494 
z
" transform="scale(0.015625)"/>
       <path id="OpenSans-Bold-70" d="M 2444 3559 
Q 3034 3559 3398 3100 
Q 3763 2641 3763 1753 
Q 3763 1159 3591 754 
Q 3419 350 3116 143 
Q 2813 -63 2419 -63 
Q 2166 -63 1984 1 
Q 1803 66 1675 167 
Q 1547 269 1453 384 
L 1403 384 
Q 1428 259 1440 128 
Q 1453 -3 1453 -128 
L 1453 -1538 
L 500 -1538 
L 500 3494 
L 1275 3494 
L 1409 3041 
L 1453 3041 
Q 1547 3181 1681 3300 
Q 1816 3419 2005 3489 
Q 2194 3559 2444 3559 
z
M 2138 2797 
Q 1888 2797 1741 2694 
Q 1594 2591 1526 2384 
Q 1459 2178 1453 1863 
L 1453 1759 
Q 1453 1422 1517 1187 
Q 1581 953 1732 831 
Q 1884 709 2150 709 
Q 2369 709 2509 831 
Q 2650 953 2720 1189 
Q 2791 1425 2791 1766 
Q 2791 2278 2631 2537 
Q 2472 2797 2138 2797 
z
" transform="scale(0.015625)"/>
      </defs>
      <use xlink:href="#OpenSans-Bold-41"/>
      <use xlink:href="#OpenSans-Bold-72" transform="translate(68.994141 0)"/>
      <use xlink:href="#OpenSans-Bold-74" transform="translate(114.404297 0)"/>
      <use xlink:href="#OpenSans-Bold-77" transform="translate(157.8125 0)"/>
      <use xlink:href="#OpenSans-Bold-6f" transform="translate(243.408203 0)"/>
      <use xlink:href="#OpenSans-Bold-72" transform="translate(305.322266 0)"/>
      <use xlink:href="#OpenSans-Bold-6b" transform="translate(350.732422 0)"/>
      <use xlink:href="#OpenSans-Bold-20" transform="translate(412.744141 0)"/>
      <use xlink:href="#OpenSans-Bold-54" transform="translate(438.720703 0)"/>
      <use xlink:href="#OpenSans-Bold-79" transform="translate(496.630859 0)"/>
      <use xlink:href="#OpenSans-Bold-70" transform="translate(553.515625 0)"/>
      <use xlink:href="#OpenSans-Bold-65" transform="translate(616.796875 0)"/>
     </g>
    </g>
    <g id="patch_7">
     <path d="M 34.199668 115.655494 
L 54.199668 115.655494 
L 54.199668 108.655494 
L 34.199668 108.655494 
z
" style="fill: #d6e4e6; stroke: #000000; stroke-width: 0.5; stroke-linejoin: miter"/>
    </g>
    <g id="text_26">
     <!-- Installations -->
     <g transform="translate(62.199668 115.655494) scale(0.1 -0.1)">
      <defs>
       <path id="DejaVuSans-49" d="M 628 4666 
L 1259 4666 
L 1259 0 
L 628 0 
L 628 4666 
z
" transform="scale(0.015625)"/>
       <path id="DejaVuSans-6e" d="M 3513 2113 
L 3513 0 
L 2938 0 
L 2938 2094 
Q 2938 2591 2744 2837 
Q 2550 3084 2163 3084 
Q 1697 3084 1428 2787 
Q 1159 2491 1159 1978 
L 1159 0 
L 581 0 
L 581 3500 
L 1159 3500 
L 1159 2956 
Q 1366 3272 1645 3428 
Q 1925 3584 2291 3584 
Q 2894 3584 3203 3211 
Q 3513 2838 3513 2113 
z
" transform="scale(0.015625)"/>
       <path id="DejaVuSans-73" d="M 2834 3397 
L 2834 2853 
Q 2591 2978 2328 3040 
Q 2066 3103 1784 3103 
Q 1356 3103 1142 2972 
Q 928 2841 928 2578 
Q 928 2378 1081 2264 
Q 1234 2150 1697 2047 
L 1894 2003 
Q 2506 1872 2764 1633 
Q 3022 1394 3022 966 
Q 3022 478 2636 193 
Q 2250 -91 1575 -91 
Q 1294 -91 989 -36 
Q 684 19 347 128 
L 347 722 
Q 666 556 975 473 
Q 1284 391 1588 391 
Q 1994 391 2212 530 
Q 2431 669 2431 922 
Q 2431 1156 2273 1281 
Q 2116 1406 1581 1522 
L 1381 1569 
Q 847 1681 609 1914 
Q 372 2147 372 2553 
Q 372 3047 722 3315 
Q 1072 3584 1716 3584 
Q 2034 3584 2315 3537 
Q 2597 3491 2834 3397 
z
" transform="scale(0.015625)"/>
       <path id="DejaVuSans-74" d="M 1172 4494 
L 1172 3500 
L 2356 3500 
L 2356 3053 
L 1172 3053 
L 1172 1153 
Q 1172 725 1289 603 
Q 1406 481 1766 481 
L 2356 481 
L 2356 0 
L 1766 0 
Q 1100 0 847 248 
Q 594 497 594 1153 
L 594 3053 
L 172 3053 
L 172 3500 
L 594 3500 
L 594 4494 
L 1172 4494 
z
" transform="scale(0.015625)"/>
       <path id="DejaVuSans-61" d="M 2194 1759 
Q 1497 1759 1228 1600 
Q 959 1441 959 1056 
Q 959 750 1161 570 
Q 1363 391 1709 391 
Q 2188 391 2477 730 
Q 2766 1069 2766 1631 
L 2766 1759 
L 2194 1759 
z
M 3341 1997 
L 3341 0 
L 2766 0 
L 2766 531 
Q 2569 213 2275 61 
Q 1981 -91 1556 -91 
Q 1019 -91 701 211 
Q 384 513 384 1019 
Q 384 1609 779 1909 
Q 1175 2209 1959 2209 
L 2766 2209 
L 2766 2266 
Q 2766 2663 2505 2880 
Q 2244 3097 1772 3097 
Q 1472 3097 1187 3025 
Q 903 2953 641 2809 
L 641 3341 
Q 956 3463 1253 3523 
Q 1550 3584 1831 3584 
Q 2591 3584 2966 3190 
Q 3341 2797 3341 1997 
z
" transform="scale(0.015625)"/>
       <path id="DejaVuSans-6c" d="M 603 4863 
L 1178 4863 
L 1178 0 
L 603 0 
L 603 4863 
z
" transform="scale(0.015625)"/>
       <path id="DejaVuSans-69" d="M 603 3500 
L 1178 3500 
L 1178 0 
L 603 0 
L 603 3500 
z
M 603 4863 
L 1178 4863 
L 1178 4134 
L 603 4134 
L 603 4863 
z
" transform="scale(0.015625)"/>
       <path id="DejaVuSans-6f" d="M 1959 3097 
Q 1497 3097 1228 2736 
Q 959 2375 959 1747 
Q 959 1119 1226 758 
Q 1494 397 1959 397 
Q 2419 397 2687 759 
Q 2956 1122 2956 1747 
Q 2956 2369 2687 2733 
Q 2419 3097 1959 3097 
z
M 1959 3584 
Q 2709 3584 3137 3096 
Q 3566 2609 3566 1747 
Q 3566 888 3137 398 
Q 2709 -91 1959 -91 
Q 1206 -91 779 398 
Q 353 888 353 1747 
Q 353 2609 779 3096 
Q 1206 3584 1959 3584 
z
" transform="scale(0.015625)"/>
      </defs>
      <use xlink:href="#DejaVuSans-49"/>
      <use xlink:href="#DejaVuSans-6e" transform="translate(29.492188 0)"/>
      <use xlink:href="#DejaVuSans-73" transform="translate(92.871094 0)"/>
      <use xlink:href="#DejaVuSans-74" transform="translate(144.970703 0)"/>
      <use xlink:href="#DejaVuSans-61" transform="translate(184.179688 0)"/>
      <use xlink:href="#DejaVuSans-6c" transform="translate(245.458984 0)"/>
      <use xlink:href="#DejaVuSans-6c" transform="translate(273.242188 0)"/>
      <use xlink:href="#DejaVuSans-61" transform="translate(301.025391 0)"/>
      <use xlink:href="#DejaVuSans-74" transform="translate(362.304688 0)"/>
      <use xlink:href="#DejaVuSans-69" transform="translate(401.513672 0)"/>
      <use xlink:href="#DejaVuSans-6f" transform="translate(429.296875 0)"/>
      <use xlink:href="#DejaVuSans-6e" transform="translate(490.478516 0)"/>
      <use xlink:href="#DejaVuSans-73" transform="translate(553.857422 0)"/>
     </g>
    </g>
    <g id="patch_8">
     <path d="M 137.793418 115.655494 
L 157.793418 115.655494 
L 157.793418 108.655494 
L 137.793418 108.655494 
z
" style="fill: #a8c8cc; stroke: #000000; stroke-width: 0.5; stroke-linejoin: miter"/>
    </g>
    <g id="text_27">
     <!-- Mosaics -->
     <g transform="translate(165.793418 115.655494) scale(0.1 -0.1)">
      <defs>
       <path id="DejaVuSans-4d" d="M 628 4666 
L 1569 4666 
L 2759 1491 
L 3956 4666 
L 4897 4666 
L 4897 0 
L 4281 0 
L 4281 4097 
L 3078 897 
L 2444 897 
L 1241 4097 
L 1241 0 
L 628 0 
L 628 4666 
z
" transform="scale(0.015625)"/>
       <path id="DejaVuSans-63" d="M 3122 3366 
L 3122 2828 
Q 2878 2963 2633 3030 
Q 2388 3097 2138 3097 
Q 1578 3097 1268 2742 
Q 959 2388 959 1747 
Q 959 1106 1268 751 
Q 1578 397 2138 397 
Q 2388 397 2633 464 
Q 2878 531 3122 666 
L 3122 134 
Q 2881 22 2623 -34 
Q 2366 -91 2075 -91 
Q 1284 -91 818 406 
Q 353 903 353 1747 
Q 353 2603 823 3093 
Q 1294 3584 2113 3584 
Q 2378 3584 2631 3529 
Q 2884 3475 3122 3366 
z
" transform="scale(0.015625)"/>
      </defs>
      <use xlink:href="#DejaVuSans-4d"/>
      <use xlink:href="#DejaVuSans-6f" transform="translate(86.279297 0)"/>
      <use xlink:href="#DejaVuSans-73" transform="translate(147.460938 0)"/>
      <use xlink:href="#DejaVuSans-61" transform="translate(199.560547 0)"/>
      <use xlink:href="#DejaVuSans-69" transform="translate(260.839844 0)"/>
      <use xlink:href="#DejaVuSans-63" transform="translate(288.623047 0)"/>
      <use xlink:href="#DejaVuSans-73" transform="translate(343.603516 0)"/>
     </g>
    </g>
    <g id="patch_9">
     <path d="M 220.36373 115.655494 
L 240.36373 115.655494 
L 240.36373 108.655494 
L 220.36373 108.655494 
z
" style="fill: #7aacb3; stroke: #000000; stroke-width: 0.5; stroke-linejoin: miter"/>
    </g>
    <g id="text_28">
     <!-- Murals -->
     <g transform="translate(248.36373 115.655494) scale(0.1 -0.1)">
      <defs>
       <path id="DejaVuSans-75" d="M 544 1381 
L 544 3500 
L 1119 3500 
L 1119 1403 
Q 1119 906 1312 657 
Q 1506 409 1894 409 
Q 2359 409 2629 706 
Q 2900 1003 2900 1516 
L 2900 3500 
L 3475 3500 
L 3475 0 
L 2900 0 
L 2900 538 
Q 2691 219 2414 64 
Q 2138 -91 1772 -91 
Q 1169 -91 856 284 
Q 544 659 544 1381 
z
M 1991 3584 
L 1991 3584 
z
" transform="scale(0.015625)"/>
       <path id="DejaVuSans-72" d="M 2631 2963 
Q 2534 3019 2420 3045 
Q 2306 3072 2169 3072 
Q 1681 3072 1420 2755 
Q 1159 2438 1159 1844 
L 1159 0 
L 581 0 
L 581 3500 
L 1159 3500 
L 1159 2956 
Q 1341 3275 1631 3429 
Q 1922 3584 2338 3584 
Q 2397 3584 2469 3576 
Q 2541 3569 2628 3553 
L 2631 2963 
z
" transform="scale(0.015625)"/>
      </defs>
      <use xlink:href="#DejaVuSans-4d"/>
      <use xlink:href="#DejaVuSans-75" transform="translate(86.279297 0)"/>
      <use xlink:href="#DejaVuSans-72" transform="translate(149.658203 0)"/>
      <use xlink:href="#DejaVuSans-61" transform="translate(190.771484 0)"/>
      <use xlink:href="#DejaVuSans-6c" transform="translate(252.050781 0)"/>
      <use xlink:href="#DejaVuSans-73" transform="translate(279.833984 0)"/>
     </g>
    </g>
    <g id="patch_10">
     <path d="M 296.555918 115.655494 
L 316.555918 115.655494 
L 316.555918 108.655494 
L 296.555918 108.655494 
z
" style="fill: #4c9199; stroke: #000000; stroke-width: 0.5; stroke-linejoin: miter"/>
    </g>
    <g id="text_29">
     <!-- Other -->
     <g transform="translate(324.555918 115.655494) scale(0.1 -0.1)">
      <defs>
       <path id="DejaVuSans-4f" d="M 2522 4238 
Q 1834 4238 1429 3725 
Q 1025 3213 1025 2328 
Q 1025 1447 1429 934 
Q 1834 422 2522 422 
Q 3209 422 3611 934 
Q 4013 1447 4013 2328 
Q 4013 3213 3611 3725 
Q 3209 4238 2522 4238 
z
M 2522 4750 
Q 3503 4750 4090 4092 
Q 4678 3434 4678 2328 
Q 4678 1225 4090 567 
Q 3503 -91 2522 -91 
Q 1538 -91 948 565 
Q 359 1222 359 2328 
Q 359 3434 948 4092 
Q 1538 4750 2522 4750 
z
" transform="scale(0.015625)"/>
       <path id="DejaVuSans-68" d="M 3513 2113 
L 3513 0 
L 2938 0 
L 2938 2094 
Q 2938 2591 2744 2837 
Q 2550 3084 2163 3084 
Q 1697 3084 1428 2787 
Q 1159 2491 1159 1978 
L 1159 0 
L 581 0 
L 581 4863 
L 1159 4863 
L 1159 2956 
Q 1366 3272 1645 3428 
Q 1925 3584 2291 3584 
Q 2894 3584 3203 3211 
Q 3513 2838 3513 2113 
z
" transform="scale(0.015625)"/>
       <path id="DejaVuSans-65" d="M 3597 1894 
L 3597 1613 
L 953 1613 
Q 991 1019 1311 708 
Q 1631 397 2203 397 
Q 2534 397 2845 478 
Q 3156 559 3463 722 
L 3463 178 
Q 3153 47 2828 -22 
Q 2503 -91 2169 -91 
Q 1331 -91 842 396 
Q 353 884 353 1716 
Q 353 2575 817 3079 
Q 1281 3584 2069 3584 
Q 2775 3584 3186 3129 
Q 3597 2675 3597 1894 
z
M 3022 2063 
Q 3016 2534 2758 2815 
Q 2500 3097 2075 3097 
Q 1594 3097 1305 2825 
Q 1016 2553 972 2059 
L 3022 2063 
z
" transform="scale(0.015625)"/>
      </defs>
      <use xlink:href="#DejaVuSans-4f"/>
      <use xlink:href="#DejaVuSans-74" transform="translate(78.710938 0)"/>
      <use xlink:href="#DejaVuSans-68" transform="translate(117.919922 0)"/>
      <use xlink:href="#DejaVuSans-65" transform="translate(181.298828 0)"/>
      <use xlink:href="#DejaVuSans-72" transform="translate(242.822266 0)"/>
     </g>
    </g>
    <g id="patch_11">
     <path d="M 367.949668 115.655494 
L 387.949668 115.655494 
L 387.949668 108.655494 
L 367.949668 108.655494 
z
" style="fill: #207681; stroke: #000000; stroke-width: 0.5; stroke-linejoin: miter"/>
    </g>
    <g id="text_30">
     <!-- Sculpture -->
     <g transform="translate(395.949668 115.655494) scale(0.1 -0.1)">
      <defs>
       <path id="DejaVuSans-53" d="M 3425 4513 
L 3425 3897 
Q 3066 4069 2747 4153 
Q 2428 4238 2131 4238 
Q 1616 4238 1336 4038 
Q 1056 3838 1056 3469 
Q 1056 3159 1242 3001 
Q 1428 2844 1947 2747 
L 2328 2669 
Q 3034 2534 3370 2195 
Q 3706 1856 3706 1288 
Q 3706 609 3251 259 
Q 2797 -91 1919 -91 
Q 1588 -91 1214 -16 
Q 841 59 441 206 
L 441 856 
Q 825 641 1194 531 
Q 1563 422 1919 422 
Q 2459 422 2753 634 
Q 3047 847 3047 1241 
Q 3047 1584 2836 1778 
Q 2625 1972 2144 2069 
L 1759 2144 
Q 1053 2284 737 2584 
Q 422 2884 422 3419 
Q 422 4038 858 4394 
Q 1294 4750 2059 4750 
Q 2388 4750 2728 4690 
Q 3069 4631 3425 4513 
z
" transform="scale(0.015625)"/>
       <path id="DejaVuSans-70" d="M 1159 525 
L 1159 -1331 
L 581 -1331 
L 581 3500 
L 1159 3500 
L 1159 2969 
Q 1341 3281 1617 3432 
Q 1894 3584 2278 3584 
Q 2916 3584 3314 3078 
Q 3713 2572 3713 1747 
Q 3713 922 3314 415 
Q 2916 -91 2278 -91 
Q 1894 -91 1617 61 
Q 1341 213 1159 525 
z
M 3116 1747 
Q 3116 2381 2855 2742 
Q 2594 3103 2138 3103 
Q 1681 3103 1420 2742 
Q 1159 2381 1159 1747 
Q 1159 1113 1420 752 
Q 1681 391 2138 391 
Q 2594 391 2855 752 
Q 3116 1113 3116 1747 
z
" transform="scale(0.015625)"/>
      </defs>
      <use xlink:href="#DejaVuSans-53"/>
      <use xlink:href="#DejaVuSans-63" transform="translate(63.476562 0)"/>
      <use xlink:href="#DejaVuSans-75" transform="translate(118.457031 0)"/>
      <use xlink:href="#DejaVuSans-6c" transform="translate(181.835938 0)"/>
      <use xlink:href="#DejaVuSans-70" transform="translate(209.619141 0)"/>
      <use xlink:href="#DejaVuSans-74" transform="translate(273.095703 0)"/>
      <use xlink:href="#DejaVuSans-75" transform="translate(312.304688 0)"/>
      <use xlink:href="#DejaVuSans-72" transform="translate(375.683594 0)"/>
      <use xlink:href="#DejaVuSans-65" transform="translate(414.546875 0)"/>
     </g>
    </g>
   </g>
  </g>
  <g id="text_31">
   <!-- Virginia's Public Art Over Time -->
   <g style="fill: #207681" transform="translate(48.419668 41.76) scale(0.25 -0.25)">
    <defs>
     <path id="OpenSans-Bold-56" d="M 4159 4569 
L 2606 0 
L 1550 0 
L 0 4569 
L 978 4569 
L 1838 1850 
Q 1859 1781 1909 1592 
Q 1959 1403 2011 1192 
Q 2063 981 2081 844 
Q 2100 981 2148 1190 
Q 2197 1400 2245 1589 
Q 2294 1778 2316 1850 
L 3181 4569 
L 4159 4569 
z
" transform="scale(0.015625)"/>
     <path id="OpenSans-Bold-69" d="M 1453 3494 
L 1453 0 
L 500 0 
L 500 3494 
L 1453 3494 
z
M 978 4863 
Q 1191 4863 1344 4764 
Q 1497 4666 1497 4397 
Q 1497 4131 1344 4029 
Q 1191 3928 978 3928 
Q 763 3928 611 4029 
Q 459 4131 459 4397 
Q 459 4666 611 4764 
Q 763 4863 978 4863 
z
" transform="scale(0.015625)"/>
     <path id="OpenSans-Bold-67" d="M 1522 -1538 
Q 791 -1538 405 -1283 
Q 19 -1028 19 -569 
Q 19 -253 216 -40 
Q 413 172 794 263 
Q 647 325 537 467 
Q 428 609 428 769 
Q 428 969 543 1101 
Q 659 1234 878 1363 
Q 603 1481 442 1743 
Q 281 2006 281 2363 
Q 281 2744 448 3011 
Q 616 3278 936 3418 
Q 1256 3559 1716 3559 
Q 1813 3559 1941 3546 
Q 2069 3534 2176 3518 
Q 2284 3503 2322 3494 
L 3541 3494 
L 3541 3009 
L 2994 2869 
Q 3069 2753 3106 2622 
Q 3144 2491 3144 2344 
Q 3144 1781 2751 1467 
Q 2359 1153 1663 1153 
Q 1497 1163 1350 1178 
Q 1278 1122 1240 1059 
Q 1203 997 1203 928 
Q 1203 859 1261 814 
Q 1319 769 1436 745 
Q 1553 722 1728 722 
L 2322 722 
Q 2897 722 3198 475 
Q 3500 228 3500 -250 
Q 3500 -863 2989 -1200 
Q 2478 -1538 1522 -1538 
z
M 1563 -916 
Q 1903 -916 2148 -852 
Q 2394 -788 2525 -670 
Q 2656 -553 2656 -391 
Q 2656 -259 2579 -182 
Q 2503 -106 2348 -75 
Q 2194 -44 1953 -44 
L 1459 -44 
Q 1284 -44 1145 -100 
Q 1006 -156 925 -257 
Q 844 -359 844 -494 
Q 844 -691 1033 -803 
Q 1222 -916 1563 -916 
z
M 1716 1734 
Q 1984 1734 2109 1900 
Q 2234 2066 2234 2350 
Q 2234 2666 2104 2823 
Q 1975 2981 1716 2981 
Q 1453 2981 1322 2823 
Q 1191 2666 1191 2350 
Q 1191 2066 1320 1900 
Q 1450 1734 1716 1734 
z
" transform="scale(0.015625)"/>
     <path id="OpenSans-Bold-6e" d="M 2484 3559 
Q 3044 3559 3384 3254 
Q 3725 2950 3725 2278 
L 3725 0 
L 2772 0 
L 2772 2041 
Q 2772 2416 2636 2606 
Q 2500 2797 2209 2797 
Q 1772 2797 1612 2500 
Q 1453 2203 1453 1644 
L 1453 0 
L 500 0 
L 500 3494 
L 1228 3494 
L 1356 3047 
L 1409 3047 
Q 1522 3228 1689 3340 
Q 1856 3453 2061 3506 
Q 2266 3559 2484 3559 
z
" transform="scale(0.015625)"/>
     <path id="OpenSans-Bold-27" d="M 1288 4569 
L 1159 2919 
L 544 2919 
L 416 4569 
L 1288 4569 
z
" transform="scale(0.015625)"/>
     <path id="OpenSans-Bold-50" d="M 2034 4569 
Q 2919 4569 3325 4189 
Q 3731 3809 3731 3144 
Q 3731 2844 3640 2570 
Q 3550 2297 3345 2084 
Q 3141 1872 2800 1748 
Q 2459 1625 1959 1625 
L 1544 1625 
L 1544 0 
L 575 0 
L 575 4569 
L 2034 4569 
z
M 1984 3775 
L 1544 3775 
L 1544 2419 
L 1863 2419 
Q 2134 2419 2334 2491 
Q 2534 2563 2643 2716 
Q 2753 2869 2753 3109 
Q 2753 3447 2565 3611 
Q 2378 3775 1984 3775 
z
" transform="scale(0.015625)"/>
     <path id="OpenSans-Bold-6c" d="M 1453 0 
L 500 0 
L 500 4863 
L 1453 4863 
L 1453 0 
z
" transform="scale(0.015625)"/>
     <path id="OpenSans-Bold-63" d="M 1919 -63 
Q 1400 -63 1034 126 
Q 669 316 478 712 
Q 288 1109 288 1728 
Q 288 2369 505 2773 
Q 722 3178 1108 3368 
Q 1494 3559 2003 3559 
Q 2366 3559 2630 3489 
Q 2894 3419 3091 3322 
L 2809 2584 
Q 2584 2675 2390 2733 
Q 2197 2791 2003 2791 
Q 1753 2791 1587 2673 
Q 1422 2556 1340 2322 
Q 1259 2088 1259 1734 
Q 1259 1388 1346 1159 
Q 1434 931 1600 820 
Q 1766 709 2003 709 
Q 2300 709 2531 789 
Q 2763 869 2981 1013 
L 2981 197 
Q 2763 59 2523 -2 
Q 2284 -63 1919 -63 
z
" transform="scale(0.015625)"/>
     <path id="OpenSans-Bold-4f" d="M 4722 2291 
Q 4722 1763 4590 1330 
Q 4459 897 4192 584 
Q 3925 272 3515 104 
Q 3106 -63 2547 -63 
Q 1988 -63 1578 104 
Q 1169 272 901 584 
Q 634 897 503 1331 
Q 372 1766 372 2297 
Q 372 3006 605 3532 
Q 838 4059 1322 4350 
Q 1806 4641 2553 4641 
Q 3297 4641 3776 4350 
Q 4256 4059 4489 3531 
Q 4722 3003 4722 2291 
z
M 1388 2291 
Q 1388 1813 1508 1467 
Q 1628 1122 1884 936 
Q 2141 750 2547 750 
Q 2959 750 3215 936 
Q 3472 1122 3589 1467 
Q 3706 1813 3706 2291 
Q 3706 3009 3437 3421 
Q 3169 3834 2553 3834 
Q 2144 3834 1886 3648 
Q 1628 3463 1508 3117 
Q 1388 2772 1388 2291 
z
" transform="scale(0.015625)"/>
     <path id="OpenSans-Bold-76" d="M 1331 0 
L 0 3494 
L 997 3494 
L 1672 1503 
Q 1728 1328 1761 1134 
Q 1794 941 1806 788 
L 1831 788 
Q 1841 953 1877 1140 
Q 1913 1328 1972 1503 
L 2644 3494 
L 3641 3494 
L 2309 0 
L 1331 0 
z
" transform="scale(0.015625)"/>
    </defs>
    <use xlink:href="#OpenSans-Bold-56"/>
    <use xlink:href="#OpenSans-Bold-69" transform="translate(64.990234 0)"/>
    <use xlink:href="#OpenSans-Bold-72" transform="translate(95.507812 0)"/>
    <use xlink:href="#OpenSans-Bold-67" transform="translate(140.917969 0)"/>
    <use xlink:href="#OpenSans-Bold-69" transform="translate(197.412109 0)"/>
    <use xlink:href="#OpenSans-Bold-6e" transform="translate(227.929688 0)"/>
    <use xlink:href="#OpenSans-Bold-69" transform="translate(293.652344 0)"/>
    <use xlink:href="#OpenSans-Bold-61" transform="translate(324.169922 0)"/>
    <use xlink:href="#OpenSans-Bold-27" transform="translate(384.570312 0)"/>
    <use xlink:href="#OpenSans-Bold-73" transform="translate(411.181641 0)"/>
    <use xlink:href="#OpenSans-Bold-20" transform="translate(460.888672 0)"/>
    <use xlink:href="#OpenSans-Bold-50" transform="translate(486.865234 0)"/>
    <use xlink:href="#OpenSans-Bold-75" transform="translate(549.658203 0)"/>
    <use xlink:href="#OpenSans-Bold-62" transform="translate(615.380859 0)"/>
    <use xlink:href="#OpenSans-Bold-6c" transform="translate(678.662109 0)"/>
    <use xlink:href="#OpenSans-Bold-69" transform="translate(709.179688 0)"/>
    <use xlink:href="#OpenSans-Bold-63" transform="translate(739.697266 0)"/>
    <use xlink:href="#OpenSans-Bold-20" transform="translate(791.113281 0)"/>
    <use xlink:href="#OpenSans-Bold-41" transform="translate(817.089844 0)"/>
    <use xlink:href="#OpenSans-Bold-72" transform="translate(886.083984 0)"/>
    <use xlink:href="#OpenSans-Bold-74" transform="translate(931.494141 0)"/>
    <use xlink:href="#OpenSans-Bold-20" transform="translate(974.902344 0)"/>
    <use xlink:href="#OpenSans-Bold-4f" transform="translate(1000.878906 0)"/>
    <use xlink:href="#OpenSans-Bold-76" transform="translate(1080.46875 0)"/>
    <use xlink:href="#OpenSans-Bold-65" transform="translate(1137.353516 0)"/>
    <use xlink:href="#OpenSans-Bold-72" transform="translate(1196.435547 0)"/>
    <use xlink:href="#OpenSans-Bold-20" transform="translate(1241.845703 0)"/>
    <use xlink:href="#OpenSans-Bold-54" transform="translate(1267.822266 0)"/>
    <use xlink:href="#OpenSans-Bold-69" transform="translate(1325.732422 0)"/>
    <use xlink:href="#OpenSans-Bold-6d" transform="translate(1356.25 0)"/>
    <use xlink:href="#OpenSans-Bold-65" transform="translate(1454.443359 0)"/>
   </g>
  </g>
  <g id="text_32">
   <!-- Artwork count by type and year created -->
   <g transform="translate(48.419668 67.68) scale(0.2 -0.2)">
    <defs>
     <path id="OpenSans-Regular-41" d="M 3491 0 
L 2928 1450 
L 1097 1450 
L 538 0 
L 0 0 
L 1788 4588 
L 2266 4588 
L 4041 0 
L 3491 0 
z
M 2769 1922 
L 2234 3363 
Q 2216 3419 2173 3547 
Q 2131 3675 2087 3812 
Q 2044 3950 2016 4034 
Q 1984 3906 1948 3779 
Q 1913 3653 1878 3545 
Q 1844 3438 1819 3363 
L 1275 1922 
L 2769 1922 
z
" transform="scale(0.015625)"/>
     <path id="OpenSans-Regular-72" d="M 2103 3488 
Q 2206 3488 2318 3477 
Q 2431 3466 2519 3447 
L 2453 2966 
Q 2369 2988 2266 3000 
Q 2163 3013 2072 3013 
Q 1866 3013 1683 2930 
Q 1500 2847 1362 2692 
Q 1225 2538 1147 2320 
Q 1069 2103 1069 1838 
L 1069 0 
L 547 0 
L 547 3425 
L 978 3425 
L 1034 2794 
L 1056 2794 
Q 1163 2984 1313 3142 
Q 1463 3300 1661 3394 
Q 1859 3488 2103 3488 
z
" transform="scale(0.015625)"/>
     <path id="OpenSans-Regular-74" d="M 1653 363 
Q 1781 363 1915 384 
Q 2050 406 2134 438 
L 2134 34 
Q 2044 -6 1883 -34 
Q 1722 -63 1569 -63 
Q 1297 -63 1075 32 
Q 853 128 720 356 
Q 588 584 588 988 
L 588 3019 
L 100 3019 
L 100 3272 
L 591 3475 
L 797 4219 
L 1109 4219 
L 1109 3425 
L 2113 3425 
L 2113 3019 
L 1109 3019 
L 1109 1003 
Q 1109 681 1257 522 
Q 1406 363 1653 363 
z
" transform="scale(0.015625)"/>
     <path id="OpenSans-Regular-77" d="M 3334 6 
L 2725 2000 
Q 2684 2128 2648 2251 
Q 2613 2375 2583 2489 
Q 2553 2603 2529 2701 
Q 2506 2800 2491 2872 
L 2469 2872 
Q 2456 2800 2434 2701 
Q 2413 2603 2383 2487 
Q 2353 2372 2318 2245 
Q 2284 2119 2241 1991 
L 1603 6 
L 1019 6 
L 75 3431 
L 613 3431 
L 1106 1541 
Q 1156 1353 1201 1170 
Q 1247 988 1280 827 
Q 1313 666 1328 547 
L 1353 547 
Q 1372 625 1395 734 
Q 1419 844 1448 967 
Q 1478 1091 1512 1214 
Q 1547 1338 1581 1447 
L 2213 3431 
L 2772 3431 
L 3381 1450 
Q 3428 1300 3473 1137 
Q 3519 975 3556 823 
Q 3594 672 3609 553 
L 3634 553 
Q 3647 659 3681 815 
Q 3716 972 3761 1159 
Q 3806 1347 3856 1541 
L 4356 3431 
L 4884 3431 
L 3938 6 
L 3334 6 
z
" transform="scale(0.015625)"/>
     <path id="OpenSans-Regular-6f" d="M 3500 1719 
Q 3500 1297 3390 965 
Q 3281 634 3075 406 
Q 2869 178 2576 57 
Q 2284 -63 1916 -63 
Q 1572 -63 1286 57 
Q 1000 178 792 406 
Q 584 634 470 965 
Q 356 1297 356 1719 
Q 356 2281 547 2676 
Q 738 3072 1092 3280 
Q 1447 3488 1938 3488 
Q 2406 3488 2757 3278 
Q 3109 3069 3304 2673 
Q 3500 2278 3500 1719 
z
M 894 1719 
Q 894 1306 1003 1003 
Q 1113 700 1341 534 
Q 1569 369 1928 369 
Q 2284 369 2514 534 
Q 2744 700 2853 1003 
Q 2963 1306 2963 1719 
Q 2963 2128 2853 2426 
Q 2744 2725 2516 2887 
Q 2288 3050 1925 3050 
Q 1391 3050 1142 2697 
Q 894 2344 894 1719 
z
" transform="scale(0.015625)"/>
     <path id="OpenSans-Regular-6b" d="M 1063 4863 
L 1063 2338 
Q 1063 2213 1053 2033 
Q 1044 1853 1038 1716 
L 1059 1716 
Q 1125 1797 1251 1956 
Q 1378 2116 1466 2213 
L 2603 3425 
L 3213 3425 
L 1834 1963 
L 3313 0 
L 2688 0 
L 1478 1622 
L 1063 1241 
L 1063 0 
L 547 0 
L 547 4863 
L 1063 4863 
z
" transform="scale(0.015625)"/>
     <path id="OpenSans-Regular-20" transform="scale(0.015625)"/>
     <path id="OpenSans-Regular-63" d="M 1919 -63 
Q 1456 -63 1103 128 
Q 750 319 553 709 
Q 356 1100 356 1694 
Q 356 2316 564 2711 
Q 772 3106 1137 3297 
Q 1503 3488 1969 3488 
Q 2225 3488 2464 3436 
Q 2703 3384 2856 3306 
L 2700 2872 
Q 2544 2934 2339 2984 
Q 2134 3034 1956 3034 
Q 1600 3034 1364 2881 
Q 1128 2728 1011 2431 
Q 894 2134 894 1700 
Q 894 1284 1008 990 
Q 1122 697 1348 542 
Q 1575 388 1916 388 
Q 2188 388 2406 445 
Q 2625 503 2803 581 
L 2803 119 
Q 2631 31 2420 -16 
Q 2209 -63 1919 -63 
z
" transform="scale(0.015625)"/>
     <path id="OpenSans-Regular-75" d="M 3375 3425 
L 3375 0 
L 2950 0 
L 2875 481 
L 2847 481 
Q 2741 303 2572 181 
Q 2403 59 2192 -2 
Q 1981 -63 1744 -63 
Q 1338 -63 1063 68 
Q 788 200 648 475 
Q 509 750 509 1181 
L 509 3425 
L 1034 3425 
L 1034 1219 
Q 1034 791 1228 580 
Q 1422 369 1819 369 
Q 2200 369 2426 512 
Q 2653 656 2753 936 
Q 2853 1216 2853 1622 
L 2853 3425 
L 3375 3425 
z
" transform="scale(0.015625)"/>
     <path id="OpenSans-Regular-6e" d="M 2169 3488 
Q 2778 3488 3090 3189 
Q 3403 2891 3403 2231 
L 3403 0 
L 2891 0 
L 2891 2197 
Q 2891 2625 2695 2837 
Q 2500 3050 2097 3050 
Q 1528 3050 1297 2728 
Q 1066 2406 1066 1794 
L 1066 0 
L 547 0 
L 547 3425 
L 966 3425 
L 1044 2931 
L 1072 2931 
Q 1181 3113 1350 3236 
Q 1519 3359 1728 3423 
Q 1938 3488 2169 3488 
z
" transform="scale(0.015625)"/>
     <path id="OpenSans-Regular-62" d="M 1066 4863 
L 1066 3647 
Q 1066 3438 1055 3241 
Q 1044 3044 1038 2934 
L 1066 2934 
Q 1206 3166 1472 3325 
Q 1738 3484 2150 3484 
Q 2794 3484 3176 3039 
Q 3559 2594 3559 1716 
Q 3559 1138 3384 741 
Q 3209 344 2890 140 
Q 2572 -63 2138 -63 
Q 1731 -63 1470 89 
Q 1209 241 1069 459 
L 1028 459 
L 922 0 
L 547 0 
L 547 4863 
L 1066 4863 
z
M 2066 3050 
Q 1694 3050 1475 2904 
Q 1256 2759 1161 2467 
Q 1066 2175 1066 1728 
L 1066 1700 
Q 1066 1053 1281 711 
Q 1497 369 2066 369 
Q 2544 369 2783 719 
Q 3022 1069 3022 1719 
Q 3022 2381 2786 2715 
Q 2550 3050 2066 3050 
z
" transform="scale(0.015625)"/>
     <path id="OpenSans-Regular-79" d="M 6 3425 
L 563 3425 
L 1319 1438 
Q 1384 1263 1440 1102 
Q 1497 941 1540 794 
Q 1584 647 1609 509 
L 1631 509 
Q 1675 666 1756 920 
Q 1838 1175 1931 1441 
L 2647 3425 
L 3206 3425 
L 1716 -503 
Q 1597 -819 1439 -1053 
Q 1281 -1288 1056 -1414 
Q 831 -1541 513 -1541 
Q 366 -1541 253 -1523 
Q 141 -1506 59 -1484 
L 59 -1069 
Q 128 -1084 226 -1096 
Q 325 -1109 431 -1109 
Q 625 -1109 767 -1036 
Q 909 -963 1012 -822 
Q 1116 -681 1191 -488 
L 1378 -6 
L 6 3425 
z
" transform="scale(0.015625)"/>
     <path id="OpenSans-Regular-70" d="M 2156 3488 
Q 2797 3488 3178 3047 
Q 3559 2606 3559 1722 
Q 3559 1138 3384 741 
Q 3209 344 2892 140 
Q 2575 -63 2144 -63 
Q 1872 -63 1665 9 
Q 1459 81 1312 203 
Q 1166 325 1069 469 
L 1031 469 
Q 1041 347 1055 175 
Q 1069 3 1069 -125 
L 1069 -1531 
L 547 -1531 
L 547 3425 
L 975 3425 
L 1044 2919 
L 1069 2919 
Q 1169 3075 1312 3204 
Q 1456 3334 1664 3411 
Q 1872 3488 2156 3488 
z
M 2066 3050 
Q 1709 3050 1492 2912 
Q 1275 2775 1175 2501 
Q 1075 2228 1069 1816 
L 1069 1716 
Q 1069 1281 1164 981 
Q 1259 681 1479 525 
Q 1700 369 2072 369 
Q 2391 369 2603 541 
Q 2816 713 2920 1020 
Q 3025 1328 3025 1728 
Q 3025 2334 2789 2692 
Q 2553 3050 2066 3050 
z
" transform="scale(0.015625)"/>
     <path id="OpenSans-Regular-65" d="M 1866 3488 
Q 2303 3488 2615 3294 
Q 2928 3100 3093 2751 
Q 3259 2403 3259 1938 
L 3259 1616 
L 894 1616 
Q 903 1013 1193 697 
Q 1484 381 2013 381 
Q 2338 381 2588 440 
Q 2838 500 3106 616 
L 3106 159 
Q 2847 44 2592 -9 
Q 2338 -63 1991 -63 
Q 1497 -63 1130 139 
Q 763 341 559 731 
Q 356 1122 356 1688 
Q 356 2241 542 2645 
Q 728 3050 1067 3269 
Q 1406 3488 1866 3488 
z
M 1859 3063 
Q 1444 3063 1197 2791 
Q 950 2519 903 2031 
L 2716 2031 
Q 2713 2338 2620 2570 
Q 2528 2803 2340 2933 
Q 2153 3063 1859 3063 
z
" transform="scale(0.015625)"/>
     <path id="OpenSans-Regular-61" d="M 1828 3481 
Q 2441 3481 2737 3206 
Q 3034 2931 3034 2328 
L 3034 0 
L 2656 0 
L 2556 506 
L 2531 506 
Q 2388 319 2231 192 
Q 2075 66 1870 1 
Q 1666 -63 1369 -63 
Q 1056 -63 814 46 
Q 572 156 433 378 
Q 294 600 294 941 
Q 294 1453 700 1728 
Q 1106 2003 1938 2028 
L 2528 2053 
L 2528 2263 
Q 2528 2706 2337 2884 
Q 2147 3063 1800 3063 
Q 1531 3063 1287 2984 
Q 1044 2906 825 2800 
L 666 3194 
Q 897 3313 1197 3397 
Q 1497 3481 1828 3481 
z
M 2522 1688 
L 2000 1666 
Q 1359 1641 1096 1456 
Q 834 1272 834 934 
Q 834 641 1012 500 
Q 1191 359 1484 359 
Q 1941 359 2231 612 
Q 2522 866 2522 1372 
L 2522 1688 
z
" transform="scale(0.015625)"/>
     <path id="OpenSans-Regular-64" d="M 1766 -63 
Q 1116 -63 736 381 
Q 356 825 356 1700 
Q 356 2584 743 3036 
Q 1131 3488 1775 3488 
Q 2047 3488 2250 3416 
Q 2453 3344 2600 3223 
Q 2747 3103 2847 2950 
L 2884 2950 
Q 2872 3047 2859 3215 
Q 2847 3384 2847 3491 
L 2847 4863 
L 3366 4863 
L 3366 0 
L 2947 0 
L 2869 488 
L 2847 488 
Q 2750 334 2601 209 
Q 2453 84 2248 10 
Q 2044 -63 1766 -63 
z
M 1847 369 
Q 2397 369 2625 681 
Q 2853 994 2853 1609 
L 2853 1703 
Q 2853 2356 2636 2706 
Q 2419 3056 1847 3056 
Q 1369 3056 1131 2689 
Q 894 2322 894 1688 
Q 894 1056 1130 712 
Q 1366 369 1847 369 
z
" transform="scale(0.015625)"/>
    </defs>
    <use xlink:href="#OpenSans-Regular-41"/>
    <use xlink:href="#OpenSans-Regular-72" transform="translate(63.232422 0)"/>
    <use xlink:href="#OpenSans-Regular-74" transform="translate(104.101562 0)"/>
    <use xlink:href="#OpenSans-Regular-77" transform="translate(139.746094 0)"/>
    <use xlink:href="#OpenSans-Regular-6f" transform="translate(217.236328 0)"/>
    <use xlink:href="#OpenSans-Regular-72" transform="translate(277.392578 0)"/>
    <use xlink:href="#OpenSans-Regular-6b" transform="translate(318.261719 0)"/>
    <use xlink:href="#OpenSans-Regular-20" transform="translate(370.800781 0)"/>
    <use xlink:href="#OpenSans-Regular-63" transform="translate(396.777344 0)"/>
    <use xlink:href="#OpenSans-Regular-6f" transform="translate(444.677734 0)"/>
    <use xlink:href="#OpenSans-Regular-75" transform="translate(504.833984 0)"/>
    <use xlink:href="#OpenSans-Regular-6e" transform="translate(566.162109 0)"/>
    <use xlink:href="#OpenSans-Regular-74" transform="translate(627.490234 0)"/>
    <use xlink:href="#OpenSans-Regular-20" transform="translate(663.134766 0)"/>
    <use xlink:href="#OpenSans-Regular-62" transform="translate(689.111328 0)"/>
    <use xlink:href="#OpenSans-Regular-79" transform="translate(750.292969 0)"/>
    <use xlink:href="#OpenSans-Regular-20" transform="translate(800.390625 0)"/>
    <use xlink:href="#OpenSans-Regular-74" transform="translate(826.367188 0)"/>
    <use xlink:href="#OpenSans-Regular-79" transform="translate(862.011719 0)"/>
    <use xlink:href="#OpenSans-Regular-70" transform="translate(912.109375 0)"/>
    <use xlink:href="#OpenSans-Regular-65" transform="translate(973.291016 0)"/>
    <use xlink:href="#OpenSans-Regular-20" transform="translate(1029.443359 0)"/>
    <use xlink:href="#OpenSans-Regular-61" transform="translate(1055.419922 0)"/>
    <use xlink:href="#OpenSans-Regular-6e" transform="translate(1110.986328 0)"/>
    <use xlink:href="#OpenSans-Regular-64" transform="translate(1172.314453 0)"/>
    <use xlink:href="#OpenSans-Regular-20" transform="translate(1233.496094 0)"/>
    <use xlink:href="#OpenSans-Regular-79" transform="translate(1259.472656 0)"/>
    <use xlink:href="#OpenSans-Regular-65" transform="translate(1309.570312 0)"/>
    <use xlink:href="#OpenSans-Regular-61" transform="translate(1365.722656 0)"/>
    <use xlink:href="#OpenSans-Regular-72" transform="translate(1421.289062 0)"/>
    <use xlink:href="#OpenSans-Regular-20" transform="translate(1462.158203 0)"/>
    <use xlink:href="#OpenSans-Regular-63" transform="translate(1488.134766 0)"/>
    <use xlink:href="#OpenSans-Regular-72" transform="translate(1536.035156 0)"/>
    <use xlink:href="#OpenSans-Regular-65" transform="translate(1576.904297 0)"/>
    <use xlink:href="#OpenSans-Regular-61" transform="translate(1633.056641 0)"/>
    <use xlink:href="#OpenSans-Regular-74" transform="translate(1688.623047 0)"/>
    <use xlink:href="#OpenSans-Regular-65" transform="translate(1724.267578 0)"/>
    <use xlink:href="#OpenSans-Regular-64" transform="translate(1780.419922 0)"/>
   </g>
  </g>
 </g>
 <defs>
  <clipPath id="p0f11212530">
   <rect x="19.619668" y="7.2" width="558" height="332.64"/>
  </clipPath>
 </defs>
</svg>
